<?xml version="1.0" encoding="UTF-8" standalone="no"?>
<svg
   xmlns:dc="http://purl.org/dc/elements/1.1/"
   xmlns:cc="http://creativecommons.org/ns#"
   xmlns:rdf="http://www.w3.org/1999/02/22-rdf-syntax-ns#"
   xmlns:svg="http://www.w3.org/2000/svg"
   xmlns="http://www.w3.org/2000/svg"
   xmlns:sodipodi="http://sodipodi.sourceforge.net/DTD/sodipodi-0.dtd"
   xmlns:inkscape="http://www.inkscape.org/namespaces/inkscape"
   id="svg8"
   xml:space="preserve"
   viewBox="0 0 48 48"
   version="1.1"
   style="enable-background:new 0 0 48 48;"
   sodipodi:docname="open.svg"
   inkscape:version="0.92.3 (2405546, 2018-03-11)"><sodipodi:namedview
     pagecolor="#ffffff"
     bordercolor="#666666"
     borderopacity="1"
     objecttolerance="10"
     gridtolerance="10"
     guidetolerance="10"
     inkscape:pageopacity="0"
     inkscape:pageshadow="2"
     inkscape:window-width="1062"
     inkscape:window-height="744"
     id="namedview13"
     showgrid="false"
     inkscape:zoom="4.9166667"
     inkscape:cx="24"
     inkscape:cy="24"
     inkscape:window-x="277"
     inkscape:window-y="89"
     inkscape:window-maximized="0"
     inkscape:current-layer="svg8" /><metadata
     id="metadata14"><rdf:RDF><cc:Work
         rdf:about=""><dc:format>image/svg+xml</dc:format><dc:type
           rdf:resource="http://purl.org/dc/dcmitype/StillImage" /><dc:title /></cc:Work></rdf:RDF></metadata><defs
     id="defs12" /><g
     transform="matrix(0.9449708,-0.9449708,0.9449708,0.9449708,-8.5110572,20.858857)"
     id="Icons"
     style="stroke:#404040;stroke-width:0.77522248;stroke-linecap:round;stroke-linejoin:bevel;stroke-miterlimit:4;stroke-dasharray:none;stroke-opacity:1"><g
       id="Icons_16_"
       style="stroke:#404040;stroke-width:0.77522248;stroke-linecap:round;stroke-linejoin:bevel;stroke-miterlimit:4;stroke-dasharray:none;stroke-opacity:1"><g
         id="g4"
         style="stroke:#404040;stroke-width:0.77522248;stroke-linecap:round;stroke-linejoin:bevel;stroke-miterlimit:4;stroke-dasharray:none;stroke-opacity:1"><path
           id="path2"
           style="fill:#ffcc66;stroke:#404040;stroke-width:0.77522248;stroke-linecap:round;stroke-linejoin:bevel;stroke-miterlimit:4;stroke-dasharray:none;stroke-opacity:1"
           d="m 25.1117,25.21952 c -2.7596,0.1132 -6.1258,-0.3834 -8.4034,0.6548 -2.1065,0.9602 -3.7986,2.7468 -4.5709,4.9297 -0.1374,0.3882 -0.246,0.7864 -0.3245,1.1906 v -3.1841 c 0,-1.2084 0.2623,-2.4118 0.7679,-3.5095 0.4915,-1.0672 1.2075,-2.0277 2.0869,-2.8065 0.8838,-0.7826 1.9298,-1.3786 3.0558,-1.7343 1.6189,-0.5115 3.3781,-0.4412 5.0518,-0.3317 0.7769,0.0509 1.5576,0.0747 2.3364,0.0747 v -3.9861 c 0,-0.4069 0.4429,-0.6463 0.7781,-0.4309 l 10.0549,6.3442 c 0.3232,0.2035 0.3232,0.6584 0,0.8619 l -5.5541,3.5072 -1.999,1.2689 -2.5018,1.58 c -0.3352,0.2155 -0.7781,-0.0359 -0.7781,-0.4309 v -3.4713 -0.5267"
           inkscape:connector-curvature="0" /></g></g></g><g
     id="g827"
     transform="matrix(-0.9449708,-0.9449708,-0.9449708,0.9449708,56.511057,20.858857)"
     style="stroke:#404040;stroke-width:0.77522248;stroke-linecap:round;stroke-linejoin:bevel;stroke-miterlimit:4;stroke-dasharray:none;stroke-opacity:1"><g
       id="g825"
       style="stroke:#404040;stroke-width:0.77522248;stroke-linecap:round;stroke-linejoin:bevel;stroke-miterlimit:4;stroke-dasharray:none;stroke-opacity:1"><g
         id="g823"
         style="stroke:#404040;stroke-width:0.77522248;stroke-linecap:round;stroke-linejoin:bevel;stroke-miterlimit:4;stroke-dasharray:none;stroke-opacity:1"><path
           d="m 25.1117,25.21952 c -2.7596,0.1132 -6.1258,-0.3834 -8.4034,0.6548 -2.1065,0.9602 -3.7986,2.7468 -4.5709,4.9297 -0.1374,0.3882 -0.246,0.7864 -0.3245,1.1906 v -3.1841 c 0,-1.2084 0.2623,-2.4118 0.7679,-3.5095 0.4915,-1.0672 1.2075,-2.0277 2.0869,-2.8065 0.8838,-0.7826 1.9298,-1.3786 3.0558,-1.7343 1.6189,-0.5115 3.3781,-0.4412 5.0518,-0.3317 0.7769,0.0509 1.5576,0.0747 2.3364,0.0747 v -3.9861 c 0,-0.4069 0.4429,-0.6463 0.7781,-0.4309 l 10.0549,6.3442 c 0.3232,0.2035 0.3232,0.6584 0,0.8619 l -5.5541,3.5072 -1.999,1.2689 -2.5018,1.58 c -0.3352,0.2155 -0.7781,-0.0359 -0.7781,-0.4309 v -3.4713 -0.5267"
           style="fill:#ffcc66;stroke:#404040;stroke-width:0.77522248;stroke-linecap:round;stroke-linejoin:bevel;stroke-miterlimit:4;stroke-dasharray:none;stroke-opacity:1"
           id="path821"
           inkscape:connector-curvature="0" /></g></g></g></svg>