<?xml version="1.0" encoding="UTF-8" standalone="no"?>
<svg
   xmlns:dc="http://purl.org/dc/elements/1.1/"
   xmlns:cc="http://creativecommons.org/ns#"
   xmlns:rdf="http://www.w3.org/1999/02/22-rdf-syntax-ns#"
   xmlns:svg="http://www.w3.org/2000/svg"
   xmlns="http://www.w3.org/2000/svg"
   xmlns:sodipodi="http://sodipodi.sourceforge.net/DTD/sodipodi-0.dtd"
   xmlns:inkscape="http://www.inkscape.org/namespaces/inkscape"
   xml:space="preserve"
   style="enable-background:new 0 0 512 512;"
   viewBox="0 0 512 512"
   y="0px"
   x="0px"
   id="Capa_1"
   version="1.1"
   sodipodi:docname="window_off.svg"
   inkscape:version="0.92.3 (2405546, 2018-03-11)"><sodipodi:namedview
   pagecolor="#ffffff"
   bordercolor="#666666"
   borderopacity="1"
   objecttolerance="10"
   gridtolerance="10"
   guidetolerance="10"
   inkscape:pageopacity="0"
   inkscape:pageshadow="2"
   inkscape:window-width="1853"
   inkscape:window-height="1025"
   id="namedview40"
   showgrid="false"
   inkscape:zoom="1.3037281"
   inkscape:cx="253.4973"
   inkscape:cy="295.52916"
   inkscape:window-x="67"
   inkscape:window-y="27"
   inkscape:window-maximized="1"
   inkscape:current-layer="Capa_1" /><metadata
   id="metadata69"><rdf:RDF><cc:Work
       rdf:about=""><dc:format>image/svg+xml</dc:format><dc:type
         rdf:resource="http://purl.org/dc/dcmitype/StillImage" /><dc:title /></cc:Work></rdf:RDF></metadata><defs
   id="defs67">
	
	

	
	

	
	

	
	
</defs>

<rect
   ry="20.953442"
   y="35.06599"
   x="257.66299"
   height="398.18002"
   width="180.77588"
   id="rect912"
   style="fill:#bbdcff;fill-opacity:1;fill-rule:nonzero;stroke:none;stroke-width:34.14144516;stroke-linecap:round;stroke-linejoin:round;stroke-miterlimit:10;stroke-dasharray:none;stroke-opacity:1" /><rect
   style="fill:#e6f1ff;fill-opacity:1;fill-rule:nonzero;stroke:none;stroke-width:34.14144516;stroke-linecap:round;stroke-linejoin:round;stroke-miterlimit:10;stroke-dasharray:none;stroke-opacity:1"
   id="rect891"
   width="180.77588"
   height="398.18002"
   x="76.887115"
   y="35.06599"
   ry="20.953442" />

<g
   id="g881"
   transform="translate(15.340622,-9.204373)"><path
     inkscape:connector-curvature="0"
     id="path8"
     d="m 395.527,269.697 v 118.401 c 0,13.712 -11.152,24.874 -24.874,24.874 h -76.904 c -9.592,0 -17.933,-5.451 -22.064,-13.422 -1.8,-3.431 -2.811,-7.321 -2.811,-11.452 V 269.697 c 0,-8.281 6.711,-15.003 15.003,-15.003 h 96.647 c 8.292,0.001 15.003,6.722 15.003,15.003 z"
     style="fill:#00a5ff" /><path
     inkscape:connector-curvature="0"
     id="path12"
     d="m 395.527,295.282 v 92.816 c 0,13.712 -11.152,24.874 -24.874,24.874 h -76.904 c -9.592,0 -17.933,-5.451 -22.064,-13.422 -1.8,-3.431 -2.811,-7.321 -2.811,-11.452 v -21.404 z"
     style="fill:#83c9ff" /></g><g
   id="g877"
   transform="translate(-15.340622,-9.204373)"><path
     inkscape:connector-curvature="0"
     id="path6"
     d="m 246.401,269.697 v 118.401 c 0,13.712 -11.162,24.874 -24.874,24.874 h -76.914 c -13.712,0 -24.874,-11.162 -24.874,-24.874 V 269.697 c 0,-8.281 6.721,-15.003 15.003,-15.003 h 96.657 c 8.281,0.001 15.002,6.722 15.002,15.003 z"
     style="fill:#00a5ff" /><path
     inkscape:connector-curvature="0"
     id="path14"
     d="m 246.401,282.05 v 106.049 c 0,13.712 -11.162,24.874 -24.874,24.874 h -76.914 c -13.712,0 -24.874,-11.162 -24.874,-24.874 v -39.137 z"
     style="fill:#83c9ff" /></g>



<path
   id="path30"
   d="M475.531,472.033v1.19c0,21.384-17.403,38.777-38.787,38.777H75.251  c-21.384,0-38.777-17.393-38.777-38.777v-1.19c0-21.384,17.393-38.787,38.777-38.787h361.494  C458.128,433.246,475.531,450.649,475.531,472.033z"
   style="fill:#7A7780;" />
<path
   id="path32"
   d="M475.531,472.033v1.19c0,21.384-17.403,38.777-38.787,38.777H257.663v-78.754h179.081  C458.128,433.246,475.531,450.649,475.531,472.033z"
   style="fill:#57555C;" />
<g
   id="g34">
</g>
<g
   id="g36">
</g>
<g
   id="g38">
</g>
<g
   id="g40">
</g>
<g
   id="g42">
</g>
<g
   id="g44">
</g>
<g
   id="g46">
</g>
<g
   id="g48">
</g>
<g
   id="g50">
</g>
<g
   id="g52">
</g>
<g
   id="g54">
</g>
<g
   id="g56">
</g>
<g
   id="g58">
</g>
<g
   id="g60">
</g>
<g
   id="g62">
</g>
<g
   id="g863"
   transform="translate(15.340622,-9.204373)"><path
     inkscape:connector-curvature="0"
     style="fill:#00a5ff"
     d="m 395.527,84.84251 v 118.401 c 0,13.712 -11.152,24.874 -24.874,24.874 h -76.904 c -9.592,0 -17.933,-5.451 -22.064,-13.422 -1.8,-3.431 -2.811,-7.321 -2.811,-11.452 v -118.401 c 0,-8.281 6.711,-15.003 15.003,-15.003 h 96.647 c 8.292,10e-4 15.003,6.722 15.003,15.003 z"
     id="path898" /><path
     inkscape:connector-curvature="0"
     style="fill:#83c9ff"
     d="m 395.527,110.42751 v 92.816 c 0,13.712 -11.152,24.874 -24.874,24.874 h -76.904 c -9.592,0 -17.933,-5.451 -22.064,-13.422 -1.8,-3.431 -2.811,-7.321 -2.811,-11.452 v -21.404 z"
     id="path902" /></g><g
   id="g859"
   transform="translate(-15.340622,-9.204373)"><path
     inkscape:connector-curvature="0"
     style="fill:#00a5ff"
     d="m 246.401,84.84251 v 118.401 c 0,13.712 -11.162,24.874 -24.874,24.874 h -76.914 c -13.712,0 -24.874,-11.162 -24.874,-24.874 v -118.401 c 0,-8.281 6.721,-15.003 15.003,-15.003 h 96.657 c 8.281,10e-4 15.002,6.722 15.002,15.003 z"
     id="path896" /><path
     inkscape:connector-curvature="0"
     style="fill:#83c9ff"
     d="m 246.401,97.19551 v 106.049 c 0,13.712 -11.162,24.874 -24.874,24.874 h -76.914 c -13.712,0 -24.874,-11.162 -24.874,-24.874 v -39.137 z"
     id="path904" /></g></svg>