<?xml version="1.0" encoding="UTF-8" standalone="no"?>
<!-- Generator: Adobe Illustrator 19.0.0, SVG Export Plug-In . SVG Version: 6.00 Build 0)  -->

<svg
   xmlns:dc="http://purl.org/dc/elements/1.1/"
   xmlns:cc="http://creativecommons.org/ns#"
   xmlns:rdf="http://www.w3.org/1999/02/22-rdf-syntax-ns#"
   xmlns:svg="http://www.w3.org/2000/svg"
   xmlns="http://www.w3.org/2000/svg"
   xmlns:sodipodi="http://sodipodi.sourceforge.net/DTD/sodipodi-0.dtd"
   xmlns:inkscape="http://www.inkscape.org/namespaces/inkscape"
   version="1.1"
   id="Capa_1"
   x="0px"
   y="0px"
   viewBox="0 0 58 58"
   style="enable-background:new 0 0 58 58;"
   xml:space="preserve"
   sodipodi:docname="switches.svg"
   inkscape:version="0.92.3 (2405546, 2018-03-11)"><metadata
   id="metadata45"><rdf:RDF><cc:Work
       rdf:about=""><dc:format>image/svg+xml</dc:format><dc:type
         rdf:resource="http://purl.org/dc/dcmitype/StillImage" /></cc:Work></rdf:RDF></metadata><defs
   id="defs43" /><sodipodi:namedview
   pagecolor="#ffffff"
   bordercolor="#666666"
   borderopacity="1"
   objecttolerance="10"
   gridtolerance="10"
   guidetolerance="10"
   inkscape:pageopacity="0"
   inkscape:pageshadow="2"
   inkscape:window-width="1853"
   inkscape:window-height="1025"
   id="namedview41"
   showgrid="false"
   inkscape:zoom="11.508772"
   inkscape:cx="21.465174"
   inkscape:cy="33.395336"
   inkscape:window-x="67"
   inkscape:window-y="27"
   inkscape:window-maximized="1"
   inkscape:current-layer="Capa_1" />
<path
   style="fill:#E7ECED;"
   d="M45,26H13C5.85,26,0,20.15,0,13v0C0,5.85,5.85,0,13,0h32c7.15,0,13,5.85,13,13v0  C58,20.15,52.15,26,45,26z"
   id="path2" />
<path
   style="fill:#E7ECED;"
   d="M13,58h32c7.15,0,13-5.85,13-13v0c0-7.15-5.85-13-13-13H13C5.85,32,0,37.85,0,45v0  C0,52.15,5.85,58,13,58z"
   id="path4" />
<circle
   style="fill:#88C057;stroke:#659C35;stroke-width:2;stroke-linecap:round;stroke-miterlimit:10;"
   cx="45"
   cy="13"
   r="9"
   id="circle6" />
<circle
   style="fill:#ED7161;stroke:#D75A4A;stroke-width:2;stroke-linecap:round;stroke-miterlimit:10;"
   cx="13"
   cy="45"
   r="9"
   id="circle8" />
<g
   id="g10">
</g>
<g
   id="g12">
</g>
<g
   id="g14">
</g>
<g
   id="g16">
</g>
<g
   id="g18">
</g>
<g
   id="g20">
</g>
<g
   id="g22">
</g>
<g
   id="g24">
</g>
<g
   id="g26">
</g>
<g
   id="g28">
</g>
<g
   id="g30">
</g>
<g
   id="g32">
</g>
<g
   id="g34">
</g>
<g
   id="g36">
</g>
<g
   id="g38">
</g>
</svg>