<?xml version="1.0" encoding="UTF-8" standalone="no"?>
<svg
   xmlns:dc="http://purl.org/dc/elements/1.1/"
   xmlns:cc="http://creativecommons.org/ns#"
   xmlns:rdf="http://www.w3.org/1999/02/22-rdf-syntax-ns#"
   xmlns:svg="http://www.w3.org/2000/svg"
   xmlns="http://www.w3.org/2000/svg"
   viewBox="0 0 666.66669 666.66669"
   height="666.66669"
   width="666.66669"
   xml:space="preserve"
   id="svg2"
   version="1.1"><metadata
     id="metadata8"><rdf:RDF><cc:Work
         rdf:about=""><dc:format>image/svg+xml</dc:format><dc:type
           rdf:resource="http://purl.org/dc/dcmitype/StillImage" /><dc:title></dc:title></cc:Work></rdf:RDF></metadata><defs
     id="defs6"><clipPath
       id="clipPath20"
       clipPathUnits="userSpaceOnUse"><path
         id="path18"
         d="M 0,500 H 500 V 0 H 0 Z" /></clipPath><clipPath
       id="clipPath250"
       clipPathUnits="userSpaceOnUse"><path
         id="path248"
         d="M 0,0.445 H 499.555 V 500 H 0 Z" /></clipPath><clipPath
       id="clipPath304"
       clipPathUnits="userSpaceOnUse"><path
         id="path302"
         d="m 450.394,207.472 c -7.274,-5.502 2.685,-30.661 3.384,-35.655 v 0 c 1.848,-13.188 -6.735,-28.229 -20.013,-31.899 v 0 c -5.208,-1.439 -10.847,-0.931 -16.475,-0.423 v 0 c -7.82,0.708 -15.617,1.414 -22.201,-3.105 v 0 c -2.408,-1.654 -4.081,-4.165 -5.511,-6.713 v 0 c -7.595,-13.535 -7.257,-20.765 0.358,-34.371 v 0 C 395.641,85.113 403.818,74.693 413.762,68.3 v 0 c 11.122,-7.15 25.472,-7.266 36.08,-15.257 v 0 c 4.185,-3.152 8.143,-7.806 13.372,-7.48 v 0 c 1.946,0.122 3.764,0.957 5.522,1.8 v 0 c 8.252,3.951 16.674,8.656 21.517,16.417 v 0 c 3.53,5.657 4.809,12.422 5.445,19.06 v 0 c 4.089,42.744 -14.022,83.898 -34.456,120.212 v 0 c -1.322,2.349 -3.007,4.937 -5.67,5.351 v 0 c -0.576,0.09 -1.113,0.133 -1.615,0.133 v 0 c -1.487,0 -2.658,-0.381 -3.563,-1.064" /></clipPath><clipPath
       id="clipPath320"
       clipPathUnits="userSpaceOnUse"><path
         id="path318"
         d="M 0,0.445 H 499.555 V 500 H 0 Z" /></clipPath><clipPath
       id="clipPath374"
       clipPathUnits="userSpaceOnUse"><path
         id="path372"
         d="M 0,0.445 H 499.555 V 500 H 0 Z" /></clipPath><clipPath
       id="clipPath474"
       clipPathUnits="userSpaceOnUse"><path
         id="path472"
         d="M 0,500 H 500 V 0 H 0 Z" /></clipPath></defs><g
     transform="matrix(1.3333333,0,0,-1.3333333,0,666.66667)"
     id="g10"><g
       transform="matrix(2.3066007,0,0,2.3066007,-817.49158,-339.7908)"
       id="g5407"><g
         id="g22"
         transform="translate(359.0449,316.7559)"><path
           d="m 0,0 2.525,-1.799 c 4.388,5.378 23.842,25.876 54.141,9.657 l 1.537,2.723 C 26.119,27.777 4.627,5.506 0,0"
           style="fill:#ffffff;fill-opacity:1;fill-rule:nonzero;stroke:none"
           id="path24" /></g><g
         id="g26"
         transform="translate(371.0771,306.853)"><path
           d="M 0,0 2.546,-1.813 C 5.93,2.133 18.177,13.942 36.834,4.259 l 1.537,2.725 C 17.499,17.895 3.647,4.278 0,0"
           style="fill:#ffffff;fill-opacity:1;fill-rule:nonzero;stroke:none"
           id="path28" /></g><g
         id="g30"
         transform="translate(380.3652,297.9902)"><path
           d="m 0,0 2.582,-1.839 c 2.425,2.6 9.268,8.297 19.36,3.383 L 23.48,4.27 C 12.508,9.7 3.876,4.448 0,0"
           style="fill:#ffffff;fill-opacity:1;fill-rule:nonzero;stroke:none"
           id="path32" /></g><g
         id="g34"
         transform="translate(394.7227,290.5356)"><path
           d="m 0,0 c -0.26,0.045 -0.532,0.046 -0.807,-0.003 -0.609,-0.11 -1.137,-0.451 -1.491,-0.96 -0.352,-0.508 -0.485,-1.124 -0.376,-1.733 0.111,-0.608 0.452,-1.137 0.96,-1.49 0.509,-0.353 1.124,-0.485 1.733,-0.376 0.608,0.11 1.137,0.451 1.491,0.96 0.352,0.508 0.485,1.123 0.376,1.732 C 1.707,-0.888 0.931,-0.162 0,0"
           style="fill:#ffffff;fill-opacity:1;fill-rule:nonzero;stroke:none"
           id="path36" /></g></g><g
       transform="matrix(1.8826692,0,0,1.8826692,-4.3856413,-158.30071)"
       id="g5397"><g
         id="g5362"><path
           id="path38"
           style="fill:#ffcf5e;fill-opacity:1;fill-rule:nonzero;stroke:none"
           d="m 233.949,280.573 h -12.292 v 31.97 h 12.292 z" /><g
           transform="translate(30.561,238.5254)"
           id="g40"><path
             id="path42"
             style="fill:#ebbf5b;fill-opacity:1;fill-rule:nonzero;stroke:none"
             d="M 0,0 H 101.418 V -74.017 H -7 V -7 c 0,3.866 3.134,7 7,7" /></g><g
           transform="translate(137.311,240.6104)"
           id="g44"><path
             id="path46"
             style="fill:#666666;fill-opacity:1;fill-rule:nonzero;stroke:none"
             d="m 0,0 h -106.616 c -4.131,0 -7.983,-2.081 -10.247,-5.537 l -5.68,-8.67 c -0.403,-0.614 0.038,-1.43 0.772,-1.43 H 0 c 0.51,0 0.923,0.413 0.923,0.923 V -0.923 C 0.923,-0.413 0.51,0 0,0" /></g><g
           transform="translate(254.6221,265.7954)"
           id="g48"><path
             id="path50"
             style="fill:#666666;fill-opacity:1;fill-rule:nonzero;stroke:none"
             d="m 0,0 -64.223,59.467 c -1.199,1.109 -3.05,1.109 -4.25,0 L -132.695,0 c -0.945,-0.875 -1.257,-2.237 -0.787,-3.436 0.469,-1.198 1.624,-1.986 2.911,-1.986 H -2.125 c 1.287,0 2.442,0.788 2.911,1.986 C 1.256,-2.237 0.944,-0.875 0,0" /></g><g
           transform="translate(244.5684,260.418)"
           id="g52"><path
             id="path54"
             style="fill:#f9da70;fill-opacity:1;fill-rule:nonzero;stroke:none"
             d="M 0,0 -56.294,52.125 -112.589,0 V -95.909 H 0 Z" /></g><path
           id="path58"
           style="fill:#ffffff;fill-opacity:1;fill-rule:nonzero;stroke:none"
           d="m 141.924,164.509 h -1.526 v 19.363 h 1.526 z" /><path
           id="path60"
           style="fill:#ffffff;fill-opacity:1;fill-rule:nonzero;stroke:none"
           d="m 150.04,164.509 h -1.526 v 19.363 h 1.526 z" /><path
           id="path62"
           style="fill:#ffffff;fill-opacity:1;fill-rule:nonzero;stroke:none"
           d="m 158.689,164.509 h -1.526 v 19.363 h 1.526 z" /><path
           id="path64"
           style="fill:#ffffff;fill-opacity:1;fill-rule:nonzero;stroke:none"
           d="m 167.847,164.509 h -1.526 v 19.363 h 1.526 z" /><path
           id="path66"
           style="fill:#ffffff;fill-opacity:1;fill-rule:nonzero;stroke:none"
           d="m 133.506,164.509 h -1.526 v 19.363 h 1.526 z" /><path
           id="path70"
           style="fill:#ffffff;fill-opacity:1;fill-rule:nonzero;stroke:none"
           d="m 233.949,164.509 h 1.637 v 19.363 h -1.637 z" /><path
           id="path72"
           style="fill:#ffffff;fill-opacity:1;fill-rule:nonzero;stroke:none"
           d="m 225.243,164.509 h 1.637 v 19.363 h -1.637 z" /><path
           id="path74"
           style="fill:#ffffff;fill-opacity:1;fill-rule:nonzero;stroke:none"
           d="m 215.966,164.509 h 1.637 v 19.363 h -1.637 z" /><path
           id="path76"
           style="fill:#ffffff;fill-opacity:1;fill-rule:nonzero;stroke:none"
           d="m 206.143,164.509 h 1.637 v 19.363 h -1.637 z" /><path
           id="path78"
           style="fill:#ffffff;fill-opacity:1;fill-rule:nonzero;stroke:none"
           d="m 242.979,164.509 h 1.637 v 19.363 h -1.637 z" /><path
           id="path80"
           style="fill:#a67c52;fill-opacity:1;fill-rule:nonzero;stroke:none"
           d="m 198.004,164.509 h -22.24 v 52.354 h 22.24 z" /><path
           id="path82"
           style="fill:#8c6239;fill-opacity:1;fill-rule:nonzero;stroke:none"
           d="M 120.924,164.509 H 98.684 V 211.5 h 22.24 z" /><path
           id="path84"
           style="fill:#c4c4c4;fill-opacity:1;fill-rule:nonzero;stroke:#ffffff;stroke-width:2;stroke-linecap:butt;stroke-linejoin:miter;stroke-miterlimit:10;stroke-dasharray:none;stroke-opacity:1"
           d="m 230.649,193.233 h -17.983 v 23.63 h 17.983 z" /><path
           id="path86"
           style="fill:#c4c4c4;fill-opacity:1;fill-rule:nonzero;stroke:#ffffff;stroke-width:2;stroke-linecap:butt;stroke-linejoin:miter;stroke-miterlimit:10;stroke-dasharray:none;stroke-opacity:1"
           d="m 162.516,193.233 h -17.983 v 23.63 h 17.983 z" /><path
           id="path88"
           style="fill:#9ae4ee;fill-opacity:1;fill-rule:nonzero;stroke:#ffffff;stroke-width:2;stroke-linecap:butt;stroke-linejoin:miter;stroke-miterlimit:10;stroke-dasharray:none;stroke-opacity:1"
           d="M 86.762,186.706 H 68.779 v 23.629 h 17.983 z" /><path
           id="path90"
           style="fill:#9ae4ee;fill-opacity:1;fill-rule:nonzero;stroke:#ffffff;stroke-width:2;stroke-linecap:butt;stroke-linejoin:miter;stroke-miterlimit:10;stroke-dasharray:none;stroke-opacity:1"
           d="M 54.097,186.706 H 36.114 v 23.629 h 17.983 z" /><path
           id="path92"
           style="fill:#c4c4c4;fill-opacity:1;fill-rule:nonzero;stroke:#ffffff;stroke-width:2;stroke-linecap:butt;stroke-linejoin:miter;stroke-miterlimit:10;stroke-dasharray:none;stroke-opacity:1"
           d="m 230.649,232.792 h -17.983 v 23.63 h 17.983 z" /><path
           id="path94"
           style="fill:#666666;fill-opacity:1;fill-rule:nonzero;stroke:none"
           d="m 237.879,312.542 h -20.106 v 6.776 h 20.106 z" /><path
           id="path96"
           style="fill:#c4c4c4;fill-opacity:1;fill-rule:nonzero;stroke:#ffffff;stroke-width:2;stroke-linecap:butt;stroke-linejoin:miter;stroke-miterlimit:10;stroke-dasharray:none;stroke-opacity:1"
           d="m 197.266,232.792 h -17.983 v 23.63 h 17.983 z" /><path
           id="path98"
           style="fill:#c4c4c4;fill-opacity:1;fill-rule:nonzero;stroke:#ffffff;stroke-width:1.99982031;stroke-linecap:butt;stroke-linejoin:miter;stroke-miterlimit:10;stroke-dasharray:none;stroke-opacity:1"
           d="m 162.516,232.792 h -17.983 v 23.63 h 17.983 z" /><path
           id="path100"
           style="fill:#ffffff;fill-opacity:1;fill-rule:nonzero;stroke:none"
           d="m 128.852,170.069 h 118.844 v -5.561 H 128.852 Z" /></g><path
         d="M 170.899,181.501 H 131.98 v 4.742 h 38.919 z"
         style="fill:#ffffff;fill-opacity:1;fill-rule:nonzero;stroke:none"
         id="path56" /><path
         d="m 202.869,181.501 h 41.747 v 4.742 h -41.747 z"
         style="fill:#ffffff;fill-opacity:1;fill-rule:nonzero;stroke:none"
         id="path68" /></g><g
       transform="translate(86.2153,260.9077)"
       id="g106"><path
         id="path108"
         style="fill:#ffffff;fill-opacity:1;fill-rule:nonzero;stroke:none"
         d="m 0,0 c 0,-4.303 -3.488,-7.791 -7.791,-7.791 -4.302,0 -7.79,3.488 -7.79,7.791 0,4.303 3.488,7.791 7.79,7.791 C -3.488,7.791 0,4.303 0,0" /></g><g
       transform="matrix(1.2829394,0,0,1.2829394,-412.19907,-33.474968)"
       id="g5440"><g
         id="g298"><g
           id="g300"
           clip-path="url(#clipPath304)"><g
             id="g306"
             transform="translate(452.6797,204.54)"><path
               d="m 0,0 c 1.238,7.135 3.641,14.196 7.228,21.312 3.501,6.947 8.2,13.631 14.985,17.435 1.244,0.697 2.61,1.304 4.035,1.243 2.586,-0.111 4.638,-2.466 5.241,-4.983 1.125,-4.687 -1.266,-8.759 -2.285,-13.103 -1.084,-4.62 -1.071,-8.03 -0.099,-12.913 2.23,-11.192 7.028,-21.668 10.999,-32.303 6.357,-17.016 10.764,-34.759 13.11,-52.771 1.907,-14.646 2.431,-29.706 -1.185,-44.025 -3.615,-14.321 -11.753,-27.923 -24.236,-35.817 -4.28,-2.706 -8.758,-2.827 -13.001,-5.304 -6.056,-3.538 -11.487,-8.421 -17.508,-12.121 -2.773,-1.704 -6.456,-3.316 -9.062,-1.367 -1.453,1.087 -2.034,2.955 -2.584,4.684 -4.26,13.378 -9.633,23.072 -21.092,30.876 -11.262,7.669 -20.641,18.041 -27.29,29.924 -7.614,13.605 -7.952,20.836 -0.358,34.371 1.43,2.548 3.103,5.058 5.511,6.712 11.321,7.773 26.233,0.088 38.676,3.528 14.242,3.936 23.349,21.82 20.023,35.841 C -1.242,-18.869 -1.626,-9.371 0,0"
               style="fill:#ffb085;fill-opacity:1;fill-rule:nonzero;stroke:none"
               id="path308" /></g><g
             id="g310"
             transform="translate(470.1104,79.708)"><path
               d="m 0,0 -87.038,-12.203 c -3.214,-0.45 -6.184,1.789 -6.634,5.002 L -118.6,170.594 c -0.451,3.214 1.789,6.184 5.002,6.634 l 87.038,12.203 c 3.214,0.451 6.184,-1.789 6.634,-5.002 L 5.002,6.634 C 5.453,3.421 3.213,0.451 0,0"
               style="fill:#ffa472;fill-opacity:1;fill-rule:nonzero;stroke:none"
               id="path312" /></g></g></g><g
         id="g314"><g
           id="g316"
           clip-path="url(#clipPath320)"><g
             id="g322"
             transform="translate(465.6904,86.3818)"><path
               d="m 0,0 -87.038,-12.203 c -3.214,-0.451 -6.184,1.789 -6.634,5.002 L -118.6,170.594 c -0.451,3.213 1.789,6.183 5.002,6.634 l 87.038,12.203 c 3.213,0.451 6.184,-1.789 6.634,-5.002 L 5.002,6.634 C 5.453,3.421 3.213,0.45 0,0"
               style="fill:#484f55;fill-opacity:1;fill-rule:nonzero;stroke:none"
               id="path324" /></g><g
             id="g326"
             transform="translate(425.7432,92.9121)"><path
               d="m 0,0 c 0.406,-2.894 -1.611,-5.569 -4.505,-5.975 -2.894,-0.406 -5.569,1.612 -5.975,4.505 -0.406,2.895 1.611,5.57 4.505,5.976 C -3.081,4.911 -0.405,2.895 0,0"
               style="fill:#999999;fill-opacity:1;fill-rule:nonzero;stroke:none"
               id="path328" /></g><g
             id="g330"
             transform="translate(460.4365,110.9424)"><path
               d="m 0,0 -2.153,15.356 -18.85,134.447 -66.114,-9.27 -14.929,-2.093 -2.445,-0.343 21.431,-152.854 83.488,11.706 z"
               style="fill:#9ae4ee;fill-opacity:1;fill-rule:nonzero;stroke:none"
               id="path332" /></g><g
             id="g334"
             transform="translate(412.2041,262.9731)"><path
               d="m 0,0 -30.691,-4.303 c -1.099,-0.154 -2.115,0.612 -2.268,1.71 l -0.065,0.467 c -0.155,1.099 0.611,2.114 1.71,2.268 l 30.69,4.303 C 0.475,4.599 1.49,3.833 1.645,2.735 L 1.71,2.268 C 1.864,1.169 1.099,0.154 0,0"
               style="fill:#333333;fill-opacity:1;fill-rule:nonzero;stroke:none"
               id="path336" /></g><g
             id="g338"
             transform="translate(452.8574,197.1211)"><path
               d="m 0,0 c -1.425,3.639 -2.658,7.34 -3.489,11.155 -1.598,7.332 -1.62,15.212 1.328,22.113 1.335,3.127 3.334,6.072 6.192,7.914 4.883,3.144 11.156,1.584 12.843,-4.414 1.82,-6.474 -1.054,-14.127 -1.171,-20.708 -0.379,-21.125 10.189,-40.682 15.875,-61.031 0.799,-2.86 0.847,-6.951 -2.031,-7.682 -2.091,-0.531 -3.971,1.331 -5.254,3.065 -5.797,7.837 -9.822,16.814 -13.802,25.711 -2.079,4.647 -4.157,9.294 -6.235,13.94 C 2.786,-6.651 1.312,-3.353 0,0"
               style="fill:#ffb085;fill-opacity:1;fill-rule:nonzero;stroke:none"
               id="path340" /></g><g
             id="g342"
             transform="matrix(1.2501159,0,0,1.2501159,397.25975,176.68792)"><path
               d="m 0,0 18.662,2.258 2.59,-21.407 13.933,1.685 -3.381,27.952 5.285,0.64 -31.735,19.458 -26.069,-26.45 5.899,0.714 3.381,-27.954 14.025,1.698 z"
               style="fill:#ffffff;fill-opacity:1;fill-rule:nonzero;stroke:none"
               id="path344" /></g><g
             id="g346"
             transform="translate(435.4941,157.2441)"><path
               d="M 0,0 1.605,0.194 1.383,2.034 -0.223,1.84 Z"
               style="fill:#ffffff;fill-opacity:1;fill-rule:nonzero;stroke:none"
               id="path348" /></g><g
             id="g350"
             transform="translate(386.8838,153.2305)"><path
               d="m 0,0 0.223,-1.84 1.768,0.214 -0.222,1.84 z"
               style="fill:#ffffff;fill-opacity:1;fill-rule:nonzero;stroke:none"
               id="path352" /></g></g></g></g></g></svg>