<?xml version="1.0" encoding="UTF-8" standalone="no"?>
<svg
   xmlns:dc="http://purl.org/dc/elements/1.1/"
   xmlns:cc="http://creativecommons.org/ns#"
   xmlns:rdf="http://www.w3.org/1999/02/22-rdf-syntax-ns#"
   xmlns:svg="http://www.w3.org/2000/svg"
   xmlns="http://www.w3.org/2000/svg"
   xmlns:sodipodi="http://sodipodi.sourceforge.net/DTD/sodipodi-0.dtd"
   xmlns:inkscape="http://www.inkscape.org/namespaces/inkscape"
   viewBox="0 0 666.66669 666.66669"
   height="666.66669"
   width="666.66669"
   xml:space="preserve"
   id="svg2"
   version="1.1"
   sodipodi:docname="0_big.svg"
   inkscape:export-filename="/media/michal/Dane/InteligentnyDom/IKONY/0_big.svg.png"
   inkscape:export-xdpi="300"
   inkscape:export-ydpi="300"
   inkscape:version="0.92.3 (2405546, 2018-03-11)"><sodipodi:namedview
     pagecolor="#ffffff"
     bordercolor="#666666"
     borderopacity="1"
     objecttolerance="10"
     gridtolerance="10"
     guidetolerance="10"
     inkscape:pageopacity="0"
     inkscape:pageshadow="2"
     inkscape:window-width="1853"
     inkscape:window-height="1025"
     id="namedview243"
     showgrid="false"
     inkscape:zoom="0.35399999"
     inkscape:cx="333.33334"
     inkscape:cy="333.33334"
     inkscape:window-x="67"
     inkscape:window-y="27"
     inkscape:window-maximized="1"
     inkscape:current-layer="svg2" /><metadata
     id="metadata8"><rdf:RDF><cc:Work
         rdf:about=""><dc:format>image/svg+xml</dc:format><dc:type
           rdf:resource="http://purl.org/dc/dcmitype/StillImage" /><dc:title /></cc:Work></rdf:RDF></metadata><defs
     id="defs6"><clipPath
       id="clipPath20"
       clipPathUnits="userSpaceOnUse"><path
         id="path18"
         d="M 0,500 H 500 V 0 H 0 Z" /></clipPath><clipPath
       id="clipPath250"
       clipPathUnits="userSpaceOnUse"><path
         id="path248"
         d="M 0,0.445 H 499.555 V 500 H 0 Z" /></clipPath><clipPath
       id="clipPath304"
       clipPathUnits="userSpaceOnUse"><path
         id="path302"
         d="m 450.394,207.472 c -7.274,-5.502 2.685,-30.661 3.384,-35.655 v 0 c 1.848,-13.188 -6.735,-28.229 -20.013,-31.899 v 0 c -5.208,-1.439 -10.847,-0.931 -16.475,-0.423 v 0 c -7.82,0.708 -15.617,1.414 -22.201,-3.105 v 0 c -2.408,-1.654 -4.081,-4.165 -5.511,-6.713 v 0 c -7.595,-13.535 -7.257,-20.765 0.358,-34.371 v 0 C 395.641,85.113 403.818,74.693 413.762,68.3 v 0 c 11.122,-7.15 25.472,-7.266 36.08,-15.257 v 0 c 4.185,-3.152 8.143,-7.806 13.372,-7.48 v 0 c 1.946,0.122 3.764,0.957 5.522,1.8 v 0 c 8.252,3.951 16.674,8.656 21.517,16.417 v 0 c 3.53,5.657 4.809,12.422 5.445,19.06 v 0 c 4.089,42.744 -14.022,83.898 -34.456,120.212 v 0 c -1.322,2.349 -3.007,4.937 -5.67,5.351 v 0 c -0.576,0.09 -1.113,0.133 -1.615,0.133 v 0 c -1.487,0 -2.658,-0.381 -3.563,-1.064" /></clipPath><clipPath
       id="clipPath320"
       clipPathUnits="userSpaceOnUse"><path
         id="path318"
         d="M 0,0.445 H 499.555 V 500 H 0 Z" /></clipPath><clipPath
       id="clipPath374"
       clipPathUnits="userSpaceOnUse"><path
         id="path372"
         d="M 0,0.445 H 499.555 V 500 H 0 Z" /></clipPath><clipPath
       id="clipPath474"
       clipPathUnits="userSpaceOnUse"><path
         id="path472"
         d="M 0,500 H 500 V 0 H 0 Z" /></clipPath></defs><g
     transform="matrix(1.3333333,0,0,-1.3333333,0,666.66667)"
     id="g10"><path
       id="path12"
       style="fill:#b0e2fe;fill-opacity:1;fill-rule:nonzero;stroke:none"
       d="M 0,0 H 500 V 500 H 0 Z" /><g
       id="g14"><g
         clip-path="url(#clipPath20)"
         id="g16"><g
           transform="translate(359.0449,316.7559)"
           id="g22"><path
             id="path24"
             style="fill:#ffffff;fill-opacity:1;fill-rule:nonzero;stroke:none"
             d="m 0,0 2.525,-1.799 c 4.388,5.378 23.842,25.876 54.141,9.657 l 1.537,2.723 C 26.119,27.777 4.627,5.506 0,0" /></g><g
           transform="translate(371.0771,306.853)"
           id="g26"><path
             id="path28"
             style="fill:#ffffff;fill-opacity:1;fill-rule:nonzero;stroke:none"
             d="M 0,0 2.546,-1.813 C 5.93,2.133 18.177,13.942 36.834,4.259 l 1.537,2.725 C 17.499,17.895 3.647,4.278 0,0" /></g><g
           transform="translate(380.3652,297.9902)"
           id="g30"><path
             id="path32"
             style="fill:#ffffff;fill-opacity:1;fill-rule:nonzero;stroke:none"
             d="m 0,0 2.582,-1.839 c 2.425,2.6 9.268,8.297 19.36,3.383 L 23.48,4.27 C 12.508,9.7 3.876,4.448 0,0" /></g><g
           transform="translate(394.7227,290.5356)"
           id="g34"><path
             id="path36"
             style="fill:#ffffff;fill-opacity:1;fill-rule:nonzero;stroke:none"
             d="m 0,0 c -0.26,0.045 -0.532,0.046 -0.807,-0.003 -0.609,-0.11 -1.137,-0.451 -1.491,-0.96 -0.352,-0.508 -0.485,-1.124 -0.376,-1.733 0.111,-0.608 0.452,-1.137 0.96,-1.49 0.509,-0.353 1.124,-0.485 1.733,-0.376 0.608,0.11 1.137,0.451 1.491,0.96 0.352,0.508 0.485,1.123 0.376,1.732 C 1.707,-0.888 0.931,-0.162 0,0" /></g><path
           id="path38"
           style="fill:#ffcf5e;fill-opacity:1;fill-rule:nonzero;stroke:none"
           d="m 233.949,280.573 h -12.292 v 31.97 h 12.292 z" /><g
           transform="translate(30.561,238.5254)"
           id="g40"><path
             id="path42"
             style="fill:#ebbf5b;fill-opacity:1;fill-rule:nonzero;stroke:none"
             d="M 0,0 H 101.418 V -74.017 H -7 V -7 c 0,3.866 3.134,7 7,7" /></g><g
           transform="translate(137.311,240.6104)"
           id="g44"><path
             id="path46"
             style="fill:#666666;fill-opacity:1;fill-rule:nonzero;stroke:none"
             d="m 0,0 h -106.616 c -4.131,0 -7.983,-2.081 -10.247,-5.537 l -5.68,-8.67 c -0.403,-0.614 0.038,-1.43 0.772,-1.43 H 0 c 0.51,0 0.923,0.413 0.923,0.923 V -0.923 C 0.923,-0.413 0.51,0 0,0" /></g><g
           transform="translate(254.6221,265.7954)"
           id="g48"><path
             id="path50"
             style="fill:#666666;fill-opacity:1;fill-rule:nonzero;stroke:none"
             d="m 0,0 -64.223,59.467 c -1.199,1.109 -3.05,1.109 -4.25,0 L -132.695,0 c -0.945,-0.875 -1.257,-2.237 -0.787,-3.436 0.469,-1.198 1.624,-1.986 2.911,-1.986 H -2.125 c 1.287,0 2.442,0.788 2.911,1.986 C 1.256,-2.237 0.944,-0.875 0,0" /></g><g
           transform="translate(244.5684,260.418)"
           id="g52"><path
             id="path54"
             style="fill:#f9da70;fill-opacity:1;fill-rule:nonzero;stroke:none"
             d="M 0,0 -56.294,52.125 -112.589,0 V -95.909 H 0 Z" /></g><path
           id="path56"
           style="fill:#ffffff;fill-opacity:1;fill-rule:nonzero;stroke:none"
           d="M 170.899,181.501 H 131.98 v 4.742 h 38.919 z" /><path
           id="path58"
           style="fill:#ffffff;fill-opacity:1;fill-rule:nonzero;stroke:none"
           d="m 141.924,164.509 h -1.526 v 19.363 h 1.526 z" /><path
           id="path60"
           style="fill:#ffffff;fill-opacity:1;fill-rule:nonzero;stroke:none"
           d="m 150.04,164.509 h -1.526 v 19.363 h 1.526 z" /><path
           id="path62"
           style="fill:#ffffff;fill-opacity:1;fill-rule:nonzero;stroke:none"
           d="m 158.689,164.509 h -1.526 v 19.363 h 1.526 z" /><path
           id="path64"
           style="fill:#ffffff;fill-opacity:1;fill-rule:nonzero;stroke:none"
           d="m 167.847,164.509 h -1.526 v 19.363 h 1.526 z" /><path
           id="path66"
           style="fill:#ffffff;fill-opacity:1;fill-rule:nonzero;stroke:none"
           d="m 133.506,164.509 h -1.526 v 19.363 h 1.526 z" /><path
           id="path68"
           style="fill:#ffffff;fill-opacity:1;fill-rule:nonzero;stroke:none"
           d="m 202.869,181.501 h 41.747 v 4.742 h -41.747 z" /><path
           id="path70"
           style="fill:#ffffff;fill-opacity:1;fill-rule:nonzero;stroke:none"
           d="m 233.949,164.509 h 1.637 v 19.363 h -1.637 z" /><path
           id="path72"
           style="fill:#ffffff;fill-opacity:1;fill-rule:nonzero;stroke:none"
           d="m 225.243,164.509 h 1.637 v 19.363 h -1.637 z" /><path
           id="path74"
           style="fill:#ffffff;fill-opacity:1;fill-rule:nonzero;stroke:none"
           d="m 215.966,164.509 h 1.637 v 19.363 h -1.637 z" /><path
           id="path76"
           style="fill:#ffffff;fill-opacity:1;fill-rule:nonzero;stroke:none"
           d="m 206.143,164.509 h 1.637 v 19.363 h -1.637 z" /><path
           id="path78"
           style="fill:#ffffff;fill-opacity:1;fill-rule:nonzero;stroke:none"
           d="m 242.979,164.509 h 1.637 v 19.363 h -1.637 z" /><path
           id="path80"
           style="fill:#a67c52;fill-opacity:1;fill-rule:nonzero;stroke:none"
           d="m 198.004,164.509 h -22.24 v 52.354 h 22.24 z" /><path
           id="path82"
           style="fill:#8c6239;fill-opacity:1;fill-rule:nonzero;stroke:none"
           d="M 120.924,164.509 H 98.684 V 211.5 h 22.24 z" /><path
           id="path84"
           style="fill:#9ae4ee;fill-opacity:1;fill-rule:nonzero;stroke:#ffffff;stroke-width:2;stroke-linecap:butt;stroke-linejoin:miter;stroke-miterlimit:10;stroke-dasharray:none;stroke-opacity:1"
           d="m 230.649,193.233 h -17.983 v 23.63 h 17.983 z" /><path
           id="path86"
           style="fill:#9ae4ee;fill-opacity:1;fill-rule:nonzero;stroke:#ffffff;stroke-width:2;stroke-linecap:butt;stroke-linejoin:miter;stroke-miterlimit:10;stroke-dasharray:none;stroke-opacity:1"
           d="m 162.516,193.233 h -17.983 v 23.63 h 17.983 z" /><path
           id="path88"
           style="fill:#9ae4ee;fill-opacity:1;fill-rule:nonzero;stroke:#ffffff;stroke-width:2;stroke-linecap:butt;stroke-linejoin:miter;stroke-miterlimit:10;stroke-dasharray:none;stroke-opacity:1"
           d="M 86.762,186.706 H 68.779 v 23.629 h 17.983 z" /><path
           id="path90"
           style="fill:#9ae4ee;fill-opacity:1;fill-rule:nonzero;stroke:#ffffff;stroke-width:2;stroke-linecap:butt;stroke-linejoin:miter;stroke-miterlimit:10;stroke-dasharray:none;stroke-opacity:1"
           d="M 54.097,186.706 H 36.114 v 23.629 h 17.983 z" /><path
           id="path92"
           style="fill:#9ae4ee;fill-opacity:1;fill-rule:nonzero;stroke:#ffffff;stroke-width:2;stroke-linecap:butt;stroke-linejoin:miter;stroke-miterlimit:10;stroke-dasharray:none;stroke-opacity:1"
           d="m 230.649,232.792 h -17.983 v 23.63 h 17.983 z" /><path
           id="path94"
           style="fill:#666666;fill-opacity:1;fill-rule:nonzero;stroke:none"
           d="m 237.879,312.542 h -20.106 v 6.776 h 20.106 z" /><path
           id="path96"
           style="fill:#9ae4ee;fill-opacity:1;fill-rule:nonzero;stroke:#ffffff;stroke-width:2;stroke-linecap:butt;stroke-linejoin:miter;stroke-miterlimit:10;stroke-dasharray:none;stroke-opacity:1"
           d="m 197.266,232.792 h -17.983 v 23.63 h 17.983 z" /><path
           id="path98"
           style="fill:#9ae4ee;fill-opacity:1;fill-rule:nonzero;stroke:#ffffff;stroke-width:2;stroke-linecap:butt;stroke-linejoin:miter;stroke-miterlimit:10;stroke-dasharray:none;stroke-opacity:1"
           d="m 162.516,232.792 h -17.983 v 23.63 h 17.983 z" /><path
           id="path100"
           style="fill:#ffffff;fill-opacity:1;fill-rule:nonzero;stroke:none"
           d="m 128.852,170.069 h 118.844 v -5.561 H 128.852 Z" /><g
           transform="translate(78.4248,260.9077)"
           id="g102"><path
             id="path104"
             style="fill:none;stroke:#ffffff;stroke-width:3;stroke-linecap:butt;stroke-linejoin:miter;stroke-miterlimit:10;stroke-dasharray:none;stroke-opacity:1"
             d="M 0,0 V 152.146 H 348.158" /></g><g
           transform="translate(86.2153,260.9077)"
           id="g106"><path
             id="path108"
             style="fill:#ffffff;fill-opacity:1;fill-rule:nonzero;stroke:none"
             d="m 0,0 c 0,-4.303 -3.488,-7.791 -7.791,-7.791 -4.302,0 -7.79,3.488 -7.79,7.791 0,4.303 3.488,7.791 7.79,7.791 C -3.488,7.791 0,4.303 0,0" /></g><g
           transform="translate(120.2681,413.0532)"
           id="g110"><path
             id="path112"
             style="fill:#484f55;fill-opacity:1;fill-rule:nonzero;stroke:none"
             d="m 0,0 c 0,-22.367 -18.131,-40.498 -40.498,-40.498 -22.366,0 -40.498,18.131 -40.498,40.498 0,22.366 18.132,40.498 40.498,40.498 C -18.131,40.498 0,22.366 0,0" /></g><g
           transform="translate(113.5537,413.0532)"
           id="g114"><path
             id="path116"
             style="fill:#ffffff;fill-opacity:1;fill-rule:nonzero;stroke:none"
             d="m 0,0 c 0,-18.658 -15.125,-33.784 -33.783,-33.784 -18.658,0 -33.784,15.126 -33.784,33.784 0,18.658 15.126,33.783 33.784,33.783 C -15.125,33.783 0,18.658 0,0" /></g><g
           transform="translate(104.3379,413.0532)"
           id="g118"><path
             id="path120"
             style="fill:none;stroke:#cccccc;stroke-width:1;stroke-linecap:butt;stroke-linejoin:miter;stroke-miterlimit:10;stroke-dasharray:none;stroke-opacity:1"
             d="m 0,0 c 0,-13.517 -10.958,-24.475 -24.475,-24.475 -13.516,0 -24.474,10.958 -24.474,24.475 0,13.517 10.958,24.475 24.474,24.475 C -10.958,24.475 0,13.517 0,0 Z" /></g><g
           transform="translate(101.7217,413.0532)"
           id="g122"><path
             id="path124"
             style="fill:#cccccc;fill-opacity:1;fill-rule:nonzero;stroke:none"
             d="m 0,0 c 0,-12.072 -9.786,-21.858 -21.858,-21.858 -12.072,0 -21.858,9.786 -21.858,21.858 0,12.072 9.786,21.858 21.858,21.858 C -9.786,21.858 0,12.072 0,0" /></g><g
           transform="translate(78.4683,415.5142)"
           id="g126"><path
             id="path128"
             style="fill:#999999;fill-opacity:1;fill-rule:nonzero;stroke:none"
             d="m 0,0 c -0.602,2.677 -2.948,4.872 -5.659,5.293 -0.519,0.081 -1.089,0.12 -1.475,0.475 -0.419,0.385 -0.483,1.016 -0.485,1.585 -0.013,2.993 0.933,5.983 2.667,8.423 0.214,0.301 0.448,0.601 0.765,0.787 0.853,0.501 1.937,0.023 2.748,-0.544 C 1.16,14.2 3.057,11.401 3.784,8.313 4.511,5.224 4.061,1.874 2.546,-0.914" /></g><g
           transform="translate(81.5,410.8887)"
           id="g130"><path
             id="path132"
             style="fill:#999999;fill-opacity:1;fill-rule:nonzero;stroke:none"
             d="m 0,0 c 0.602,-2.677 2.949,-4.872 5.659,-5.292 0.519,-0.081 1.089,-0.121 1.475,-0.476 0.419,-0.385 0.483,-1.016 0.485,-1.585 0.013,-2.993 -0.933,-5.983 -2.667,-8.423 -0.214,-0.301 -0.447,-0.6 -0.765,-0.787 -0.853,-0.501 -1.937,-0.022 -2.748,0.544 -2.599,1.819 -4.496,4.618 -5.223,7.706 -0.727,3.089 -0.277,6.439 1.238,9.228" /></g><g
           transform="translate(77.6714,411.6855)"
           id="g134"><path
             id="path136"
             style="fill:#999999;fill-opacity:1;fill-rule:nonzero;stroke:none"
             d="m 0,0 c -2.677,-0.602 -4.872,-2.948 -5.292,-5.659 -0.082,-0.519 -0.121,-1.089 -0.476,-1.475 -0.385,-0.419 -1.016,-0.482 -1.585,-0.485 -2.993,-0.013 -5.983,0.933 -8.423,2.667 -0.301,0.214 -0.601,0.448 -0.787,0.765 -0.501,0.853 -0.023,1.938 0.544,2.748 1.819,2.599 4.618,4.496 7.706,5.223 3.089,0.727 6.439,0.277 9.228,-1.238" /></g><g
           transform="translate(82.2969,414.7173)"
           id="g138"><path
             id="path140"
             style="fill:#999999;fill-opacity:1;fill-rule:nonzero;stroke:none"
             d="M 0,0 C 2.677,0.602 4.872,2.949 5.292,5.659 5.374,6.178 5.413,6.748 5.768,7.134 6.153,7.553 6.784,7.617 7.353,7.619 10.346,7.632 13.336,6.686 15.776,4.952 16.077,4.738 16.377,4.505 16.563,4.187 17.064,3.334 16.586,2.25 16.019,1.44 14.2,-1.16 11.401,-3.057 8.313,-3.784 5.224,-4.51 1.874,-4.061 -0.914,-2.546" /></g><g
           transform="translate(78.9146,415.752)"
           id="g142"><path
             id="path144"
             style="fill:#e6e6e6;fill-opacity:1;fill-rule:nonzero;stroke:none"
             d="m 0,0 c -0.104,2.741 -2.012,5.327 -4.601,6.235 -0.495,0.173 -1.048,0.316 -1.363,0.736 -0.342,0.455 -0.289,1.086 -0.188,1.646 0.532,2.946 2.007,5.714 4.157,7.797 0.265,0.256 0.549,0.509 0.895,0.635 0.93,0.337 1.91,-0.331 2.602,-1.036 C 3.727,13.75 5.083,10.654 5.235,7.484 5.387,4.315 4.335,1.102 2.337,-1.363" /></g><g
           transform="translate(81.0537,410.6514)"
           id="g146"><path
             id="path148"
             style="fill:#e6e6e6;fill-opacity:1;fill-rule:nonzero;stroke:none"
             d="M 0,0 C 0.104,-2.742 2.012,-5.327 4.601,-6.235 5.096,-6.409 5.649,-6.551 5.964,-6.971 6.306,-7.426 6.253,-8.058 6.152,-8.618 5.62,-11.563 4.145,-14.331 1.995,-16.414 1.73,-16.671 1.446,-16.923 1.1,-17.049 c -0.93,-0.337 -1.909,0.331 -2.602,1.036 -2.225,2.262 -3.581,5.359 -3.732,8.529 -0.153,3.169 0.9,6.381 2.897,8.847" /></g><g
           transform="translate(77.4336,412.1323)"
           id="g150"><path
             id="path152"
             style="fill:#e6e6e6;fill-opacity:1;fill-rule:nonzero;stroke:none"
             d="m 0,0 c -2.741,-0.104 -5.327,-2.012 -6.234,-4.601 -0.174,-0.495 -0.316,-1.048 -0.736,-1.363 -0.456,-0.342 -1.087,-0.29 -1.647,-0.188 -2.946,0.531 -5.714,2.007 -7.797,4.156 -0.256,0.265 -0.509,0.549 -0.635,0.896 -0.337,0.929 0.331,1.909 1.036,2.602 2.263,2.225 5.36,3.58 8.529,3.732 3.169,0.153 6.382,-0.9 8.847,-2.897" /></g><g
           transform="translate(82.5347,414.271)"
           id="g154"><path
             id="path156"
             style="fill:#e6e6e6;fill-opacity:1;fill-rule:nonzero;stroke:none"
             d="M 0,0 C 2.741,0.104 5.327,2.012 6.234,4.601 6.408,5.096 6.55,5.649 6.97,5.964 7.426,6.306 8.057,6.253 8.617,6.152 11.563,5.62 14.331,4.145 16.414,1.996 16.67,1.73 16.923,1.446 17.049,1.1 c 0.337,-0.93 -0.331,-1.909 -1.036,-2.602 -2.263,-2.225 -5.36,-3.58 -8.529,-3.732 -3.169,-0.153 -6.382,0.9 -8.847,2.897" /></g><g
           transform="translate(83.6245,413.0532)"
           id="g158"><path
             id="path160"
             style="fill:#999999;fill-opacity:1;fill-rule:nonzero;stroke:none"
             d="m 0,0 c 0,-2.077 -1.684,-3.761 -3.761,-3.761 -2.077,0 -3.761,1.684 -3.761,3.761 0,2.077 1.684,3.761 3.761,3.761 C -1.684,3.761 0,2.077 0,0" /></g><g
           transform="translate(354.7832,413.0532)"
           id="g162"><path
             id="path164"
             style="fill:#484f55;fill-opacity:1;fill-rule:nonzero;stroke:none"
             d="m 0,0 c 0,-22.367 -18.132,-40.498 -40.498,-40.498 -22.366,0 -40.498,18.131 -40.498,40.498 0,22.366 18.132,40.498 40.498,40.498 C -18.132,40.498 0,22.366 0,0" /></g><g
           transform="translate(348.0684,413.0532)"
           id="g166"><path
             id="path168"
             style="fill:#ffffff;fill-opacity:1;fill-rule:nonzero;stroke:none"
             d="m 0,0 c 0,-18.658 -15.125,-33.784 -33.783,-33.784 -18.658,0 -33.783,15.126 -33.783,33.784 0,18.658 15.125,33.783 33.783,33.783 C -15.125,33.783 0,18.658 0,0" /></g><path
           id="path170"
           style="fill:#999999;fill-opacity:1;fill-rule:nonzero;stroke:none"
           d="m 319.595,393.839 h -8.334 v 8.333 h 8.334 z" /><g
           transform="translate(323.9619,393.8389)"
           id="g172"><path
             id="path174"
             style="fill:#cccccc;fill-opacity:1;fill-rule:nonzero;stroke:none"
             d="m 0,0 h -17.068 c -1.519,0 -2.75,-1.231 -2.75,-2.75 H 2.75 C 2.75,-1.231 1.519,0 0,0" /></g><g
           transform="translate(333.6162,433.0166)"
           id="g176"><path
             id="path178"
             style="fill:#cccccc;fill-opacity:1;fill-rule:nonzero;stroke:none"
             d="m 0,0 h -36.378 c -2.95,0 -5.341,-2.391 -5.341,-5.341 V -29.74 c 0,-2.95 2.391,-5.342 5.341,-5.342 H 0 c 2.95,0 5.342,2.392 5.342,5.342 V -5.341 C 5.342,-2.391 2.95,0 0,0" /></g><path
           id="path180"
           style="fill:#999999;fill-opacity:1;fill-rule:nonzero;stroke:none"
           d="m 334.5,404.935 h -38.145 v 24.63 H 334.5 Z" /><path
           id="path182"
           style="fill:#9ae4ee;fill-opacity:1;fill-rule:nonzero;stroke:none"
           d="m 333.219,405.762 h -35.583 v 22.976 h 35.583 z" /><g
           transform="translate(317.0479,402.1724)"
           id="g184"><path
             id="path186"
             style="fill:#cccccc;fill-opacity:1;fill-rule:nonzero;stroke:none"
             d="m 0,0 c 0,-0.895 -0.726,-1.62 -1.62,-1.62 -0.895,0 -1.62,0.725 -1.62,1.62 0,0.895 0.725,1.62 1.62,1.62 C -0.726,1.62 0,0.895 0,0" /></g><g
           transform="translate(320.9072,413.1069)"
           id="g188"><path
             id="path190"
             style="fill:#ffffff;fill-opacity:1;fill-rule:nonzero;stroke:none"
             d="m 0,0 -3.285,3.061 3.272,2.873 -12.074,4.754 4.278,-11.599 3.232,2.837 3.41,-3.178 z" /></g><g
           transform="translate(239.1968,413.0532)"
           id="g192"><path
             id="path194"
             style="fill:#484f55;fill-opacity:1;fill-rule:nonzero;stroke:none"
             d="m 0,0 c 0,-22.367 -18.132,-40.498 -40.498,-40.498 -22.366,0 -40.498,18.131 -40.498,40.498 0,22.366 18.132,40.498 40.498,40.498 C -18.132,40.498 0,22.366 0,0" /></g><g
           transform="translate(232.4824,413.0532)"
           id="g196"><path
             id="path198"
             style="fill:#ffffff;fill-opacity:1;fill-rule:nonzero;stroke:none"
             d="m 0,0 c 0,-18.658 -15.125,-33.784 -33.784,-33.784 -18.657,0 -33.783,15.126 -33.783,33.784 0,18.658 15.126,33.783 33.783,33.783 C -15.125,33.783 0,18.658 0,0" /></g><g
           transform="translate(190.2461,413.8955)"
           id="g200"><path
             id="path202"
             style="fill:#bba354;fill-opacity:1;fill-rule:nonzero;stroke:none"
             d="m 0,0 h 16.028 v 10.57 c 0,4.419 -3.595,8.014 -8.014,8.014 C 3.595,18.584 0,14.989 0,10.57 Z M 20.023,-3.995 H -3.995 V 10.57 c 0,6.622 5.387,12.009 12.009,12.009 6.622,0 12.009,-5.387 12.009,-12.009 z" /></g><g
           transform="translate(209.7783,418.4985)"
           id="g204"><path
             id="path206"
             style="fill:#f9da70;fill-opacity:1;fill-rule:nonzero;stroke:none"
             d="m 0,0 h -22.656 c -2.132,0 -3.86,-1.729 -3.86,-3.86 v -16.902 c 0,-2.132 1.728,-3.861 3.86,-3.861 H 0 c 2.132,0 3.86,1.729 3.86,3.861 V -3.86 C 3.86,-1.729 2.132,0 0,0" /></g><g
           transform="translate(202.0771,410.2241)"
           id="g208"><path
             id="path210"
             style="fill:#603813;fill-opacity:1;fill-rule:nonzero;stroke:none"
             d="m 0,0 c 0,-1.896 -1.538,-3.434 -3.435,-3.434 -1.896,0 -3.434,1.538 -3.434,3.434 0,1.897 1.538,3.435 3.434,3.435 C -1.538,3.435 0,1.897 0,0" /></g><g
           transform="translate(198.6426,410.2241)"
           id="g212"><path
             id="path214"
             style="fill:#603813;fill-opacity:1;fill-rule:nonzero;stroke:none"
             d="M 0,0 -3.434,-12.698 H 3.695 Z" /></g><g
           transform="translate(467.0811,413.0532)"
           id="g216"><path
             id="path218"
             style="fill:#484f55;fill-opacity:1;fill-rule:nonzero;stroke:none"
             d="m 0,0 c 0,-22.367 -18.132,-40.498 -40.498,-40.498 -22.366,0 -40.498,18.131 -40.498,40.498 0,22.366 18.132,40.498 40.498,40.498 C -18.132,40.498 0,22.366 0,0" /></g><g
           transform="translate(460.3662,413.0532)"
           id="g220"><path
             id="path222"
             style="fill:#ffffff;fill-opacity:1;fill-rule:nonzero;stroke:none"
             d="m 0,0 c 0,-18.658 -15.125,-33.784 -33.783,-33.784 -18.658,0 -33.783,15.126 -33.783,33.784 0,18.658 15.125,33.783 33.783,33.783 C -15.125,33.783 0,18.658 0,0" /></g><g
           transform="translate(440.6006,421.3926)"
           id="g224"><path
             id="path226"
             style="fill:#f9da70;fill-opacity:1;fill-rule:nonzero;stroke:none"
             d="m 0,0 c 0,7.228 -6.006,13.053 -13.3,12.757 -6.65,-0.27 -12.097,-5.836 -12.233,-12.49 -0.066,-3.197 1.048,-6.129 2.931,-8.398 2.753,-3.314 4.432,-7.386 4.432,-11.695 v -1.042 h 10.804 v 0.548 c 0,4.357 1.382,8.678 4.241,11.966 C -1.179,-6.118 0,-3.199 0,0" /></g><g
           transform="translate(422.8525,399.2354)"
           id="g228"><path
             id="path230"
             style="fill:#cccccc;fill-opacity:1;fill-rule:nonzero;stroke:none"
             d="m 0,0 v -4.895 c 0,-2.703 2.272,-4.895 5.076,-4.895 2.803,0 5.075,2.192 5.075,4.895 V 0 Z" /></g><path
           id="path232"
           style="fill:#cccccc;fill-opacity:1;fill-rule:nonzero;stroke:none"
           d="M 433.907,396.609 H 421.95 v 0.892 h 11.957 z" /><path
           id="path234"
           style="fill:#cccccc;fill-opacity:1;fill-rule:nonzero;stroke:none"
           d="M 433.907,394.602 H 421.95 v 0.893 h 11.957 z" /><path
           id="path236"
           style="fill:#cccccc;fill-opacity:1;fill-rule:nonzero;stroke:none"
           d="M 433.907,392.594 H 421.95 v 0.892 h 11.957 z" /><path
           id="path238"
           style="fill:#999999;fill-opacity:1;fill-rule:nonzero;stroke:none"
           d="m 434.752,398.633 h -13.646 v 1.982 h 13.646 z" /><g
           transform="translate(435.6924,423.1875)"
           id="g240"><path
             id="path242"
             style="fill:#ffffff;fill-opacity:1;fill-rule:nonzero;stroke:none"
             d="m 0,0 c 0,-1.484 -1.203,-2.688 -2.688,-2.688 -1.485,0 -2.689,1.204 -2.689,2.688 0,1.485 1.204,2.688 2.689,2.688 C -1.203,2.688 0,1.485 0,0" /></g></g></g><g
       id="g244"><g
         clip-path="url(#clipPath250)"
         id="g246"><path
           id="path252"
           style="fill:#a3d165;fill-opacity:1;fill-rule:nonzero;stroke:none"
           d="m 500.973,0 h -500 v 173.428 h 500 z" /><g
           transform="translate(167.8467,164.5088)"
           id="g254"><path
             id="path256"
             style="fill:#999999;fill-opacity:1;fill-rule:nonzero;stroke:none"
             d="M 0,0 H 38.296 L 79.849,-170.006 H -35.867 Z" /></g><g
           transform="translate(136.2949,-1.9971)"
           id="g258"><path
             id="path260"
             style="fill:#ffffff;fill-opacity:1;fill-rule:nonzero;stroke:none"
             d="M 0,0 H 106.942 L 67.101,163.006 H 34.391 Z M 115.859,-7 H -8.631 l 37.344,177.006 h 43.883 z" /></g><g
           transform="translate(171,114)"
           id="g262"><path
             id="path264"
             style="fill:#999999;fill-opacity:1;fill-rule:nonzero;stroke:none"
             d="M 0,0 C -4.297,12.893 -5.573,26.162 -5.46,39.576 L -39.021,-119.497 H 76.696 l -8.821,36.086 C 65.901,-82.345 63.941,-81.213 62,-80 31,-61 10,-33 0,0" /></g><g
           transform="translate(167.8467,164.5088)"
           id="g266"><path
             id="path268"
             style="fill:#adadad;fill-opacity:1;fill-rule:nonzero;stroke:none"
             d="m 0,0 -2.307,-10.933 c -0.113,-13.414 1.163,-26.683 5.46,-39.576 10,-33 31,-61 62,-80 1.941,-1.213 3.901,-2.345 5.876,-3.411 L 38.296,0 Z" /></g><g
           transform="translate(330.5723,149.459)"
           id="g270"><path
             id="path272"
             style="fill:#ffa472;fill-opacity:1;fill-rule:nonzero;stroke:none"
             d="m 0,0 c 15.653,6.49 36.264,4.848 51.098,-2.837 -0.036,0.628 -0.111,1.255 -0.247,1.872 C 49.814,3.712 45.885,7.744 40.983,9.157 32.75,11.531 21.471,8.08 13.384,6.422 8.41,5.402 2.544,4.246 0,0" /></g><g
           transform="translate(330.5723,149.459)"
           id="g274"><path
             id="path276"
             style="fill:#ffb085;fill-opacity:1;fill-rule:nonzero;stroke:none"
             d="m 0,0 c -0.572,-0.956 -0.978,-2.066 -1.165,-3.368 -0.362,-2.512 -0.6,-3.484 0.491,-5.813 0.737,-1.576 1.229,-2.3 2.57,-3.482 5.768,-5.086 18.28,-5.508 25.466,-5.431 6.565,0.072 13.704,0.331 18.713,4.26 1.454,1.141 2.63,2.566 3.482,4.148 1.133,2.109 1.677,4.493 1.541,6.849 C 36.264,4.848 15.653,6.49 0,0" /></g><g
           transform="translate(347.6455,122.7637)"
           id="g278"><path
             id="path280"
             style="fill:#ffa472;fill-opacity:1;fill-rule:nonzero;stroke:none"
             d="m 0,0 c 11.483,4.761 26.603,3.556 37.485,-2.081 -0.026,0.46 -0.081,0.92 -0.181,1.373 -0.76,3.431 -3.643,6.389 -7.239,7.426 C 24.025,8.459 15.751,5.927 9.818,4.711 6.17,3.963 1.866,3.114 0,0" /></g><g
           transform="translate(347.6455,122.7637)"
           id="g282"><path
             id="path284"
             style="fill:#ffb085;fill-opacity:1;fill-rule:nonzero;stroke:none"
             d="m 0,0 c -0.42,-0.701 -0.717,-1.517 -0.854,-2.472 -0.266,-1.842 -0.44,-2.555 0.36,-4.263 0.541,-1.157 0.9,-1.688 1.886,-2.555 4.23,-3.731 13.409,-4.041 18.681,-3.983 4.816,0.051 10.053,0.242 13.728,3.125 1.066,0.836 1.929,1.882 2.553,3.043 0.833,1.545 1.232,3.295 1.131,5.024 C 26.603,3.556 11.483,4.761 0,0" /></g><g
           transform="translate(365.2021,182.165)"
           id="g286"><path
             id="path288"
             style="fill:#ffa472;fill-opacity:1;fill-rule:nonzero;stroke:none"
             d="M 0,0 C -7.212,3.14 -17.891,1.339 -25.448,0.791 -29.42,0.503 -33.992,0.195 -36.999,-2.107 -22.048,3.067 -4.555,0.11 7.722,-9.939 7.171,-5.727 4.146,-1.805 0,0" /></g><g
           transform="translate(372.9238,172.2256)"
           id="g290"><path
             id="path292"
             style="fill:#ffb085;fill-opacity:1;fill-rule:nonzero;stroke:none"
             d="m 0,0 c -12.276,10.05 -29.77,13.007 -44.721,7.832 -1.305,-0.999 -2.32,-2.369 -2.856,-4.285 -0.628,-2.243 -0.959,-3.1 -0.244,-5.349 0.484,-1.522 0.844,-2.241 1.926,-3.476 4.646,-5.315 15.985,-7.186 22.537,-7.969 5.983,-0.716 12.512,-1.327 17.539,1.653 1.459,0.866 2.699,2.024 3.662,3.363 1.625,2.259 2.457,5.034 2.215,7.785 C 0.044,-0.297 0.02,-0.148 0,0" /></g><g
           transform="translate(363.8193,220.8301)"
           id="g294"><path
             id="path296"
             style="fill:#ffa472;fill-opacity:1;fill-rule:nonzero;stroke:none"
             d="m 0,0 c 2.696,0.689 5.115,2.283 6.694,4.549 2.514,3.606 2.793,8.768 0.701,12.957 -3.517,7.036 -12.862,12.508 -19.009,16.938 -4.632,3.338 -10.237,7.456 -15.659,3.738 -1.921,-1.318 -2.725,-1.762 -3.62,-3.946 -0.605,-1.478 -0.79,-2.26 -0.753,-3.902 C -31.494,23.277 -24,14.565 -19.479,9.76 -15.349,5.371 -10.733,0.711 -4.966,-0.229 -3.292,-0.501 -1.598,-0.409 0,0" /></g></g></g><g
       id="g298"><g
         clip-path="url(#clipPath304)"
         id="g300"><g
           transform="translate(452.6797,204.54)"
           id="g306"><path
             id="path308"
             style="fill:#ffb085;fill-opacity:1;fill-rule:nonzero;stroke:none"
             d="m 0,0 c 1.238,7.135 3.641,14.196 7.228,21.312 3.501,6.947 8.2,13.631 14.985,17.435 1.244,0.697 2.61,1.304 4.035,1.243 2.586,-0.111 4.638,-2.466 5.241,-4.983 1.125,-4.687 -1.266,-8.759 -2.285,-13.103 -1.084,-4.62 -1.071,-8.03 -0.099,-12.913 2.23,-11.192 7.028,-21.668 10.999,-32.303 6.357,-17.016 10.764,-34.759 13.11,-52.771 1.907,-14.646 2.431,-29.706 -1.185,-44.025 -3.615,-14.321 -11.753,-27.923 -24.236,-35.817 -4.28,-2.706 -8.758,-2.827 -13.001,-5.304 -6.056,-3.538 -11.487,-8.421 -17.508,-12.121 -2.773,-1.704 -6.456,-3.316 -9.062,-1.367 -1.453,1.087 -2.034,2.955 -2.584,4.684 -4.26,13.378 -9.633,23.072 -21.092,30.876 -11.262,7.669 -20.641,18.041 -27.29,29.924 -7.614,13.605 -7.952,20.836 -0.358,34.371 1.43,2.548 3.103,5.058 5.511,6.712 11.321,7.773 26.233,0.088 38.676,3.528 14.242,3.936 23.349,21.82 20.023,35.841 C -1.242,-18.869 -1.626,-9.371 0,0" /></g><g
           transform="translate(470.1104,79.708)"
           id="g310"><path
             id="path312"
             style="fill:#ffa472;fill-opacity:1;fill-rule:nonzero;stroke:none"
             d="m 0,0 -87.038,-12.203 c -3.214,-0.45 -6.184,1.789 -6.634,5.002 L -118.6,170.594 c -0.451,3.214 1.789,6.184 5.002,6.634 l 87.038,12.203 c 3.214,0.451 6.184,-1.789 6.634,-5.002 L 5.002,6.634 C 5.453,3.421 3.213,0.451 0,0" /></g></g></g><g
       id="g314"><g
         clip-path="url(#clipPath320)"
         id="g316"><g
           transform="translate(465.6904,86.3818)"
           id="g322"><path
             id="path324"
             style="fill:#484f55;fill-opacity:1;fill-rule:nonzero;stroke:none"
             d="m 0,0 -87.038,-12.203 c -3.214,-0.451 -6.184,1.789 -6.634,5.002 L -118.6,170.594 c -0.451,3.213 1.789,6.183 5.002,6.634 l 87.038,12.203 c 3.213,0.451 6.184,-1.789 6.634,-5.002 L 5.002,6.634 C 5.453,3.421 3.213,0.45 0,0" /></g><g
           transform="translate(425.7432,92.9121)"
           id="g326"><path
             id="path328"
             style="fill:#999999;fill-opacity:1;fill-rule:nonzero;stroke:none"
             d="m 0,0 c 0.406,-2.894 -1.611,-5.569 -4.505,-5.975 -2.894,-0.406 -5.569,1.612 -5.975,4.505 -0.406,2.895 1.611,5.57 4.505,5.976 C -3.081,4.911 -0.405,2.895 0,0" /></g><g
           transform="translate(460.4365,110.9424)"
           id="g330"><path
             id="path332"
             style="fill:#9ae4ee;fill-opacity:1;fill-rule:nonzero;stroke:none"
             d="m 0,0 -2.153,15.356 -18.85,134.447 -66.114,-9.27 -14.929,-2.093 -2.445,-0.343 21.431,-152.854 83.488,11.706 z" /></g><g
           transform="translate(412.2041,262.9731)"
           id="g334"><path
             id="path336"
             style="fill:#333333;fill-opacity:1;fill-rule:nonzero;stroke:none"
             d="m 0,0 -30.691,-4.303 c -1.099,-0.154 -2.115,0.612 -2.268,1.71 l -0.065,0.467 c -0.155,1.099 0.611,2.114 1.71,2.268 l 30.69,4.303 C 0.475,4.599 1.49,3.833 1.645,2.735 L 1.71,2.268 C 1.864,1.169 1.099,0.154 0,0" /></g><g
           transform="translate(452.8574,197.1211)"
           id="g338"><path
             id="path340"
             style="fill:#ffb085;fill-opacity:1;fill-rule:nonzero;stroke:none"
             d="m 0,0 c -1.425,3.639 -2.658,7.34 -3.489,11.155 -1.598,7.332 -1.62,15.212 1.328,22.113 1.335,3.127 3.334,6.072 6.192,7.914 4.883,3.144 11.156,1.584 12.843,-4.414 1.82,-6.474 -1.054,-14.127 -1.171,-20.708 -0.379,-21.125 10.189,-40.682 15.875,-61.031 0.799,-2.86 0.847,-6.951 -2.031,-7.682 -2.091,-0.531 -3.971,1.331 -5.254,3.065 -5.797,7.837 -9.822,16.814 -13.802,25.711 -2.079,4.647 -4.157,9.294 -6.235,13.94 C 2.786,-6.651 1.312,-3.353 0,0" /></g><g
           transform="translate(400.0869,176.5479)"
           id="g342"><path
             id="path344"
             style="fill:#ffffff;fill-opacity:1;fill-rule:nonzero;stroke:none"
             d="m 0,0 18.662,2.258 2.59,-21.407 13.933,1.685 -3.381,27.952 5.285,0.64 -31.735,19.458 -26.069,-26.45 5.899,0.714 3.381,-27.954 14.025,1.698 z" /></g><g
           transform="translate(435.4941,157.2441)"
           id="g346"><path
             id="path348"
             style="fill:#ffffff;fill-opacity:1;fill-rule:nonzero;stroke:none"
             d="M 0,0 1.605,0.194 1.383,2.034 -0.223,1.84 Z" /></g><g
           transform="translate(386.8838,153.2305)"
           id="g350"><path
             id="path352"
             style="fill:#ffffff;fill-opacity:1;fill-rule:nonzero;stroke:none"
             d="m 0,0 0.223,-1.84 1.768,0.214 -0.222,1.84 z" /></g><g
           transform="translate(388.6523,153.4443)"
           id="g354"><path
             id="path356"
             style="fill:#ffffff;fill-opacity:1;fill-rule:nonzero;stroke:none"
             d="m 0,0 0.223,-1.84 14.023,1.696 -0.222,1.841 z" /></g><g
           transform="translate(421.3389,157.3984)"
           id="g358"><path
             id="path360"
             style="fill:#ffffff;fill-opacity:1;fill-rule:nonzero;stroke:none"
             d="m 0,0 0.223,-1.84 13.932,1.686 -0.222,1.84 z" /></g></g></g><g
       id="text366"
       style="font-variant:normal;font-weight:bold;font-stretch:normal;font-size:21.83862495px;font-family:'Caviar Dreams';-inkscape-font-specification:CaviarDreams-Bold;writing-mode:lr-tb;fill:#ffffff;fill-opacity:1;fill-rule:nonzero;stroke:none"
       transform="matrix(0.99030503,0.13890985,0.13890985,-0.99030503,366.8091,216.6212)"
       aria-label="SMART H    OME"><path
         id="path1405"
         style=""
         d="m 13.083981,-15.419264 v 3.369632 q -1.311597,-0.586486 -2.559214,-0.885061 -1.2476168,-0.298575 -2.3566094,-0.298575 -1.471548,0 -2.1753318,0.405209 -0.7037838,0.405208 -0.7037838,1.25828 0,0.639803 0.4691892,1.002358 0.4798526,0.351892 1.7274693,0.6078137 l 1.7487962,0.3518919 q 2.6551843,0.5331696 3.7748403,1.6208355 1.119656,1.0876659 1.119656,3.0923834 0,2.6338576 -1.567518,3.92412791 -1.556855,1.27960693 -4.7665361,1.27960693 -1.5142015,0 -3.0390665,-0.28791156 Q 3.2310075,-0.26658478 1.7061426,-0.83174451 V -4.2973466 q 1.5248649,0.8104177 2.9430959,1.22629 1.4288944,0.4052088 2.7511549,0.4052088 1.3435873,0 2.0580345,-0.4478624 0.7144471,-0.4478624 0.7144471,-1.2796069 0,-0.7464374 -0.4905159,-1.1516463 Q 9.2025065,-5.9501722 7.7522853,-6.270074 L 6.1634401,-6.6219659 Q 3.7748404,-7.1338086 2.6658478,-8.2534647 1.5675185,-9.3731208 1.5675185,-11.271204 q 0,-2.377937 1.5355283,-3.657544 1.5355283,-1.279606 4.4146439,-1.279606 1.3115971,0 2.6978383,0.202604 1.386241,0.191941 2.868452,0.586486 z" /><path
         id="path1407"
         style=""
         d="m 13.753897,-15.920443 h 5.225062 l 3.625553,8.5200496 3.64688,-8.5200496 H 31.46579 V 0 h -3.881474 v -11.644423 l -3.668207,8.5840298 H 21.314242 L 17.646035,-11.644423 V 0 h -3.892138 z" /><path
         id="path1409"
         style=""
         d="M 42.742112,-2.9004424 H 36.322751 L 35.309729,0 h -4.126732 l 5.896855,-15.920443 h 4.894496 L 47.871204,0 h -4.126733 z m -5.395675,-2.9537593 h 4.361327 l -2.175332,-6.3340543 z" /><path
         id="path1411"
         style=""
         d="m 53.589511,-8.861278 q 1.290271,0 1.844767,-0.4798526 0.56516,-0.4798526 0.56516,-1.5781814 0,-1.087666 -0.56516,-1.556856 -0.554496,-0.469189 -1.844767,-0.469189 h -1.727469 v 4.084079 z m -1.727469,2.836462 V 0 h -4.105406 v -15.920443 h 6.270074 q 3.145701,0 4.606585,1.055676 1.471548,1.055676 1.471548,3.337641 0,1.5781821 -0.767764,2.5912043 -0.757101,1.0130221 -2.292629,1.4928747 0.842408,0.1919411 1.503538,0.8743981 0.671794,0.6717936 1.354251,2.0473711 L 62.130888,0 H 57.758897 L 55.81816,-3.9561181 Q 55.231673,-5.1504179 54.62386,-5.5876169 54.02671,-6.024816 53.024352,-6.024816 Z" /><path
         id="path1413"
         style=""
         d="m 58.5053,-15.920443 h 14.672826 v 3.103047 H 67.899748 V 0 H 63.794342 V -12.817396 H 58.5053 Z" /><path
         id="path1415"
         style=""
         d="m 7.2023103,88.664724 h 4.1054057 v 6.06747 h 6.056806 v -6.06747 h 4.105406 v 15.920446 h -4.105406 v -6.74993 h -6.056806 v 6.74993 H 7.2023103 Z" /><path
         id="path1417"
         style=""
         d="m 27.359532,91.351899 q -1.876756,0 -2.911105,1.38624 -1.034349,1.386241 -1.034349,3.902802 0,2.505896 1.034349,3.892139 1.034349,1.38624 2.911105,1.38624 1.887421,0 2.92177,-1.38624 1.034349,-1.386243 1.034349,-3.892139 0,-2.516561 -1.034349,-3.902802 -1.034349,-1.38624 -2.92177,-1.38624 z m 0,-2.975087 q 3.838821,0 6.014153,2.196659 2.175332,2.196659 2.175332,6.06747 0,3.860149 -2.175332,6.056809 -2.175332,2.19666 -6.014153,2.19666 -3.828157,0 -6.014152,-2.19666 -2.175332,-2.19666 -2.175332,-6.056809 0,-3.870811 2.175332,-6.06747 2.185995,-2.196659 6.014152,-2.196659 z" /><path
         id="path1419"
         style=""
         d="m 40.222312,88.664724 h 5.225061 l 3.625553,8.52005 3.64688,-8.52005 h 5.214398 V 104.58517 H 54.05273 V 92.940744 l -3.668207,8.584026 h -2.601867 l -3.668207,-8.584026 v 11.644426 h -3.892137 z" /><path
         id="path1421"
         style=""
         d="m 59.549494,88.664724 h 11.079264 v 3.103047 H 63.6549 v 2.964423 h 6.557986 V 97.83524 H 63.6549 v 3.64688 h 7.208452 v 3.10305 H 59.549494 Z" /></g><g
       id="g368"><g
         clip-path="url(#clipPath374)"
         id="g370"><g
           transform="translate(469.1797,6.1465)"
           id="g376"><path
             id="path378"
             style="fill:#ffffff;fill-opacity:1;fill-rule:nonzero;stroke:none"
             d="m 0,0 -32.044,40.624 c 0,0 54.333,22.007 65.308,49.537 l 25,-32.151 -15.291,-71.643 z" /></g><g
           transform="translate(476.8906,-12.1455)"
           id="g380"><path
             id="path382"
             style="fill:#3b4356;fill-opacity:1;fill-rule:nonzero;stroke:none"
             d="m 0,0 -36.906,46.788 c 0,0 62.578,25.347 75.217,57.055 L 67.105,66.813 49.494,-15.701 Z" /></g><g
           transform="translate(340.4932,50.0537)"
           id="g384"><path
             id="path386"
             style="fill:#8cc63f;fill-opacity:1;fill-rule:nonzero;stroke:none"
             d="m 0,0 c 0,-1.736 -6.314,-3.144 -14.104,-3.144 -7.79,0 -14.104,1.408 -14.104,3.144 0,1.736 6.314,3.145 14.104,3.145 C -6.314,3.145 0,1.736 0,0" /></g><g
           transform="translate(82,73.4775)"
           id="g388"><path
             id="path390"
             style="fill:#8cc63f;fill-opacity:1;fill-rule:nonzero;stroke:none"
             d="m 0,0 c 0,-1.736 -6.314,-3.145 -14.104,-3.145 -7.789,0 -14.104,1.409 -14.104,3.145 0,1.736 6.315,3.144 14.104,3.144 C -6.314,3.144 0,1.736 0,0" /></g><g
           transform="translate(313.5713,167.2891)"
           id="g392"><path
             id="path394"
             style="fill:#8cc63f;fill-opacity:1;fill-rule:nonzero;stroke:none"
             d="m 0,0 c 0,-1.736 -6.314,-3.145 -14.104,-3.145 -7.79,0 -14.104,1.409 -14.104,3.145 0,1.736 6.314,3.144 14.104,3.144 C -6.314,3.144 0,1.736 0,0" /></g><g
           transform="translate(515.0762,151.1084)"
           id="g396"><path
             id="path398"
             style="fill:#8cc63f;fill-opacity:1;fill-rule:nonzero;stroke:none"
             d="m 0,0 c 0,-1.736 -6.314,-3.145 -14.104,-3.145 -7.789,0 -14.103,1.409 -14.103,3.145 0,1.736 6.314,3.144 14.103,3.144 C -6.314,3.144 0,1.736 0,0" /></g><g
           transform="translate(37.6646,144.9756)"
           id="g400"><path
             id="path402"
             style="fill:#8cc63f;fill-opacity:1;fill-rule:nonzero;stroke:none"
             d="m 0,0 c 0,-1.736 -6.314,-3.144 -14.104,-3.144 -7.789,0 -14.104,1.408 -14.104,3.144 0,1.736 6.315,3.145 14.104,3.145 C -6.314,3.145 0,1.736 0,0" /></g><g
           transform="translate(278.5527,106.2861)"
           id="g404"><path
             id="path406"
             style="fill:#8cc63f;fill-opacity:1;fill-rule:nonzero;stroke:none"
             d="m 0,0 c 0,-1.736 -6.314,-3.144 -14.104,-3.144 -7.79,0 -14.104,1.408 -14.104,3.144 0,1.737 6.314,3.145 14.104,3.145 C -6.314,3.145 0,1.737 0,0" /></g><path
           id="path408"
           style="fill:#603813;fill-opacity:1;fill-rule:nonzero;stroke:none"
           d="m 70.661,73.478 h -3.765 v 16.13 h 3.765 z" /><g
           transform="translate(68.7783,129.0957)"
           id="g410"><path
             id="path412"
             style="fill:#33a86a;fill-opacity:1;fill-rule:nonzero;stroke:none"
             d="m 0,0 c -3.638,0 -7.061,-0.912 -10.063,-2.51 -3.052,-10.341 -0.568,-21.445 10.19,-26.055 6.213,-3.107 12.813,-3.508 19.319,-1.929 1.279,2.749 2.014,5.802 2.014,9.034 C 21.46,-9.607 11.852,0 0,0" /></g><g
           transform="translate(68.9053,100.5303)"
           id="g414"><path
             id="path416"
             style="fill:#009245;fill-opacity:1;fill-rule:nonzero;stroke:none"
             d="m 0,0 c -10.758,4.61 -13.242,15.715 -10.19,26.056 -6.778,-3.608 -11.397,-10.737 -11.397,-18.951 0,-11.851 9.608,-21.459 21.46,-21.459 8.62,0 16.033,5.093 19.446,12.425 C 12.813,-3.508 6.213,-3.106 0,0" /></g><path
           id="path418"
           style="fill:#603813;fill-opacity:1;fill-rule:nonzero;stroke:none"
           d="m 300.906,166.42 h -3.765 v 16.131 h 3.765 z" /><g
           transform="translate(299.0234,222.0381)"
           id="g420"><path
             id="path422"
             style="fill:#33a86a;fill-opacity:1;fill-rule:nonzero;stroke:none"
             d="m 0,0 c -3.638,0 -7.061,-0.912 -10.063,-2.51 -3.052,-10.341 -0.568,-21.445 10.19,-26.055 6.214,-3.107 12.812,-3.508 19.318,-1.929 1.281,2.749 2.015,5.803 2.015,9.034 C 21.46,-9.607 11.853,0 0,0" /></g><g
           transform="translate(299.1504,193.4727)"
           id="g424"><path
             id="path426"
             style="fill:#009245;fill-opacity:1;fill-rule:nonzero;stroke:none"
             d="m 0,0 c -10.758,4.61 -13.242,15.715 -10.189,26.056 -6.779,-3.608 -11.398,-10.737 -11.398,-18.951 0,-11.851 9.608,-21.459 21.46,-21.459 8.62,0 16.033,5.093 19.445,12.425 C 12.813,-3.508 6.214,-3.106 0,0" /></g><path
           id="path428"
           style="fill:#603813;fill-opacity:1;fill-rule:nonzero;stroke:none"
           d="m 326.389,50.054 h -3.765 v 16.131 h 3.765 z" /><g
           transform="translate(324.5068,105.6719)"
           id="g430"><path
             id="path432"
             style="fill:#33a86a;fill-opacity:1;fill-rule:nonzero;stroke:none"
             d="m 0,0 c -3.639,0 -7.061,-0.912 -10.063,-2.51 -3.052,-10.341 -0.568,-21.445 10.19,-26.055 6.213,-3.107 12.812,-3.508 19.318,-1.929 1.28,2.749 2.015,5.803 2.015,9.034 C 21.46,-9.607 11.853,0 0,0" /></g><g
           transform="translate(324.6338,77.1064)"
           id="g434"><path
             id="path436"
             style="fill:#009245;fill-opacity:1;fill-rule:nonzero;stroke:none"
             d="m 0,0 c -10.758,4.61 -13.242,15.715 -10.19,26.056 -6.779,-3.608 -11.397,-10.737 -11.397,-18.951 0,-11.851 9.608,-21.459 21.46,-21.459 8.62,0 16.032,5.093 19.445,12.425 C 12.813,-3.508 6.213,-3.106 0,0" /></g><path
           id="path438"
           style="fill:#603813;fill-opacity:1;fill-rule:nonzero;stroke:none"
           d="m 265.777,106.286 h -2.657 v 11.385 h 2.657 z" /><g
           transform="translate(264.4482,145.54)"
           id="g440"><path
             id="path442"
             style="fill:#33a86a;fill-opacity:1;fill-rule:nonzero;stroke:none"
             d="M 0,0 C -2.567,0 -4.983,-0.645 -7.102,-1.771 -9.256,-9.07 -7.503,-16.907 0.09,-20.16 c 4.385,-2.194 9.043,-2.476 13.634,-1.362 0.903,1.94 1.422,4.095 1.422,6.376 C 15.146,-6.781 8.365,0 0,0" /></g><g
           transform="translate(264.5381,125.3799)"
           id="g444"><path
             id="path446"
             style="fill:#009245;fill-opacity:1;fill-rule:nonzero;stroke:none"
             d="m 0,0 c -7.593,3.253 -9.346,11.09 -7.191,18.389 -4.785,-2.546 -8.044,-7.577 -8.044,-13.374 0,-8.366 6.781,-15.146 15.145,-15.146 6.084,0 11.316,3.595 13.724,8.769 C 9.043,-2.476 4.385,-2.193 0,0" /></g><path
           id="path448"
           style="fill:#603813;fill-opacity:1;fill-rule:nonzero;stroke:none"
           d="m 502.212,154.335 h -2.657 v 11.385 h 2.657 z" /><g
           transform="translate(500.8828,193.5889)"
           id="g450"><path
             id="path452"
             style="fill:#33a86a;fill-opacity:1;fill-rule:nonzero;stroke:none"
             d="m 0,0 c -2.567,0 -4.983,-0.645 -7.102,-1.771 -2.154,-7.299 -0.4,-15.136 7.192,-18.39 4.385,-2.193 9.043,-2.475 13.634,-1.361 0.903,1.94 1.422,4.095 1.422,6.376 C 15.146,-6.781 8.365,0 0,0" /></g><g
           transform="translate(500.9727,173.4277)"
           id="g454"><path
             id="path456"
             style="fill:#009245;fill-opacity:1;fill-rule:nonzero;stroke:none"
             d="m 0,0 c -7.592,3.254 -9.346,11.091 -7.191,18.39 -4.785,-2.546 -8.044,-7.577 -8.044,-13.374 0,-8.366 6.781,-15.146 15.145,-15.146 6.084,0 11.316,3.595 13.724,8.769 C 9.043,-2.475 4.385,-2.192 0,0" /></g><path
           id="path458"
           style="fill:#603813;fill-opacity:1;fill-rule:nonzero;stroke:none"
           d="m 24.8,145.416 h -2.657 v 11.385 H 24.8 Z" /><g
           transform="translate(23.4712,184.6689)"
           id="g460"><path
             id="path462"
             style="fill:#33a86a;fill-opacity:1;fill-rule:nonzero;stroke:none"
             d="m 0,0 c -2.567,0 -4.983,-0.644 -7.102,-1.771 -2.154,-7.298 -0.4,-15.135 7.192,-18.389 4.385,-2.193 9.042,-2.476 13.634,-1.361 0.903,1.94 1.422,4.095 1.422,6.375 C 15.146,-6.78 8.365,0 0,0" /></g><g
           transform="translate(23.561,164.5088)"
           id="g464"><path
             id="path466"
             style="fill:#009245;fill-opacity:1;fill-rule:nonzero;stroke:none"
             d="m 0,0 c -7.592,3.254 -9.346,11.091 -7.192,18.389 -4.784,-2.545 -8.043,-7.577 -8.043,-13.374 0,-8.365 6.781,-15.146 15.145,-15.146 6.084,0 11.316,3.596 13.724,8.77 C 9.042,-2.476 4.385,-2.192 0,0" /></g></g></g></g></svg>