<?xml version="1.0" encoding="UTF-8" standalone="no"?>
<svg
   xmlns:dc="http://purl.org/dc/elements/1.1/"
   xmlns:cc="http://creativecommons.org/ns#"
   xmlns:rdf="http://www.w3.org/1999/02/22-rdf-syntax-ns#"
   xmlns:svg="http://www.w3.org/2000/svg"
   xmlns="http://www.w3.org/2000/svg"
   xmlns:sodipodi="http://sodipodi.sourceforge.net/DTD/sodipodi-0.dtd"
   xmlns:inkscape="http://www.inkscape.org/namespaces/inkscape"
   viewBox="0 0 666.66669 666.66669"
   height="666.66669"
   width="666.66669"
   xml:space="preserve"
   id="svg2"
   version="1.1"
   sodipodi:docname="0_big_better.svg"
   inkscape:export-filename="/media/michal/Dane/InteligentnyDom/IKONY/0_big_better.svg.png"
   inkscape:export-xdpi="300"
   inkscape:export-ydpi="300"
   inkscape:version="0.92.3 (2405546, 2018-03-11)"><sodipodi:namedview
     pagecolor="#ffffff"
     bordercolor="#666666"
     borderopacity="1"
     objecttolerance="10"
     gridtolerance="10"
     guidetolerance="10"
     inkscape:pageopacity="0"
     inkscape:pageshadow="2"
     inkscape:window-width="1853"
     inkscape:window-height="1025"
     id="namedview243"
     showgrid="false"
     inkscape:zoom="1.0012632"
     inkscape:cx="171.78607"
     inkscape:cy="254.65207"
     inkscape:window-x="67"
     inkscape:window-y="27"
     inkscape:window-maximized="1"
     inkscape:current-layer="svg2" /><metadata
     id="metadata8"><rdf:RDF><cc:Work
         rdf:about=""><dc:format>image/svg+xml</dc:format><dc:type
           rdf:resource="http://purl.org/dc/dcmitype/StillImage" /><dc:title></dc:title></cc:Work></rdf:RDF></metadata><defs
     id="defs6"><clipPath
       id="clipPath20"
       clipPathUnits="userSpaceOnUse"><path
         id="path18"
         d="M 0,500 H 500 V 0 H 0 Z" /></clipPath><clipPath
       id="clipPath250"
       clipPathUnits="userSpaceOnUse"><path
         id="path248"
         d="M 0,0.445 H 499.555 V 500 H 0 Z" /></clipPath><clipPath
       id="clipPath304"
       clipPathUnits="userSpaceOnUse"><path
         id="path302"
         d="m 450.394,207.472 c -7.274,-5.502 2.685,-30.661 3.384,-35.655 v 0 c 1.848,-13.188 -6.735,-28.229 -20.013,-31.899 v 0 c -5.208,-1.439 -10.847,-0.931 -16.475,-0.423 v 0 c -7.82,0.708 -15.617,1.414 -22.201,-3.105 v 0 c -2.408,-1.654 -4.081,-4.165 -5.511,-6.713 v 0 c -7.595,-13.535 -7.257,-20.765 0.358,-34.371 v 0 C 395.641,85.113 403.818,74.693 413.762,68.3 v 0 c 11.122,-7.15 25.472,-7.266 36.08,-15.257 v 0 c 4.185,-3.152 8.143,-7.806 13.372,-7.48 v 0 c 1.946,0.122 3.764,0.957 5.522,1.8 v 0 c 8.252,3.951 16.674,8.656 21.517,16.417 v 0 c 3.53,5.657 4.809,12.422 5.445,19.06 v 0 c 4.089,42.744 -14.022,83.898 -34.456,120.212 v 0 c -1.322,2.349 -3.007,4.937 -5.67,5.351 v 0 c -0.576,0.09 -1.113,0.133 -1.615,0.133 v 0 c -1.487,0 -2.658,-0.381 -3.563,-1.064" /></clipPath><clipPath
       id="clipPath320"
       clipPathUnits="userSpaceOnUse"><path
         id="path318"
         d="M 0,0.445 H 499.555 V 500 H 0 Z" /></clipPath><clipPath
       id="clipPath374"
       clipPathUnits="userSpaceOnUse"><path
         id="path372"
         d="M 0,0.445 H 499.555 V 500 H 0 Z" /></clipPath><clipPath
       id="clipPath474"
       clipPathUnits="userSpaceOnUse"><path
         id="path472"
         d="M 0,500 H 500 V 0 H 0 Z" /></clipPath></defs><path
     inkscape:connector-curvature="0"
     d="M -15.5367,487.28813 H 677.25989 V -29.661004 H -15.5367 Z"
     style="fill:#b0e2fe;fill-opacity:1;fill-rule:nonzero;stroke:none;stroke-width:1.19689703"
     id="path12" /><g
     id="g14"
     transform="matrix(0.61581915,0,0,-0.61581915,179.37856,487.28813)"><g
       id="g16"
       clip-path="url(#clipPath20)"><g
         id="g22"
         transform="translate(359.0449,316.7559)"><path
           inkscape:connector-curvature="0"
           d="m 0,0 2.525,-1.799 c 4.388,5.378 23.842,25.876 54.141,9.657 l 1.537,2.723 C 26.119,27.777 4.627,5.506 0,0"
           style="fill:#ffffff;fill-opacity:1;fill-rule:nonzero;stroke:none"
           id="path24" /></g><g
         id="g26"
         transform="translate(371.0771,306.853)"><path
           inkscape:connector-curvature="0"
           d="M 0,0 2.546,-1.813 C 5.93,2.133 18.177,13.942 36.834,4.259 l 1.537,2.725 C 17.499,17.895 3.647,4.278 0,0"
           style="fill:#ffffff;fill-opacity:1;fill-rule:nonzero;stroke:none"
           id="path28" /></g><g
         id="g30"
         transform="translate(380.3652,297.9902)"><path
           inkscape:connector-curvature="0"
           d="m 0,0 2.582,-1.839 c 2.425,2.6 9.268,8.297 19.36,3.383 L 23.48,4.27 C 12.508,9.7 3.876,4.448 0,0"
           style="fill:#ffffff;fill-opacity:1;fill-rule:nonzero;stroke:none"
           id="path32" /></g><g
         id="g34"
         transform="translate(394.7227,290.5356)"><path
           inkscape:connector-curvature="0"
           d="m 0,0 c -0.26,0.045 -0.532,0.046 -0.807,-0.003 -0.609,-0.11 -1.137,-0.451 -1.491,-0.96 -0.352,-0.508 -0.485,-1.124 -0.376,-1.733 0.111,-0.608 0.452,-1.137 0.96,-1.49 0.509,-0.353 1.124,-0.485 1.733,-0.376 0.608,0.11 1.137,0.451 1.491,0.96 0.352,0.508 0.485,1.123 0.376,1.732 C 1.707,-0.888 0.931,-0.162 0,0"
           style="fill:#ffffff;fill-opacity:1;fill-rule:nonzero;stroke:none"
           id="path36" /></g><path
         inkscape:connector-curvature="0"
         d="m 233.949,280.573 h -12.292 v 31.97 h 12.292 z"
         style="fill:#ffcf5e;fill-opacity:1;fill-rule:nonzero;stroke:none"
         id="path38" /><g
         id="g40"
         transform="translate(30.561,238.5254)"><path
           inkscape:connector-curvature="0"
           d="M 0,0 H 101.418 V -74.017 H -7 V -7 c 0,3.866 3.134,7 7,7"
           style="fill:#ebbf5b;fill-opacity:1;fill-rule:nonzero;stroke:none"
           id="path42" /></g><g
         id="g44"
         transform="translate(137.311,240.6104)"><path
           inkscape:connector-curvature="0"
           d="m 0,0 h -106.616 c -4.131,0 -7.983,-2.081 -10.247,-5.537 l -5.68,-8.67 c -0.403,-0.614 0.038,-1.43 0.772,-1.43 H 0 c 0.51,0 0.923,0.413 0.923,0.923 V -0.923 C 0.923,-0.413 0.51,0 0,0"
           style="fill:#666666;fill-opacity:1;fill-rule:nonzero;stroke:none"
           id="path46" /></g><g
         id="g48"
         transform="translate(254.6221,265.7954)"><path
           inkscape:connector-curvature="0"
           d="m 0,0 -64.223,59.467 c -1.199,1.109 -3.05,1.109 -4.25,0 L -132.695,0 c -0.945,-0.875 -1.257,-2.237 -0.787,-3.436 0.469,-1.198 1.624,-1.986 2.911,-1.986 H -2.125 c 1.287,0 2.442,0.788 2.911,1.986 C 1.256,-2.237 0.944,-0.875 0,0"
           style="fill:#666666;fill-opacity:1;fill-rule:nonzero;stroke:none"
           id="path50" /></g><g
         id="g52"
         transform="translate(244.5684,260.418)"><path
           inkscape:connector-curvature="0"
           d="M 0,0 -56.294,52.125 -112.589,0 V -95.909 H 0 Z"
           style="fill:#f9da70;fill-opacity:1;fill-rule:nonzero;stroke:none"
           id="path54" /></g><path
         inkscape:connector-curvature="0"
         d="M 170.899,181.501 H 131.98 v 4.742 h 38.919 z"
         style="fill:#ffffff;fill-opacity:1;fill-rule:nonzero;stroke:none"
         id="path56" /><path
         inkscape:connector-curvature="0"
         d="m 141.924,164.509 h -1.526 v 19.363 h 1.526 z"
         style="fill:#ffffff;fill-opacity:1;fill-rule:nonzero;stroke:none"
         id="path58" /><path
         inkscape:connector-curvature="0"
         d="m 150.04,164.509 h -1.526 v 19.363 h 1.526 z"
         style="fill:#ffffff;fill-opacity:1;fill-rule:nonzero;stroke:none"
         id="path60" /><path
         inkscape:connector-curvature="0"
         d="m 158.689,164.509 h -1.526 v 19.363 h 1.526 z"
         style="fill:#ffffff;fill-opacity:1;fill-rule:nonzero;stroke:none"
         id="path62" /><path
         inkscape:connector-curvature="0"
         d="m 167.847,164.509 h -1.526 v 19.363 h 1.526 z"
         style="fill:#ffffff;fill-opacity:1;fill-rule:nonzero;stroke:none"
         id="path64" /><path
         inkscape:connector-curvature="0"
         d="m 133.506,164.509 h -1.526 v 19.363 h 1.526 z"
         style="fill:#ffffff;fill-opacity:1;fill-rule:nonzero;stroke:none"
         id="path66" /><path
         inkscape:connector-curvature="0"
         d="m 202.869,181.501 h 41.747 v 4.742 h -41.747 z"
         style="fill:#ffffff;fill-opacity:1;fill-rule:nonzero;stroke:none"
         id="path68" /><path
         inkscape:connector-curvature="0"
         d="m 233.949,164.509 h 1.637 v 19.363 h -1.637 z"
         style="fill:#ffffff;fill-opacity:1;fill-rule:nonzero;stroke:none"
         id="path70" /><path
         inkscape:connector-curvature="0"
         d="m 225.243,164.509 h 1.637 v 19.363 h -1.637 z"
         style="fill:#ffffff;fill-opacity:1;fill-rule:nonzero;stroke:none"
         id="path72" /><path
         inkscape:connector-curvature="0"
         d="m 215.966,164.509 h 1.637 v 19.363 h -1.637 z"
         style="fill:#ffffff;fill-opacity:1;fill-rule:nonzero;stroke:none"
         id="path74" /><path
         inkscape:connector-curvature="0"
         d="m 206.143,164.509 h 1.637 v 19.363 h -1.637 z"
         style="fill:#ffffff;fill-opacity:1;fill-rule:nonzero;stroke:none"
         id="path76" /><path
         inkscape:connector-curvature="0"
         d="m 242.979,164.509 h 1.637 v 19.363 h -1.637 z"
         style="fill:#ffffff;fill-opacity:1;fill-rule:nonzero;stroke:none"
         id="path78" /><path
         inkscape:connector-curvature="0"
         d="m 198.004,164.509 h -22.24 v 52.354 h 22.24 z"
         style="fill:#a67c52;fill-opacity:1;fill-rule:nonzero;stroke:none"
         id="path80" /><path
         inkscape:connector-curvature="0"
         d="M 120.924,164.509 H 98.684 V 211.5 h 22.24 z"
         style="fill:#8c6239;fill-opacity:1;fill-rule:nonzero;stroke:none"
         id="path82" /><path
         inkscape:connector-curvature="0"
         d="m 230.649,193.233 h -17.983 v 23.63 h 17.983 z"
         style="fill:#9ae4ee;fill-opacity:1;fill-rule:nonzero;stroke:#ffffff;stroke-width:2;stroke-linecap:butt;stroke-linejoin:miter;stroke-miterlimit:10;stroke-dasharray:none;stroke-opacity:1"
         id="path84" /><path
         inkscape:connector-curvature="0"
         d="m 162.516,193.233 h -17.983 v 23.63 h 17.983 z"
         style="fill:#9ae4ee;fill-opacity:1;fill-rule:nonzero;stroke:#ffffff;stroke-width:2;stroke-linecap:butt;stroke-linejoin:miter;stroke-miterlimit:10;stroke-dasharray:none;stroke-opacity:1"
         id="path86" /><path
         inkscape:connector-curvature="0"
         d="M 86.762,186.706 H 68.779 v 23.629 h 17.983 z"
         style="fill:#9ae4ee;fill-opacity:1;fill-rule:nonzero;stroke:#ffffff;stroke-width:2;stroke-linecap:butt;stroke-linejoin:miter;stroke-miterlimit:10;stroke-dasharray:none;stroke-opacity:1"
         id="path88" /><path
         inkscape:connector-curvature="0"
         d="M 54.097,186.706 H 36.114 v 23.629 h 17.983 z"
         style="fill:#9ae4ee;fill-opacity:1;fill-rule:nonzero;stroke:#ffffff;stroke-width:2;stroke-linecap:butt;stroke-linejoin:miter;stroke-miterlimit:10;stroke-dasharray:none;stroke-opacity:1"
         id="path90" /><path
         inkscape:connector-curvature="0"
         d="m 230.649,232.792 h -17.983 v 23.63 h 17.983 z"
         style="fill:#9ae4ee;fill-opacity:1;fill-rule:nonzero;stroke:#ffffff;stroke-width:2;stroke-linecap:butt;stroke-linejoin:miter;stroke-miterlimit:10;stroke-dasharray:none;stroke-opacity:1"
         id="path92" /><path
         inkscape:connector-curvature="0"
         d="m 237.879,312.542 h -20.106 v 6.776 h 20.106 z"
         style="fill:#666666;fill-opacity:1;fill-rule:nonzero;stroke:none"
         id="path94" /><path
         inkscape:connector-curvature="0"
         d="m 197.266,232.792 h -17.983 v 23.63 h 17.983 z"
         style="fill:#9ae4ee;fill-opacity:1;fill-rule:nonzero;stroke:#ffffff;stroke-width:2;stroke-linecap:butt;stroke-linejoin:miter;stroke-miterlimit:10;stroke-dasharray:none;stroke-opacity:1"
         id="path96" /><path
         inkscape:connector-curvature="0"
         d="m 162.516,232.792 h -17.983 v 23.63 h 17.983 z"
         style="fill:#9ae4ee;fill-opacity:1;fill-rule:nonzero;stroke:#ffffff;stroke-width:2;stroke-linecap:butt;stroke-linejoin:miter;stroke-miterlimit:10;stroke-dasharray:none;stroke-opacity:1"
         id="path98" /><path
         inkscape:connector-curvature="0"
         d="m 128.852,170.069 h 118.844 v -5.561 H 128.852 Z"
         style="fill:#ffffff;fill-opacity:1;fill-rule:nonzero;stroke:none"
         id="path100" /><g
         id="g102"
         transform="translate(78.4248,260.9077)"><path
           inkscape:connector-curvature="0"
           d="M 0,0 V 152.146 H 348.158"
           style="fill:none;stroke:#ffffff;stroke-width:3;stroke-linecap:butt;stroke-linejoin:miter;stroke-miterlimit:10;stroke-dasharray:none;stroke-opacity:1"
           id="path104" /></g><g
         id="g106"
         transform="translate(86.2153,260.9077)"><path
           inkscape:connector-curvature="0"
           d="m 0,0 c 0,-4.303 -3.488,-7.791 -7.791,-7.791 -4.302,0 -7.79,3.488 -7.79,7.791 0,4.303 3.488,7.791 7.79,7.791 C -3.488,7.791 0,4.303 0,0"
           style="fill:#ffffff;fill-opacity:1;fill-rule:nonzero;stroke:none"
           id="path108" /></g><g
         id="g110"
         transform="translate(120.2681,413.0532)"><path
           inkscape:connector-curvature="0"
           d="m 0,0 c 0,-22.367 -18.131,-40.498 -40.498,-40.498 -22.366,0 -40.498,18.131 -40.498,40.498 0,22.366 18.132,40.498 40.498,40.498 C -18.131,40.498 0,22.366 0,0"
           style="fill:#484f55;fill-opacity:1;fill-rule:nonzero;stroke:none"
           id="path112" /></g><g
         id="g114"
         transform="translate(113.5537,413.0532)"><path
           inkscape:connector-curvature="0"
           d="m 0,0 c 0,-18.658 -15.125,-33.784 -33.783,-33.784 -18.658,0 -33.784,15.126 -33.784,33.784 0,18.658 15.126,33.783 33.784,33.783 C -15.125,33.783 0,18.658 0,0"
           style="fill:#ffffff;fill-opacity:1;fill-rule:nonzero;stroke:none"
           id="path116" /></g><g
         id="g118"
         transform="translate(104.3379,413.0532)"><path
           inkscape:connector-curvature="0"
           d="m 0,0 c 0,-13.517 -10.958,-24.475 -24.475,-24.475 -13.516,0 -24.474,10.958 -24.474,24.475 0,13.517 10.958,24.475 24.474,24.475 C -10.958,24.475 0,13.517 0,0 Z"
           style="fill:none;stroke:#cccccc;stroke-width:1;stroke-linecap:butt;stroke-linejoin:miter;stroke-miterlimit:10;stroke-dasharray:none;stroke-opacity:1"
           id="path120" /></g><g
         id="g122"
         transform="translate(101.7217,413.0532)"><path
           inkscape:connector-curvature="0"
           d="m 0,0 c 0,-12.072 -9.786,-21.858 -21.858,-21.858 -12.072,0 -21.858,9.786 -21.858,21.858 0,12.072 9.786,21.858 21.858,21.858 C -9.786,21.858 0,12.072 0,0"
           style="fill:#cccccc;fill-opacity:1;fill-rule:nonzero;stroke:none"
           id="path124" /></g><g
         id="g126"
         transform="translate(78.4683,415.5142)"><path
           inkscape:connector-curvature="0"
           d="m 0,0 c -0.602,2.677 -2.948,4.872 -5.659,5.293 -0.519,0.081 -1.089,0.12 -1.475,0.475 -0.419,0.385 -0.483,1.016 -0.485,1.585 -0.013,2.993 0.933,5.983 2.667,8.423 0.214,0.301 0.448,0.601 0.765,0.787 0.853,0.501 1.937,0.023 2.748,-0.544 C 1.16,14.2 3.057,11.401 3.784,8.313 4.511,5.224 4.061,1.874 2.546,-0.914"
           style="fill:#999999;fill-opacity:1;fill-rule:nonzero;stroke:none"
           id="path128" /></g><g
         id="g130"
         transform="translate(81.5,410.8887)"><path
           inkscape:connector-curvature="0"
           d="m 0,0 c 0.602,-2.677 2.949,-4.872 5.659,-5.292 0.519,-0.081 1.089,-0.121 1.475,-0.476 0.419,-0.385 0.483,-1.016 0.485,-1.585 0.013,-2.993 -0.933,-5.983 -2.667,-8.423 -0.214,-0.301 -0.447,-0.6 -0.765,-0.787 -0.853,-0.501 -1.937,-0.022 -2.748,0.544 -2.599,1.819 -4.496,4.618 -5.223,7.706 -0.727,3.089 -0.277,6.439 1.238,9.228"
           style="fill:#999999;fill-opacity:1;fill-rule:nonzero;stroke:none"
           id="path132" /></g><g
         id="g134"
         transform="translate(77.6714,411.6855)"><path
           inkscape:connector-curvature="0"
           d="m 0,0 c -2.677,-0.602 -4.872,-2.948 -5.292,-5.659 -0.082,-0.519 -0.121,-1.089 -0.476,-1.475 -0.385,-0.419 -1.016,-0.482 -1.585,-0.485 -2.993,-0.013 -5.983,0.933 -8.423,2.667 -0.301,0.214 -0.601,0.448 -0.787,0.765 -0.501,0.853 -0.023,1.938 0.544,2.748 1.819,2.599 4.618,4.496 7.706,5.223 3.089,0.727 6.439,0.277 9.228,-1.238"
           style="fill:#999999;fill-opacity:1;fill-rule:nonzero;stroke:none"
           id="path136" /></g><g
         id="g138"
         transform="translate(82.2969,414.7173)"><path
           inkscape:connector-curvature="0"
           d="M 0,0 C 2.677,0.602 4.872,2.949 5.292,5.659 5.374,6.178 5.413,6.748 5.768,7.134 6.153,7.553 6.784,7.617 7.353,7.619 10.346,7.632 13.336,6.686 15.776,4.952 16.077,4.738 16.377,4.505 16.563,4.187 17.064,3.334 16.586,2.25 16.019,1.44 14.2,-1.16 11.401,-3.057 8.313,-3.784 5.224,-4.51 1.874,-4.061 -0.914,-2.546"
           style="fill:#999999;fill-opacity:1;fill-rule:nonzero;stroke:none"
           id="path140" /></g><g
         id="g142"
         transform="translate(78.9146,415.752)"><path
           inkscape:connector-curvature="0"
           d="m 0,0 c -0.104,2.741 -2.012,5.327 -4.601,6.235 -0.495,0.173 -1.048,0.316 -1.363,0.736 -0.342,0.455 -0.289,1.086 -0.188,1.646 0.532,2.946 2.007,5.714 4.157,7.797 0.265,0.256 0.549,0.509 0.895,0.635 0.93,0.337 1.91,-0.331 2.602,-1.036 C 3.727,13.75 5.083,10.654 5.235,7.484 5.387,4.315 4.335,1.102 2.337,-1.363"
           style="fill:#e6e6e6;fill-opacity:1;fill-rule:nonzero;stroke:none"
           id="path144" /></g><g
         id="g146"
         transform="translate(81.0537,410.6514)"><path
           inkscape:connector-curvature="0"
           d="M 0,0 C 0.104,-2.742 2.012,-5.327 4.601,-6.235 5.096,-6.409 5.649,-6.551 5.964,-6.971 6.306,-7.426 6.253,-8.058 6.152,-8.618 5.62,-11.563 4.145,-14.331 1.995,-16.414 1.73,-16.671 1.446,-16.923 1.1,-17.049 c -0.93,-0.337 -1.909,0.331 -2.602,1.036 -2.225,2.262 -3.581,5.359 -3.732,8.529 -0.153,3.169 0.9,6.381 2.897,8.847"
           style="fill:#e6e6e6;fill-opacity:1;fill-rule:nonzero;stroke:none"
           id="path148" /></g><g
         id="g150"
         transform="translate(77.4336,412.1323)"><path
           inkscape:connector-curvature="0"
           d="m 0,0 c -2.741,-0.104 -5.327,-2.012 -6.234,-4.601 -0.174,-0.495 -0.316,-1.048 -0.736,-1.363 -0.456,-0.342 -1.087,-0.29 -1.647,-0.188 -2.946,0.531 -5.714,2.007 -7.797,4.156 -0.256,0.265 -0.509,0.549 -0.635,0.896 -0.337,0.929 0.331,1.909 1.036,2.602 2.263,2.225 5.36,3.58 8.529,3.732 3.169,0.153 6.382,-0.9 8.847,-2.897"
           style="fill:#e6e6e6;fill-opacity:1;fill-rule:nonzero;stroke:none"
           id="path152" /></g><g
         id="g154"
         transform="translate(82.5347,414.271)"><path
           inkscape:connector-curvature="0"
           d="M 0,0 C 2.741,0.104 5.327,2.012 6.234,4.601 6.408,5.096 6.55,5.649 6.97,5.964 7.426,6.306 8.057,6.253 8.617,6.152 11.563,5.62 14.331,4.145 16.414,1.996 16.67,1.73 16.923,1.446 17.049,1.1 c 0.337,-0.93 -0.331,-1.909 -1.036,-2.602 -2.263,-2.225 -5.36,-3.58 -8.529,-3.732 -3.169,-0.153 -6.382,0.9 -8.847,2.897"
           style="fill:#e6e6e6;fill-opacity:1;fill-rule:nonzero;stroke:none"
           id="path156" /></g><g
         id="g158"
         transform="translate(83.6245,413.0532)"><path
           inkscape:connector-curvature="0"
           d="m 0,0 c 0,-2.077 -1.684,-3.761 -3.761,-3.761 -2.077,0 -3.761,1.684 -3.761,3.761 0,2.077 1.684,3.761 3.761,3.761 C -1.684,3.761 0,2.077 0,0"
           style="fill:#999999;fill-opacity:1;fill-rule:nonzero;stroke:none"
           id="path160" /></g><g
         id="g162"
         transform="translate(354.7832,413.0532)"><path
           inkscape:connector-curvature="0"
           d="m 0,0 c 0,-22.367 -18.132,-40.498 -40.498,-40.498 -22.366,0 -40.498,18.131 -40.498,40.498 0,22.366 18.132,40.498 40.498,40.498 C -18.132,40.498 0,22.366 0,0"
           style="fill:#484f55;fill-opacity:1;fill-rule:nonzero;stroke:none"
           id="path164" /></g><g
         id="g166"
         transform="translate(348.0684,413.0532)"><path
           inkscape:connector-curvature="0"
           d="m 0,0 c 0,-18.658 -15.125,-33.784 -33.783,-33.784 -18.658,0 -33.783,15.126 -33.783,33.784 0,18.658 15.125,33.783 33.783,33.783 C -15.125,33.783 0,18.658 0,0"
           style="fill:#ffffff;fill-opacity:1;fill-rule:nonzero;stroke:none"
           id="path168" /></g><path
         inkscape:connector-curvature="0"
         d="m 319.595,393.839 h -8.334 v 8.333 h 8.334 z"
         style="fill:#999999;fill-opacity:1;fill-rule:nonzero;stroke:none"
         id="path170" /><g
         id="g172"
         transform="translate(323.9619,393.8389)"><path
           inkscape:connector-curvature="0"
           d="m 0,0 h -17.068 c -1.519,0 -2.75,-1.231 -2.75,-2.75 H 2.75 C 2.75,-1.231 1.519,0 0,0"
           style="fill:#cccccc;fill-opacity:1;fill-rule:nonzero;stroke:none"
           id="path174" /></g><g
         id="g176"
         transform="translate(333.6162,433.0166)"><path
           inkscape:connector-curvature="0"
           d="m 0,0 h -36.378 c -2.95,0 -5.341,-2.391 -5.341,-5.341 V -29.74 c 0,-2.95 2.391,-5.342 5.341,-5.342 H 0 c 2.95,0 5.342,2.392 5.342,5.342 V -5.341 C 5.342,-2.391 2.95,0 0,0"
           style="fill:#cccccc;fill-opacity:1;fill-rule:nonzero;stroke:none"
           id="path178" /></g><path
         inkscape:connector-curvature="0"
         d="m 334.5,404.935 h -38.145 v 24.63 H 334.5 Z"
         style="fill:#999999;fill-opacity:1;fill-rule:nonzero;stroke:none"
         id="path180" /><path
         inkscape:connector-curvature="0"
         d="m 333.219,405.762 h -35.583 v 22.976 h 35.583 z"
         style="fill:#9ae4ee;fill-opacity:1;fill-rule:nonzero;stroke:none"
         id="path182" /><g
         id="g184"
         transform="translate(317.0479,402.1724)"><path
           inkscape:connector-curvature="0"
           d="m 0,0 c 0,-0.895 -0.726,-1.62 -1.62,-1.62 -0.895,0 -1.62,0.725 -1.62,1.62 0,0.895 0.725,1.62 1.62,1.62 C -0.726,1.62 0,0.895 0,0"
           style="fill:#cccccc;fill-opacity:1;fill-rule:nonzero;stroke:none"
           id="path186" /></g><g
         id="g188"
         transform="translate(320.9072,413.1069)"><path
           inkscape:connector-curvature="0"
           d="m 0,0 -3.285,3.061 3.272,2.873 -12.074,4.754 4.278,-11.599 3.232,2.837 3.41,-3.178 z"
           style="fill:#ffffff;fill-opacity:1;fill-rule:nonzero;stroke:none"
           id="path190" /></g><g
         id="g192"
         transform="translate(239.1968,413.0532)"><path
           inkscape:connector-curvature="0"
           d="m 0,0 c 0,-22.367 -18.132,-40.498 -40.498,-40.498 -22.366,0 -40.498,18.131 -40.498,40.498 0,22.366 18.132,40.498 40.498,40.498 C -18.132,40.498 0,22.366 0,0"
           style="fill:#484f55;fill-opacity:1;fill-rule:nonzero;stroke:none"
           id="path194" /></g><g
         id="g196"
         transform="translate(232.4824,413.0532)"><path
           inkscape:connector-curvature="0"
           d="m 0,0 c 0,-18.658 -15.125,-33.784 -33.784,-33.784 -18.657,0 -33.783,15.126 -33.783,33.784 0,18.658 15.126,33.783 33.783,33.783 C -15.125,33.783 0,18.658 0,0"
           style="fill:#ffffff;fill-opacity:1;fill-rule:nonzero;stroke:none"
           id="path198" /></g><g
         id="g200"
         transform="translate(190.2461,413.8955)"><path
           inkscape:connector-curvature="0"
           d="m 0,0 h 16.028 v 10.57 c 0,4.419 -3.595,8.014 -8.014,8.014 C 3.595,18.584 0,14.989 0,10.57 Z M 20.023,-3.995 H -3.995 V 10.57 c 0,6.622 5.387,12.009 12.009,12.009 6.622,0 12.009,-5.387 12.009,-12.009 z"
           style="fill:#bba354;fill-opacity:1;fill-rule:nonzero;stroke:none"
           id="path202" /></g><g
         id="g204"
         transform="translate(209.7783,418.4985)"><path
           inkscape:connector-curvature="0"
           d="m 0,0 h -22.656 c -2.132,0 -3.86,-1.729 -3.86,-3.86 v -16.902 c 0,-2.132 1.728,-3.861 3.86,-3.861 H 0 c 2.132,0 3.86,1.729 3.86,3.861 V -3.86 C 3.86,-1.729 2.132,0 0,0"
           style="fill:#f9da70;fill-opacity:1;fill-rule:nonzero;stroke:none"
           id="path206" /></g><g
         id="g208"
         transform="translate(202.0771,410.2241)"><path
           inkscape:connector-curvature="0"
           d="m 0,0 c 0,-1.896 -1.538,-3.434 -3.435,-3.434 -1.896,0 -3.434,1.538 -3.434,3.434 0,1.897 1.538,3.435 3.434,3.435 C -1.538,3.435 0,1.897 0,0"
           style="fill:#603813;fill-opacity:1;fill-rule:nonzero;stroke:none"
           id="path210" /></g><g
         id="g212"
         transform="translate(198.6426,410.2241)"><path
           inkscape:connector-curvature="0"
           d="M 0,0 -3.434,-12.698 H 3.695 Z"
           style="fill:#603813;fill-opacity:1;fill-rule:nonzero;stroke:none"
           id="path214" /></g><g
         id="g216"
         transform="translate(467.0811,413.0532)"><path
           inkscape:connector-curvature="0"
           d="m 0,0 c 0,-22.367 -18.132,-40.498 -40.498,-40.498 -22.366,0 -40.498,18.131 -40.498,40.498 0,22.366 18.132,40.498 40.498,40.498 C -18.132,40.498 0,22.366 0,0"
           style="fill:#484f55;fill-opacity:1;fill-rule:nonzero;stroke:none"
           id="path218" /></g><g
         id="g220"
         transform="translate(460.3662,413.0532)"><path
           inkscape:connector-curvature="0"
           d="m 0,0 c 0,-18.658 -15.125,-33.784 -33.783,-33.784 -18.658,0 -33.783,15.126 -33.783,33.784 0,18.658 15.125,33.783 33.783,33.783 C -15.125,33.783 0,18.658 0,0"
           style="fill:#ffffff;fill-opacity:1;fill-rule:nonzero;stroke:none"
           id="path222" /></g><g
         id="g224"
         transform="translate(440.6006,421.3926)"><path
           inkscape:connector-curvature="0"
           d="m 0,0 c 0,7.228 -6.006,13.053 -13.3,12.757 -6.65,-0.27 -12.097,-5.836 -12.233,-12.49 -0.066,-3.197 1.048,-6.129 2.931,-8.398 2.753,-3.314 4.432,-7.386 4.432,-11.695 v -1.042 h 10.804 v 0.548 c 0,4.357 1.382,8.678 4.241,11.966 C -1.179,-6.118 0,-3.199 0,0"
           style="fill:#f9da70;fill-opacity:1;fill-rule:nonzero;stroke:none"
           id="path226" /></g><g
         id="g228"
         transform="translate(422.8525,399.2354)"><path
           inkscape:connector-curvature="0"
           d="m 0,0 v -4.895 c 0,-2.703 2.272,-4.895 5.076,-4.895 2.803,0 5.075,2.192 5.075,4.895 V 0 Z"
           style="fill:#cccccc;fill-opacity:1;fill-rule:nonzero;stroke:none"
           id="path230" /></g><path
         inkscape:connector-curvature="0"
         d="M 433.907,396.609 H 421.95 v 0.892 h 11.957 z"
         style="fill:#cccccc;fill-opacity:1;fill-rule:nonzero;stroke:none"
         id="path232" /><path
         inkscape:connector-curvature="0"
         d="M 433.907,394.602 H 421.95 v 0.893 h 11.957 z"
         style="fill:#cccccc;fill-opacity:1;fill-rule:nonzero;stroke:none"
         id="path234" /><path
         inkscape:connector-curvature="0"
         d="M 433.907,392.594 H 421.95 v 0.892 h 11.957 z"
         style="fill:#cccccc;fill-opacity:1;fill-rule:nonzero;stroke:none"
         id="path236" /><path
         inkscape:connector-curvature="0"
         d="m 434.752,398.633 h -13.646 v 1.982 h 13.646 z"
         style="fill:#999999;fill-opacity:1;fill-rule:nonzero;stroke:none"
         id="path238" /><g
         id="g240"
         transform="translate(435.6924,423.1875)"><path
           inkscape:connector-curvature="0"
           d="m 0,0 c 0,-1.484 -1.203,-2.688 -2.688,-2.688 -1.485,0 -2.689,1.204 -2.689,2.688 0,1.485 1.204,2.688 2.689,2.688 C -1.203,2.688 0,1.485 0,0"
           style="fill:#ffffff;fill-opacity:1;fill-rule:nonzero;stroke:none"
           id="path242" /></g></g></g><path
     inkscape:connector-curvature="0"
     d="M 676.64889,675.05095 H -17.772458 V 380.48785 H 676.64889 Z"
     style="fill:#a3d165;fill-opacity:1;fill-rule:nonzero;stroke:none;stroke-width:1.5358758"
     id="path252" /><g
     id="g1341"
     transform="matrix(1,0,0,1.0537438,-4.0264e-6,-25.209087)"><g
       transform="matrix(0.61581915,0,0,-1.6332126,262.62746,667.87357)"
       id="g258"><path
         id="path260"
         style="fill:#ffffff;fill-opacity:1;fill-rule:nonzero;stroke:none"
         d="M 0,0 H 106.942 L 67.101,163.006 H 34.391 Z M 115.859,-7 H -8.631 l 37.344,177.006 h 43.883 z"
         inkscape:connector-curvature="0" /></g><g
       transform="matrix(0.61581915,0,0,-1.6571513,283.99952,475.48127)"
       id="g262"><path
         id="path264"
         style="fill:#999999;fill-opacity:1;fill-rule:nonzero;stroke:none"
         d="M 0,0 C -4.297,12.893 -5.573,26.162 -5.46,39.576 L -39.021,-119.497 H 76.696 l -8.821,36.086 C 65.901,-82.345 63.941,-81.213 62,-80 31,-61 10,-33 0,0"
         inkscape:connector-curvature="0" /></g><g
       transform="matrix(0.61581915,0,0,-1.6571513,282.05766,391.78054)"
       id="g266"><path
         id="path268"
         style="fill:#adadad;fill-opacity:1;fill-rule:nonzero;stroke:none"
         d="m 0,0 -2.307,-10.933 c -0.113,-13.414 1.163,-26.683 5.46,-39.576 10,-33 31,-61 62,-80 1.941,-1.213 3.901,-2.345 5.876,-3.411 L 38.296,0 Z"
         inkscape:connector-curvature="0" /></g></g><g
     id="g270"
     transform="matrix(0.61581915,0,0,-0.61581915,382.95131,395.24842)"><path
       inkscape:connector-curvature="0"
       d="m 0,0 c 15.653,6.49 36.264,4.848 51.098,-2.837 -0.036,0.628 -0.111,1.255 -0.247,1.872 C 49.814,3.712 45.885,7.744 40.983,9.157 32.75,11.531 21.471,8.08 13.384,6.422 8.41,5.402 2.544,4.246 0,0"
       style="fill:#ffa472;fill-opacity:1;fill-rule:nonzero;stroke:none"
       id="path272" /></g><g
     id="g274"
     transform="matrix(0.61581915,0,0,-0.61581915,382.95131,395.24842)"><path
       inkscape:connector-curvature="0"
       d="m 0,0 c -0.572,-0.956 -0.978,-2.066 -1.165,-3.368 -0.362,-2.512 -0.6,-3.484 0.491,-5.813 0.737,-1.576 1.229,-2.3 2.57,-3.482 5.768,-5.086 18.28,-5.508 25.466,-5.431 6.565,0.072 13.704,0.331 18.713,4.26 1.454,1.141 2.63,2.566 3.482,4.148 1.133,2.109 1.677,4.493 1.541,6.849 C 36.264,4.848 15.653,6.49 0,0"
       style="fill:#ffb085;fill-opacity:1;fill-rule:nonzero;stroke:none"
       id="path276" /></g><g
     id="g278"
     transform="matrix(0.61581915,0,0,-0.61581915,393.46532,411.68789)"><path
       inkscape:connector-curvature="0"
       d="m 0,0 c 11.483,4.761 26.603,3.556 37.485,-2.081 -0.026,0.46 -0.081,0.92 -0.181,1.373 -0.76,3.431 -3.643,6.389 -7.239,7.426 C 24.025,8.459 15.751,5.927 9.818,4.711 6.17,3.963 1.866,3.114 0,0"
       style="fill:#ffa472;fill-opacity:1;fill-rule:nonzero;stroke:none"
       id="path280" /></g><g
     id="g282"
     transform="matrix(0.61581915,0,0,-0.61581915,393.46532,411.68789)"><path
       inkscape:connector-curvature="0"
       d="m 0,0 c -0.42,-0.701 -0.717,-1.517 -0.854,-2.472 -0.266,-1.842 -0.44,-2.555 0.36,-4.263 0.541,-1.157 0.9,-1.688 1.886,-2.555 4.23,-3.731 13.409,-4.041 18.681,-3.983 4.816,0.051 10.053,0.242 13.728,3.125 1.066,0.836 1.929,1.882 2.553,3.043 0.833,1.545 1.232,3.295 1.131,5.024 C 26.603,3.556 11.483,4.761 0,0"
       style="fill:#ffb085;fill-opacity:1;fill-rule:nonzero;stroke:none"
       id="path284" /></g><g
     id="g286"
     transform="matrix(0.61581915,0,0,-0.61581915,404.27701,375.10743)"><path
       inkscape:connector-curvature="0"
       d="M 0,0 C -7.212,3.14 -17.891,1.339 -25.448,0.791 -29.42,0.503 -33.992,0.195 -36.999,-2.107 -22.048,3.067 -4.555,0.11 7.722,-9.939 7.171,-5.727 4.146,-1.805 0,0"
       style="fill:#ffa472;fill-opacity:1;fill-rule:nonzero;stroke:none"
       id="path288" /></g><g
     id="g290"
     transform="matrix(0.61581915,0,0,-0.61581915,409.03218,381.22831)"><path
       inkscape:connector-curvature="0"
       d="m 0,0 c -12.276,10.05 -29.77,13.007 -44.721,7.832 -1.305,-0.999 -2.32,-2.369 -2.856,-4.285 -0.628,-2.243 -0.959,-3.1 -0.244,-5.349 0.484,-1.522 0.844,-2.241 1.926,-3.476 4.646,-5.315 15.985,-7.186 22.537,-7.969 5.983,-0.716 12.512,-1.327 17.539,1.653 1.459,0.866 2.699,2.024 3.662,3.363 1.625,2.259 2.457,5.034 2.215,7.785 C 0.044,-0.297 0.02,-0.148 0,0"
       style="fill:#ffb085;fill-opacity:1;fill-rule:nonzero;stroke:none"
       id="path292" /></g><g
     id="g294"
     transform="matrix(0.61581915,0,0,-0.61581915,403.42545,351.29673)"><path
       inkscape:connector-curvature="0"
       d="m 0,0 c 2.696,0.689 5.115,2.283 6.694,4.549 2.514,3.606 2.793,8.768 0.701,12.957 -3.517,7.036 -12.862,12.508 -19.009,16.938 -4.632,3.338 -10.237,7.456 -15.659,3.738 -1.921,-1.318 -2.725,-1.762 -3.62,-3.946 -0.605,-1.478 -0.79,-2.26 -0.753,-3.902 C -31.494,23.277 -24,14.565 -19.479,9.76 -15.349,5.371 -10.733,0.711 -4.966,-0.229 -3.292,-0.501 -1.598,-0.409 0,0"
       style="fill:#ffa472;fill-opacity:1;fill-rule:nonzero;stroke:none"
       id="path296" /></g><g
     id="g298"
     transform="matrix(0.61581915,0,0,-0.61581915,179.37856,487.28813)"><g
       id="g300"
       clip-path="url(#clipPath304)"><g
         id="g306"
         transform="translate(452.6797,204.54)"><path
           inkscape:connector-curvature="0"
           d="m 0,0 c 1.238,7.135 3.641,14.196 7.228,21.312 3.501,6.947 8.2,13.631 14.985,17.435 1.244,0.697 2.61,1.304 4.035,1.243 2.586,-0.111 4.638,-2.466 5.241,-4.983 1.125,-4.687 -1.266,-8.759 -2.285,-13.103 -1.084,-4.62 -1.071,-8.03 -0.099,-12.913 2.23,-11.192 7.028,-21.668 10.999,-32.303 6.357,-17.016 10.764,-34.759 13.11,-52.771 1.907,-14.646 2.431,-29.706 -1.185,-44.025 -3.615,-14.321 -11.753,-27.923 -24.236,-35.817 -4.28,-2.706 -8.758,-2.827 -13.001,-5.304 -6.056,-3.538 -11.487,-8.421 -17.508,-12.121 -2.773,-1.704 -6.456,-3.316 -9.062,-1.367 -1.453,1.087 -2.034,2.955 -2.584,4.684 -4.26,13.378 -9.633,23.072 -21.092,30.876 -11.262,7.669 -20.641,18.041 -27.29,29.924 -7.614,13.605 -7.952,20.836 -0.358,34.371 1.43,2.548 3.103,5.058 5.511,6.712 11.321,7.773 26.233,0.088 38.676,3.528 14.242,3.936 23.349,21.82 20.023,35.841 C -1.242,-18.869 -1.626,-9.371 0,0"
           style="fill:#ffb085;fill-opacity:1;fill-rule:nonzero;stroke:none"
           id="path308" /></g><g
         id="g310"
         transform="translate(470.1104,79.708)"><path
           inkscape:connector-curvature="0"
           d="m 0,0 -87.038,-12.203 c -3.214,-0.45 -6.184,1.789 -6.634,5.002 L -118.6,170.594 c -0.451,3.214 1.789,6.184 5.002,6.634 l 87.038,12.203 c 3.214,0.451 6.184,-1.789 6.634,-5.002 L 5.002,6.634 C 5.453,3.421 3.213,0.451 0,0"
           style="fill:#ffa472;fill-opacity:1;fill-rule:nonzero;stroke:none"
           id="path312" /></g></g></g><g
     id="g314"
     transform="matrix(0.61581915,0,0,-0.61581915,179.37856,487.28813)"><g
       id="g316"
       clip-path="url(#clipPath320)"><g
         id="g322"
         transform="translate(465.6904,86.3818)"><path
           inkscape:connector-curvature="0"
           d="m 0,0 -87.038,-12.203 c -3.214,-0.451 -6.184,1.789 -6.634,5.002 L -118.6,170.594 c -0.451,3.213 1.789,6.183 5.002,6.634 l 87.038,12.203 c 3.213,0.451 6.184,-1.789 6.634,-5.002 L 5.002,6.634 C 5.453,3.421 3.213,0.45 0,0"
           style="fill:#484f55;fill-opacity:1;fill-rule:nonzero;stroke:none"
           id="path324" /></g><g
         id="g326"
         transform="translate(425.7432,92.9121)"><path
           inkscape:connector-curvature="0"
           d="m 0,0 c 0.406,-2.894 -1.611,-5.569 -4.505,-5.975 -2.894,-0.406 -5.569,1.612 -5.975,4.505 -0.406,2.895 1.611,5.57 4.505,5.976 C -3.081,4.911 -0.405,2.895 0,0"
           style="fill:#999999;fill-opacity:1;fill-rule:nonzero;stroke:none"
           id="path328" /></g><g
         id="g330"
         transform="translate(460.4365,110.9424)"><path
           inkscape:connector-curvature="0"
           d="m 0,0 -2.153,15.356 -18.85,134.447 -66.114,-9.27 -14.929,-2.093 -2.445,-0.343 21.431,-152.854 83.488,11.706 z"
           style="fill:#9ae4ee;fill-opacity:1;fill-rule:nonzero;stroke:none"
           id="path332" /></g><g
         id="g334"
         transform="translate(412.2041,262.9731)"><path
           inkscape:connector-curvature="0"
           d="m 0,0 -30.691,-4.303 c -1.099,-0.154 -2.115,0.612 -2.268,1.71 l -0.065,0.467 c -0.155,1.099 0.611,2.114 1.71,2.268 l 30.69,4.303 C 0.475,4.599 1.49,3.833 1.645,2.735 L 1.71,2.268 C 1.864,1.169 1.099,0.154 0,0"
           style="fill:#333333;fill-opacity:1;fill-rule:nonzero;stroke:none"
           id="path336" /></g><g
         id="g338"
         transform="translate(452.8574,197.1211)"><path
           inkscape:connector-curvature="0"
           d="m 0,0 c -1.425,3.639 -2.658,7.34 -3.489,11.155 -1.598,7.332 -1.62,15.212 1.328,22.113 1.335,3.127 3.334,6.072 6.192,7.914 4.883,3.144 11.156,1.584 12.843,-4.414 1.82,-6.474 -1.054,-14.127 -1.171,-20.708 -0.379,-21.125 10.189,-40.682 15.875,-61.031 0.799,-2.86 0.847,-6.951 -2.031,-7.682 -2.091,-0.531 -3.971,1.331 -5.254,3.065 -5.797,7.837 -9.822,16.814 -13.802,25.711 -2.079,4.647 -4.157,9.294 -6.235,13.94 C 2.786,-6.651 1.312,-3.353 0,0"
           style="fill:#ffb085;fill-opacity:1;fill-rule:nonzero;stroke:none"
           id="path340" /></g><g
         id="g342"
         transform="translate(400.0869,176.5479)"><path
           inkscape:connector-curvature="0"
           d="m 0,0 18.662,2.258 2.59,-21.407 13.933,1.685 -3.381,27.952 5.285,0.64 -31.735,19.458 -26.069,-26.45 5.899,0.714 3.381,-27.954 14.025,1.698 z"
           style="fill:#ffffff;fill-opacity:1;fill-rule:nonzero;stroke:none"
           id="path344" /></g><g
         id="g346"
         transform="translate(435.4941,157.2441)"><path
           inkscape:connector-curvature="0"
           d="M 0,0 1.605,0.194 1.383,2.034 -0.223,1.84 Z"
           style="fill:#ffffff;fill-opacity:1;fill-rule:nonzero;stroke:none"
           id="path348" /></g><g
         id="g350"
         transform="translate(386.8838,153.2305)"><path
           inkscape:connector-curvature="0"
           d="m 0,0 0.223,-1.84 1.768,0.214 -0.222,1.84 z"
           style="fill:#ffffff;fill-opacity:1;fill-rule:nonzero;stroke:none"
           id="path352" /></g><g
         id="g354"
         transform="translate(388.6523,153.4443)"><path
           inkscape:connector-curvature="0"
           d="m 0,0 0.223,-1.84 14.023,1.696 -0.222,1.841 z"
           style="fill:#ffffff;fill-opacity:1;fill-rule:nonzero;stroke:none"
           id="path356" /></g><g
         id="g358"
         transform="translate(421.3389,157.3984)"><path
           inkscape:connector-curvature="0"
           d="m 0,0 0.223,-1.84 13.932,1.686 -0.222,1.84 z"
           style="fill:#ffffff;fill-opacity:1;fill-rule:nonzero;stroke:none"
           id="path360" /></g></g></g><g
     aria-label="SMART H    OME"
     transform="matrix(0.6098488,-0.08554335,0.08554335,0.6098488,405.26663,353.88865)"
     style="font-variant:normal;font-weight:bold;font-stretch:normal;font-size:21.83862495px;font-family:'Caviar Dreams';-inkscape-font-specification:CaviarDreams-Bold;writing-mode:lr-tb;fill:#ffffff;fill-opacity:1;fill-rule:nonzero;stroke:none"
     id="text366"><path
       inkscape:connector-curvature="0"
       d="m 13.083981,-15.419264 v 3.369632 q -1.311597,-0.586486 -2.559214,-0.885061 -1.2476168,-0.298575 -2.3566094,-0.298575 -1.471548,0 -2.1753318,0.405209 -0.7037838,0.405208 -0.7037838,1.25828 0,0.639803 0.4691892,1.002358 0.4798526,0.351892 1.7274693,0.6078137 l 1.7487962,0.3518919 q 2.6551843,0.5331696 3.7748403,1.6208355 1.119656,1.0876659 1.119656,3.0923834 0,2.6338576 -1.567518,3.92412791 -1.556855,1.27960693 -4.7665361,1.27960693 -1.5142015,0 -3.0390665,-0.28791156 Q 3.2310075,-0.26658478 1.7061426,-0.83174451 V -4.2973466 q 1.5248649,0.8104177 2.9430959,1.22629 1.4288944,0.4052088 2.7511549,0.4052088 1.3435873,0 2.0580345,-0.4478624 0.7144471,-0.4478624 0.7144471,-1.2796069 0,-0.7464374 -0.4905159,-1.1516463 Q 9.2025065,-5.9501722 7.7522853,-6.270074 L 6.1634401,-6.6219659 Q 3.7748404,-7.1338086 2.6658478,-8.2534647 1.5675185,-9.3731208 1.5675185,-11.271204 q 0,-2.377937 1.5355283,-3.657544 1.5355283,-1.279606 4.4146439,-1.279606 1.3115971,0 2.6978383,0.202604 1.386241,0.191941 2.868452,0.586486 z"
       id="path1405" /><path
       inkscape:connector-curvature="0"
       d="m 13.753897,-15.920443 h 5.225062 l 3.625553,8.5200496 3.64688,-8.5200496 H 31.46579 V 0 h -3.881474 v -11.644423 l -3.668207,8.5840298 H 21.314242 L 17.646035,-11.644423 V 0 h -3.892138 z"
       id="path1407" /><path
       inkscape:connector-curvature="0"
       d="M 42.742112,-2.9004424 H 36.322751 L 35.309729,0 h -4.126732 l 5.896855,-15.920443 h 4.894496 L 47.871204,0 h -4.126733 z m -5.395675,-2.9537593 h 4.361327 l -2.175332,-6.3340543 z"
       id="path1409" /><path
       inkscape:connector-curvature="0"
       d="m 53.589511,-8.861278 q 1.290271,0 1.844767,-0.4798526 0.56516,-0.4798526 0.56516,-1.5781814 0,-1.087666 -0.56516,-1.556856 -0.554496,-0.469189 -1.844767,-0.469189 h -1.727469 v 4.084079 z m -1.727469,2.836462 V 0 h -4.105406 v -15.920443 h 6.270074 q 3.145701,0 4.606585,1.055676 1.471548,1.055676 1.471548,3.337641 0,1.5781821 -0.767764,2.5912043 -0.757101,1.0130221 -2.292629,1.4928747 0.842408,0.1919411 1.503538,0.8743981 0.671794,0.6717936 1.354251,2.0473711 L 62.130888,0 H 57.758897 L 55.81816,-3.9561181 Q 55.231673,-5.1504179 54.62386,-5.5876169 54.02671,-6.024816 53.024352,-6.024816 Z"
       id="path1411" /><path
       inkscape:connector-curvature="0"
       d="m 58.5053,-15.920443 h 14.672826 v 3.103047 H 67.899748 V 0 H 63.794342 V -12.817396 H 58.5053 Z"
       id="path1413" /><path
       inkscape:connector-curvature="0"
       d="m 7.2023103,88.664724 h 4.1054057 v 6.06747 h 6.056806 v -6.06747 h 4.105406 v 15.920446 h -4.105406 v -6.74993 h -6.056806 v 6.74993 H 7.2023103 Z"
       id="path1415" /><path
       inkscape:connector-curvature="0"
       d="m 27.359532,91.351899 q -1.876756,0 -2.911105,1.38624 -1.034349,1.386241 -1.034349,3.902802 0,2.505896 1.034349,3.892139 1.034349,1.38624 2.911105,1.38624 1.887421,0 2.92177,-1.38624 1.034349,-1.386243 1.034349,-3.892139 0,-2.516561 -1.034349,-3.902802 -1.034349,-1.38624 -2.92177,-1.38624 z m 0,-2.975087 q 3.838821,0 6.014153,2.196659 2.175332,2.196659 2.175332,6.06747 0,3.860149 -2.175332,6.056809 -2.175332,2.19666 -6.014153,2.19666 -3.828157,0 -6.014152,-2.19666 -2.175332,-2.19666 -2.175332,-6.056809 0,-3.870811 2.175332,-6.06747 2.185995,-2.196659 6.014152,-2.196659 z"
       id="path1417" /><path
       inkscape:connector-curvature="0"
       d="m 40.222312,88.664724 h 5.225061 l 3.625553,8.52005 3.64688,-8.52005 h 5.214398 V 104.58517 H 54.05273 V 92.940744 l -3.668207,8.584026 h -2.601867 l -3.668207,-8.584026 v 11.644426 h -3.892137 z"
       id="path1419" /><path
       inkscape:connector-curvature="0"
       d="m 59.549494,88.664724 h 11.079264 v 3.103047 H 63.6549 v 2.964423 h 6.557986 V 97.83524 H 63.6549 v 3.64688 h 7.208452 v 3.10305 H 59.549494 Z"
       id="path1421" /></g><g
     id="g376"
     transform="matrix(0.61581915,0,0,-0.61581915,468.3084,483.503)"><path
       inkscape:connector-curvature="0"
       d="m 0,0 -32.044,40.624 c 0,0 54.333,22.007 65.308,49.537 l 25,-32.151 -15.291,-71.643 z"
       style="fill:#ffffff;fill-opacity:1;fill-rule:nonzero;stroke:none"
       id="path378" /></g><g
     id="g380"
     transform="matrix(0.61581915,0,0,-0.61581915,473.05692,494.76756)"><path
       inkscape:connector-curvature="0"
       d="m 0,0 -36.906,46.788 c 0,0 62.578,25.347 75.217,57.055 L 67.105,66.813 49.494,-15.701 Z"
       style="fill:#3b4356;fill-opacity:1;fill-rule:nonzero;stroke:none"
       id="path382" /></g><g
     id="g1486"><g
       transform="matrix(0.61581915,0,0,-0.61581915,229.87573,442.03928)"
       id="g388"><path
         id="path390"
         style="fill:#8cc63f;fill-opacity:1;fill-rule:nonzero;stroke:none"
         d="m 0,0 c 0,-1.736 -6.314,-3.145 -14.104,-3.145 -7.789,0 -14.104,1.409 -14.104,3.145 0,1.736 6.315,3.144 14.104,3.144 C -6.314,3.144 0,1.736 0,0"
         inkscape:connector-curvature="0" /></g><path
       id="path408"
       style="fill:#603813;fill-opacity:1;fill-rule:nonzero;stroke:none;stroke-width:0.61581916"
       d="m 222.89296,442.03897 h -2.31856 v -9.93316 h 2.31856 z"
       inkscape:connector-curvature="0" /><g
       transform="matrix(0.61581915,0,0,-0.61581915,221.73355,407.78853)"
       id="g410"><path
         id="path412"
         style="fill:#33a86a;fill-opacity:1;fill-rule:nonzero;stroke:none"
         d="m 0,0 c -3.638,0 -7.061,-0.912 -10.063,-2.51 -3.052,-10.341 -0.568,-21.445 10.19,-26.055 6.213,-3.107 12.813,-3.508 19.319,-1.929 1.279,2.749 2.014,5.802 2.014,9.034 C 21.46,-9.607 11.852,0 0,0"
         inkscape:connector-curvature="0" /></g><g
       transform="matrix(0.61581915,0,0,-0.61581915,221.81176,425.37965)"
       id="g414"><path
         id="path416"
         style="fill:#009245;fill-opacity:1;fill-rule:nonzero;stroke:none"
         d="m 0,0 c -10.758,4.61 -13.242,15.715 -10.19,26.056 -6.778,-3.608 -11.397,-10.737 -11.397,-18.951 0,-11.851 9.608,-21.459 21.46,-21.459 8.62,0 16.033,5.093 19.446,12.425 C 12.813,-3.508 6.213,-3.106 0,0"
         inkscape:connector-curvature="0" /></g></g><g
     id="g1468"><g
       transform="matrix(0.61581915,0,0,-0.61581915,372.48177,384.2683)"
       id="g392"><path
         id="path394"
         style="fill:#8cc63f;fill-opacity:1;fill-rule:nonzero;stroke:none"
         d="m 0,0 c 0,-1.736 -6.314,-3.145 -14.104,-3.145 -7.79,0 -14.104,1.409 -14.104,3.145 0,1.736 6.314,3.144 14.104,3.144 C -6.314,3.144 0,1.736 0,0"
         inkscape:connector-curvature="0" /></g><path
       id="path418"
       style="fill:#603813;fill-opacity:1;fill-rule:nonzero;stroke:none;stroke-width:0.61581916"
       d="m 364.68224,384.80351 h -2.31856 v -9.93378 h 2.31856 z"
       inkscape:connector-curvature="0" /><g
       transform="matrix(0.61581915,0,0,-0.61581915,363.5229,350.55282)"
       id="g420"><path
         id="path422"
         style="fill:#33a86a;fill-opacity:1;fill-rule:nonzero;stroke:none"
         d="m 0,0 c -3.638,0 -7.061,-0.912 -10.063,-2.51 -3.052,-10.341 -0.568,-21.445 10.19,-26.055 6.214,-3.107 12.812,-3.508 19.318,-1.929 1.281,2.749 2.015,5.803 2.015,9.034 C 21.46,-9.607 11.853,0 0,0"
         inkscape:connector-curvature="0" /></g><g
       transform="matrix(0.61581915,0,0,-0.61581915,363.60111,368.14394)"
       id="g424"><path
         id="path426"
         style="fill:#009245;fill-opacity:1;fill-rule:nonzero;stroke:none"
         d="m 0,0 c -10.758,4.61 -13.242,15.715 -10.189,26.056 -6.779,-3.608 -11.398,-10.737 -11.398,-18.951 0,-11.851 9.608,-21.459 21.46,-21.459 8.62,0 16.033,5.093 19.445,12.425 C 12.813,-3.508 6.214,-3.106 0,0"
         inkscape:connector-curvature="0" /></g></g><g
     id="g1450"><g
       transform="matrix(0.61581915,0,0,-0.61581915,389.06079,456.4641)"
       id="g384"><path
         id="path386"
         style="fill:#8cc63f;fill-opacity:1;fill-rule:nonzero;stroke:none"
         d="m 0,0 c 0,-1.736 -6.314,-3.144 -14.104,-3.144 -7.79,0 -14.104,1.408 -14.104,3.144 0,1.736 6.314,3.145 14.104,3.145 C -6.314,3.145 0,1.736 0,0"
         inkscape:connector-curvature="0" /></g><path
       id="path428"
       style="fill:#603813;fill-opacity:1;fill-rule:nonzero;stroke:none;stroke-width:0.61581916"
       d="m 380.37516,456.46392 h -2.31856 v -9.93378 h 2.31856 z"
       inkscape:connector-curvature="0" /><g
       transform="matrix(0.61581915,0,0,-0.61581915,379.21606,422.21335)"
       id="g430"><path
         id="path432"
         style="fill:#33a86a;fill-opacity:1;fill-rule:nonzero;stroke:none"
         d="m 0,0 c -3.639,0 -7.061,-0.912 -10.063,-2.51 -3.052,-10.341 -0.568,-21.445 10.19,-26.055 6.213,-3.107 12.812,-3.508 19.318,-1.929 1.28,2.749 2.015,5.803 2.015,9.034 C 21.46,-9.607 11.853,0 0,0"
         inkscape:connector-curvature="0" /></g><g
       transform="matrix(0.61581915,0,0,-0.61581915,379.29427,439.80453)"
       id="g434"><path
         id="path436"
         style="fill:#009245;fill-opacity:1;fill-rule:nonzero;stroke:none"
         d="m 0,0 c -10.758,4.61 -13.242,15.715 -10.19,26.056 -6.779,-3.608 -11.397,-10.737 -11.397,-18.951 0,-11.851 9.608,-21.459 21.46,-21.459 8.62,0 16.032,5.093 19.445,12.425 C 12.813,-3.508 6.213,-3.106 0,0"
         inkscape:connector-curvature="0" /></g></g><g
     id="g1459"><g
       transform="matrix(0.61581915,0,0,-0.61581915,350.91665,421.83511)"
       id="g404"><path
         id="path406"
         style="fill:#8cc63f;fill-opacity:1;fill-rule:nonzero;stroke:none"
         d="m 0,0 c 0,-1.736 -6.314,-3.144 -14.104,-3.144 -7.79,0 -14.104,1.408 -14.104,3.144 0,1.737 6.314,3.145 14.104,3.145 C -6.314,3.145 0,1.737 0,0"
         inkscape:connector-curvature="0" /></g><path
       id="path438"
       style="fill:#603813;fill-opacity:1;fill-rule:nonzero;stroke:none;stroke-width:0.61581916"
       d="m 343.04913,421.83518 h -1.63624 v -7.01111 h 1.63624 z"
       inkscape:connector-curvature="0" /><g
       transform="matrix(0.61581915,0,0,-0.61581915,342.23083,397.66181)"
       id="g440"><path
         id="path442"
         style="fill:#33a86a;fill-opacity:1;fill-rule:nonzero;stroke:none"
         d="M 0,0 C -2.567,0 -4.983,-0.645 -7.102,-1.771 -9.256,-9.07 -7.503,-16.907 0.09,-20.16 c 4.385,-2.194 9.043,-2.476 13.634,-1.362 0.903,1.94 1.422,4.095 1.422,6.376 C 15.146,-6.781 8.365,0 0,0"
         inkscape:connector-curvature="0" /></g><g
       transform="matrix(0.61581915,0,0,-0.61581915,342.28619,410.07679)"
       id="g444"><path
         id="path446"
         style="fill:#009245;fill-opacity:1;fill-rule:nonzero;stroke:none"
         d="m 0,0 c -7.593,3.253 -9.346,11.09 -7.191,18.389 -4.785,-2.546 -8.044,-7.577 -8.044,-13.374 0,-8.366 6.781,-15.146 15.145,-15.146 6.084,0 11.316,3.595 13.724,8.769 C 9.043,-2.476 4.385,-2.193 0,0"
         inkscape:connector-curvature="0" /></g></g><g
     id="g1477"><g
       transform="matrix(0.61581915,0,0,-0.61581915,496.57235,394.23268)"
       id="g396"><path
         id="path398"
         style="fill:#8cc63f;fill-opacity:1;fill-rule:nonzero;stroke:none"
         d="m 0,0 c 0,-1.736 -6.314,-3.145 -14.104,-3.145 -7.789,0 -14.103,1.409 -14.103,3.145 0,1.736 6.314,3.144 14.103,3.144 C -6.314,3.144 0,1.736 0,0"
         inkscape:connector-curvature="0" /></g><path
       id="path448"
       style="fill:#603813;fill-opacity:1;fill-rule:nonzero;stroke:none;stroke-width:0.61581916"
       d="m 488.65033,392.24568 h -1.63623 v -7.0111 h 1.63623 z"
       inkscape:connector-curvature="0" /><g
       transform="matrix(0.61581915,0,0,-0.61581915,487.83178,368.07238)"
       id="g450"><path
         id="path452"
         style="fill:#33a86a;fill-opacity:1;fill-rule:nonzero;stroke:none"
         d="m 0,0 c -2.567,0 -4.983,-0.645 -7.102,-1.771 -2.154,-7.299 -0.4,-15.136 7.192,-18.39 4.385,-2.193 9.043,-2.475 13.634,-1.361 0.903,1.94 1.422,4.095 1.422,6.376 C 15.146,-6.781 8.365,0 0,0"
         inkscape:connector-curvature="0" /></g><g
       transform="matrix(0.61581915,0,0,-0.61581915,487.88714,380.48803)"
       id="g454"><path
         id="path456"
         style="fill:#009245;fill-opacity:1;fill-rule:nonzero;stroke:none"
         d="m 0,0 c -7.592,3.254 -9.346,11.091 -7.191,18.39 -4.785,-2.546 -8.044,-7.577 -8.044,-13.374 0,-8.366 6.781,-15.146 15.145,-15.146 6.084,0 11.316,3.595 13.724,8.769 C 9.043,-2.475 4.385,-2.192 0,0"
         inkscape:connector-curvature="0" /></g></g><g
     id="g1495"><g
       transform="matrix(0.61581915,0,0,-0.61581915,202.57314,398.00938)"
       id="g400"><path
         id="path402"
         style="fill:#8cc63f;fill-opacity:1;fill-rule:nonzero;stroke:none"
         d="m 0,0 c 0,-1.736 -6.314,-3.144 -14.104,-3.144 -7.789,0 -14.104,1.408 -14.104,3.144 0,1.736 6.315,3.145 14.104,3.145 C -6.314,3.145 0,1.736 0,0"
         inkscape:connector-curvature="0" /></g><path
       id="path458"
       style="fill:#603813;fill-opacity:1;fill-rule:nonzero;stroke:none;stroke-width:0.61581916"
       d="m 194.65087,397.73817 h -1.63623 v -7.0111 h 1.63623 z"
       inkscape:connector-curvature="0" /><g
       transform="matrix(0.61581915,0,0,-0.61581915,193.83257,373.56548)"
       id="g460"><path
         id="path462"
         style="fill:#33a86a;fill-opacity:1;fill-rule:nonzero;stroke:none"
         d="m 0,0 c -2.567,0 -4.983,-0.644 -7.102,-1.771 -2.154,-7.298 -0.4,-15.135 7.192,-18.389 4.385,-2.193 9.042,-2.476 13.634,-1.361 0.903,1.94 1.422,4.095 1.422,6.375 C 15.146,-6.78 8.365,0 0,0"
         inkscape:connector-curvature="0" /></g><g
       transform="matrix(0.61581915,0,0,-0.61581915,193.88787,385.98046)"
       id="g464"><path
         id="path466"
         style="fill:#009245;fill-opacity:1;fill-rule:nonzero;stroke:none"
         d="m 0,0 c -7.592,3.254 -9.346,11.091 -7.192,18.389 -4.784,-2.545 -8.043,-7.577 -8.043,-13.374 0,-8.365 6.781,-15.146 15.145,-15.146 6.084,0 11.316,3.596 13.724,8.77 C 9.042,-2.476 4.385,-2.192 0,0"
         inkscape:connector-curvature="0" /></g></g><g
     id="g1511"
     transform="translate(173.78049,46.940706)"><g
       id="g1499"
       transform="matrix(0.61581915,0,0,-0.61581915,372.48177,384.2683)"><path
         inkscape:connector-curvature="0"
         d="m 0,0 c 0,-1.736 -6.314,-3.145 -14.104,-3.145 -7.79,0 -14.104,1.409 -14.104,3.145 0,1.736 6.314,3.144 14.104,3.144 C -6.314,3.144 0,1.736 0,0"
         style="fill:#8cc63f;fill-opacity:1;fill-rule:nonzero;stroke:none"
         id="path1497" /></g><path
       inkscape:connector-curvature="0"
       d="m 364.68224,384.80351 h -2.31856 v -9.93378 h 2.31856 z"
       style="fill:#603813;fill-opacity:1;fill-rule:nonzero;stroke:none;stroke-width:0.61581916"
       id="path1501" /><g
       id="g1505"
       transform="matrix(0.61581915,0,0,-0.61581915,363.5229,350.55282)"><path
         inkscape:connector-curvature="0"
         d="m 0,0 c -3.638,0 -7.061,-0.912 -10.063,-2.51 -3.052,-10.341 -0.568,-21.445 10.19,-26.055 6.214,-3.107 12.812,-3.508 19.318,-1.929 1.281,2.749 2.015,5.803 2.015,9.034 C 21.46,-9.607 11.853,0 0,0"
         style="fill:#33a86a;fill-opacity:1;fill-rule:nonzero;stroke:none"
         id="path1503" /></g><g
       id="g1509"
       transform="matrix(0.61581915,0,0,-0.61581915,363.60111,368.14394)"><path
         inkscape:connector-curvature="0"
         d="m 0,0 c -10.758,4.61 -13.242,15.715 -10.189,26.056 -6.779,-3.608 -11.398,-10.737 -11.398,-18.951 0,-11.851 9.608,-21.459 21.46,-21.459 8.62,0 16.033,5.093 19.445,12.425 C 12.813,-3.508 6.214,-3.106 0,0"
         style="fill:#009245;fill-opacity:1;fill-rule:nonzero;stroke:none"
         id="path1507" /></g></g><g
     id="g1527"
     transform="translate(261.66947,-41.947014)"><g
       id="g1515"
       transform="matrix(0.61581915,0,0,-0.61581915,389.06079,456.4641)"><path
         inkscape:connector-curvature="0"
         d="m 0,0 c 0,-1.736 -6.314,-3.144 -14.104,-3.144 -7.79,0 -14.104,1.408 -14.104,3.144 0,1.736 6.314,3.145 14.104,3.145 C -6.314,3.145 0,1.736 0,0"
         style="fill:#8cc63f;fill-opacity:1;fill-rule:nonzero;stroke:none"
         id="path1513" /></g><path
       inkscape:connector-curvature="0"
       d="m 380.37516,456.46392 h -2.31856 v -9.93378 h 2.31856 z"
       style="fill:#603813;fill-opacity:1;fill-rule:nonzero;stroke:none;stroke-width:0.61581916"
       id="path1517" /><g
       id="g1521"
       transform="matrix(0.61581915,0,0,-0.61581915,379.21606,422.21335)"><path
         inkscape:connector-curvature="0"
         d="m 0,0 c -3.639,0 -7.061,-0.912 -10.063,-2.51 -3.052,-10.341 -0.568,-21.445 10.19,-26.055 6.213,-3.107 12.812,-3.508 19.318,-1.929 1.28,2.749 2.015,5.803 2.015,9.034 C 21.46,-9.607 11.853,0 0,0"
         style="fill:#33a86a;fill-opacity:1;fill-rule:nonzero;stroke:none"
         id="path1519" /></g><g
       id="g1525"
       transform="matrix(0.61581915,0,0,-0.61581915,379.29427,439.80453)"><path
         inkscape:connector-curvature="0"
         d="m 0,0 c -10.758,4.61 -13.242,15.715 -10.19,26.056 -6.779,-3.608 -11.397,-10.737 -11.397,-18.951 0,-11.851 9.608,-21.459 21.46,-21.459 8.62,0 16.032,5.093 19.445,12.425 C 12.813,-3.508 6.213,-3.106 0,0"
         style="fill:#009245;fill-opacity:1;fill-rule:nonzero;stroke:none"
         id="path1523" /></g></g><g
     id="g1543"
     transform="translate(260.67073,42.945752)"><g
       id="g1531"
       transform="matrix(0.61581915,0,0,-0.61581915,350.91665,421.83511)"><path
         inkscape:connector-curvature="0"
         d="m 0,0 c 0,-1.736 -6.314,-3.144 -14.104,-3.144 -7.79,0 -14.104,1.408 -14.104,3.144 0,1.737 6.314,3.145 14.104,3.145 C -6.314,3.145 0,1.737 0,0"
         style="fill:#8cc63f;fill-opacity:1;fill-rule:nonzero;stroke:none"
         id="path1529" /></g><path
       inkscape:connector-curvature="0"
       d="m 343.04913,421.83518 h -1.63624 v -7.01111 h 1.63624 z"
       style="fill:#603813;fill-opacity:1;fill-rule:nonzero;stroke:none;stroke-width:0.61581916"
       id="path1533" /><g
       id="g1537"
       transform="matrix(0.61581915,0,0,-0.61581915,342.23083,397.66181)"><path
         inkscape:connector-curvature="0"
         d="M 0,0 C -2.567,0 -4.983,-0.645 -7.102,-1.771 -9.256,-9.07 -7.503,-16.907 0.09,-20.16 c 4.385,-2.194 9.043,-2.476 13.634,-1.362 0.903,1.94 1.422,4.095 1.422,6.376 C 15.146,-6.781 8.365,0 0,0"
         style="fill:#33a86a;fill-opacity:1;fill-rule:nonzero;stroke:none"
         id="path1535" /></g><g
       id="g1541"
       transform="matrix(0.61581915,0,0,-0.61581915,342.28619,410.07679)"><path
         inkscape:connector-curvature="0"
         d="m 0,0 c -7.593,3.253 -9.346,11.09 -7.191,18.389 -4.785,-2.546 -8.044,-7.577 -8.044,-13.374 0,-8.366 6.781,-15.146 15.145,-15.146 6.084,0 11.316,3.595 13.724,8.769 C 9.043,-2.476 4.385,-2.193 0,0"
         style="fill:#009245;fill-opacity:1;fill-rule:nonzero;stroke:none"
         id="path1539" /></g></g><g
     id="g1559"
     transform="translate(233.7048,105.86627)"><g
       id="g1547"
       transform="matrix(0.61581915,0,0,-0.61581915,202.57314,398.00938)"><path
         inkscape:connector-curvature="0"
         d="m 0,0 c 0,-1.736 -6.314,-3.144 -14.104,-3.144 -7.789,0 -14.104,1.408 -14.104,3.144 0,1.736 6.315,3.145 14.104,3.145 C -6.314,3.145 0,1.736 0,0"
         style="fill:#8cc63f;fill-opacity:1;fill-rule:nonzero;stroke:none"
         id="path1545" /></g><path
       inkscape:connector-curvature="0"
       d="m 194.65087,397.73817 h -1.63623 v -7.0111 h 1.63623 z"
       style="fill:#603813;fill-opacity:1;fill-rule:nonzero;stroke:none;stroke-width:0.61581916"
       id="path1549" /><g
       id="g1553"
       transform="matrix(0.61581915,0,0,-0.61581915,193.83257,373.56548)"><path
         inkscape:connector-curvature="0"
         d="m 0,0 c -2.567,0 -4.983,-0.644 -7.102,-1.771 -2.154,-7.298 -0.4,-15.135 7.192,-18.389 4.385,-2.193 9.042,-2.476 13.634,-1.361 0.903,1.94 1.422,4.095 1.422,6.375 C 15.146,-6.78 8.365,0 0,0"
         style="fill:#33a86a;fill-opacity:1;fill-rule:nonzero;stroke:none"
         id="path1551" /></g><g
       id="g1557"
       transform="matrix(0.61581915,0,0,-0.61581915,193.88787,385.98046)"><path
         inkscape:connector-curvature="0"
         d="m 0,0 c -7.592,3.254 -9.346,11.091 -7.192,18.389 -4.784,-2.545 -8.043,-7.577 -8.043,-13.374 0,-8.365 6.781,-15.146 15.145,-15.146 6.084,0 11.316,3.596 13.724,8.77 C 9.042,-2.476 4.385,-2.192 0,0"
         style="fill:#009245;fill-opacity:1;fill-rule:nonzero;stroke:none"
         id="path1555" /></g></g><g
     id="g1575"
     transform="translate(135.82843,95.878889)"><g
       id="g1563"
       transform="matrix(0.61581915,0,0,-0.61581915,229.87573,442.03928)"><path
         inkscape:connector-curvature="0"
         d="m 0,0 c 0,-1.736 -6.314,-3.145 -14.104,-3.145 -7.789,0 -14.104,1.409 -14.104,3.145 0,1.736 6.315,3.144 14.104,3.144 C -6.314,3.144 0,1.736 0,0"
         style="fill:#8cc63f;fill-opacity:1;fill-rule:nonzero;stroke:none"
         id="path1561" /></g><path
       inkscape:connector-curvature="0"
       d="m 222.89296,442.03897 h -2.31856 v -9.93316 h 2.31856 z"
       style="fill:#603813;fill-opacity:1;fill-rule:nonzero;stroke:none;stroke-width:0.61581916"
       id="path1565" /><g
       id="g1569"
       transform="matrix(0.61581915,0,0,-0.61581915,221.73355,407.78853)"><path
         inkscape:connector-curvature="0"
         d="m 0,0 c -3.638,0 -7.061,-0.912 -10.063,-2.51 -3.052,-10.341 -0.568,-21.445 10.19,-26.055 6.213,-3.107 12.813,-3.508 19.319,-1.929 1.279,2.749 2.014,5.802 2.014,9.034 C 21.46,-9.607 11.852,0 0,0"
         style="fill:#33a86a;fill-opacity:1;fill-rule:nonzero;stroke:none"
         id="path1567" /></g><g
       id="g1573"
       transform="matrix(0.61581915,0,0,-0.61581915,221.81176,425.37965)"><path
         inkscape:connector-curvature="0"
         d="m 0,0 c -10.758,4.61 -13.242,15.715 -10.19,26.056 -6.778,-3.608 -11.397,-10.737 -11.397,-18.951 0,-11.851 9.608,-21.459 21.46,-21.459 8.62,0 16.033,5.093 19.446,12.425 C 12.813,-3.508 6.213,-3.106 0,0"
         style="fill:#009245;fill-opacity:1;fill-rule:nonzero;stroke:none"
         id="path1571" /></g></g><g
     id="g1591"
     transform="translate(-112.85744,-44.943229)"><g
       id="g1579"
       transform="matrix(0.61581915,0,0,-0.61581915,229.87573,442.03928)"><path
         inkscape:connector-curvature="0"
         d="m 0,0 c 0,-1.736 -6.314,-3.145 -14.104,-3.145 -7.789,0 -14.104,1.409 -14.104,3.145 0,1.736 6.315,3.144 14.104,3.144 C -6.314,3.144 0,1.736 0,0"
         style="fill:#8cc63f;fill-opacity:1;fill-rule:nonzero;stroke:none"
         id="path1577" /></g><path
       inkscape:connector-curvature="0"
       d="m 222.89296,442.03897 h -2.31856 v -9.93316 h 2.31856 z"
       style="fill:#603813;fill-opacity:1;fill-rule:nonzero;stroke:none;stroke-width:0.61581916"
       id="path1581" /><g
       id="g1585"
       transform="matrix(0.61581915,0,0,-0.61581915,221.73355,407.78853)"><path
         inkscape:connector-curvature="0"
         d="m 0,0 c -3.638,0 -7.061,-0.912 -10.063,-2.51 -3.052,-10.341 -0.568,-21.445 10.19,-26.055 6.213,-3.107 12.813,-3.508 19.319,-1.929 1.279,2.749 2.014,5.802 2.014,9.034 C 21.46,-9.607 11.852,0 0,0"
         style="fill:#33a86a;fill-opacity:1;fill-rule:nonzero;stroke:none"
         id="path1583" /></g><g
       id="g1589"
       transform="matrix(0.61581915,0,0,-0.61581915,221.81176,425.37965)"><path
         inkscape:connector-curvature="0"
         d="m 0,0 c -10.758,4.61 -13.242,15.715 -10.19,26.056 -6.778,-3.608 -11.397,-10.737 -11.397,-18.951 0,-11.851 9.608,-21.459 21.46,-21.459 8.62,0 16.033,5.093 19.446,12.425 C 12.813,-3.508 6.213,-3.106 0,0"
         style="fill:#009245;fill-opacity:1;fill-rule:nonzero;stroke:none"
         id="path1587" /></g></g><g
     id="g1607"
     transform="translate(-337.57359,50.93566)"><g
       id="g1595"
       transform="matrix(0.61581915,0,0,-0.61581915,372.48177,384.2683)"><path
         inkscape:connector-curvature="0"
         d="m 0,0 c 0,-1.736 -6.314,-3.145 -14.104,-3.145 -7.79,0 -14.104,1.409 -14.104,3.145 0,1.736 6.314,3.144 14.104,3.144 C -6.314,3.144 0,1.736 0,0"
         style="fill:#8cc63f;fill-opacity:1;fill-rule:nonzero;stroke:none"
         id="path1593" /></g><path
       inkscape:connector-curvature="0"
       d="m 364.68224,384.80351 h -2.31856 v -9.93378 h 2.31856 z"
       style="fill:#603813;fill-opacity:1;fill-rule:nonzero;stroke:none;stroke-width:0.61581916"
       id="path1597" /><g
       id="g1601"
       transform="matrix(0.61581915,0,0,-0.61581915,363.5229,350.55282)"><path
         inkscape:connector-curvature="0"
         d="m 0,0 c -3.638,0 -7.061,-0.912 -10.063,-2.51 -3.052,-10.341 -0.568,-21.445 10.19,-26.055 6.214,-3.107 12.812,-3.508 19.318,-1.929 1.281,2.749 2.015,5.803 2.015,9.034 C 21.46,-9.607 11.853,0 0,0"
         style="fill:#33a86a;fill-opacity:1;fill-rule:nonzero;stroke:none"
         id="path1599" /></g><g
       id="g1605"
       transform="matrix(0.61581915,0,0,-0.61581915,363.60111,368.14394)"><path
         inkscape:connector-curvature="0"
         d="m 0,0 c -10.758,4.61 -13.242,15.715 -10.189,26.056 -6.779,-3.608 -11.398,-10.737 -11.398,-18.951 0,-11.851 9.608,-21.459 21.46,-21.459 8.62,0 16.033,5.093 19.445,12.425 C 12.813,-3.508 6.214,-3.106 0,0"
         style="fill:#009245;fill-opacity:1;fill-rule:nonzero;stroke:none"
         id="path1603" /></g></g><g
     id="g1623"
     transform="translate(-228.7111,34.955845)"><g
       id="g1611"
       transform="matrix(0.61581915,0,0,-0.61581915,350.91665,421.83511)"><path
         inkscape:connector-curvature="0"
         d="m 0,0 c 0,-1.736 -6.314,-3.144 -14.104,-3.144 -7.79,0 -14.104,1.408 -14.104,3.144 0,1.737 6.314,3.145 14.104,3.145 C -6.314,3.145 0,1.737 0,0"
         style="fill:#8cc63f;fill-opacity:1;fill-rule:nonzero;stroke:none"
         id="path1609" /></g><path
       inkscape:connector-curvature="0"
       d="m 343.04913,421.83518 h -1.63624 v -7.01111 h 1.63624 z"
       style="fill:#603813;fill-opacity:1;fill-rule:nonzero;stroke:none;stroke-width:0.61581916"
       id="path1613" /><g
       id="g1617"
       transform="matrix(0.61581915,0,0,-0.61581915,342.23083,397.66181)"><path
         inkscape:connector-curvature="0"
         d="M 0,0 C -2.567,0 -4.983,-0.645 -7.102,-1.771 -9.256,-9.07 -7.503,-16.907 0.09,-20.16 c 4.385,-2.194 9.043,-2.476 13.634,-1.362 0.903,1.94 1.422,4.095 1.422,6.376 C 15.146,-6.781 8.365,0 0,0"
         style="fill:#33a86a;fill-opacity:1;fill-rule:nonzero;stroke:none"
         id="path1615" /></g><g
       id="g1621"
       transform="matrix(0.61581915,0,0,-0.61581915,342.28619,410.07679)"><path
         inkscape:connector-curvature="0"
         d="m 0,0 c -7.593,3.253 -9.346,11.09 -7.191,18.389 -4.785,-2.546 -8.044,-7.577 -8.044,-13.374 0,-8.366 6.781,-15.146 15.145,-15.146 6.084,0 11.316,3.595 13.724,8.769 C 9.043,-2.476 4.385,-2.193 0,0"
         style="fill:#009245;fill-opacity:1;fill-rule:nonzero;stroke:none"
         id="path1619" /></g></g><g
     id="g1639"
     transform="translate(164.79184,58.925567)"><g
       id="g1627"
       transform="matrix(0.61581915,0,0,-0.61581915,389.06079,456.4641)"><path
         inkscape:connector-curvature="0"
         d="m 0,0 c 0,-1.736 -6.314,-3.144 -14.104,-3.144 -7.79,0 -14.104,1.408 -14.104,3.144 0,1.736 6.314,3.145 14.104,3.145 C -6.314,3.145 0,1.736 0,0"
         style="fill:#8cc63f;fill-opacity:1;fill-rule:nonzero;stroke:none"
         id="path1625" /></g><path
       inkscape:connector-curvature="0"
       d="m 380.37516,456.46392 h -2.31856 v -9.93378 h 2.31856 z"
       style="fill:#603813;fill-opacity:1;fill-rule:nonzero;stroke:none;stroke-width:0.61581916"
       id="path1629" /><g
       id="g1633"
       transform="matrix(0.61581915,0,0,-0.61581915,379.21606,422.21335)"><path
         inkscape:connector-curvature="0"
         d="m 0,0 c -3.639,0 -7.061,-0.912 -10.063,-2.51 -3.052,-10.341 -0.568,-21.445 10.19,-26.055 6.213,-3.107 12.812,-3.508 19.318,-1.929 1.28,2.749 2.015,5.803 2.015,9.034 C 21.46,-9.607 11.853,0 0,0"
         style="fill:#33a86a;fill-opacity:1;fill-rule:nonzero;stroke:none"
         id="path1631" /></g><g
       id="g1637"
       transform="matrix(0.61581915,0,0,-0.61581915,379.29427,439.80453)"><path
         inkscape:connector-curvature="0"
         d="m 0,0 c -10.758,4.61 -13.242,15.715 -10.19,26.056 -6.779,-3.608 -11.397,-10.737 -11.397,-18.951 0,-11.851 9.608,-21.459 21.46,-21.459 8.62,0 16.032,5.093 19.445,12.425 C 12.813,-3.508 6.213,-3.106 0,0"
         style="fill:#009245;fill-opacity:1;fill-rule:nonzero;stroke:none"
         id="path1635" /></g></g><g
     transform="translate(-46.940704,67.914213)"
     id="g1655"><g
       transform="matrix(0.61581915,0,0,-0.61581915,229.87573,442.03928)"
       id="g1643"><path
         id="path1641"
         style="fill:#8cc63f;fill-opacity:1;fill-rule:nonzero;stroke:none"
         d="m 0,0 c 0,-1.736 -6.314,-3.145 -14.104,-3.145 -7.789,0 -14.104,1.409 -14.104,3.145 0,1.736 6.315,3.144 14.104,3.144 C -6.314,3.144 0,1.736 0,0"
         inkscape:connector-curvature="0" /></g><path
       id="path1645"
       style="fill:#603813;fill-opacity:1;fill-rule:nonzero;stroke:none;stroke-width:0.61581916"
       d="m 222.89296,442.03897 h -2.31856 v -9.93316 h 2.31856 z"
       inkscape:connector-curvature="0" /><g
       transform="matrix(0.61581915,0,0,-0.61581915,221.73355,407.78853)"
       id="g1649"><path
         id="path1647"
         style="fill:#33a86a;fill-opacity:1;fill-rule:nonzero;stroke:none"
         d="m 0,0 c -3.638,0 -7.061,-0.912 -10.063,-2.51 -3.052,-10.341 -0.568,-21.445 10.19,-26.055 6.213,-3.107 12.813,-3.508 19.319,-1.929 1.279,2.749 2.014,5.802 2.014,9.034 C 21.46,-9.607 11.852,0 0,0"
         inkscape:connector-curvature="0" /></g><g
       transform="matrix(0.61581915,0,0,-0.61581915,221.81176,425.37965)"
       id="g1653"><path
         id="path1651"
         style="fill:#009245;fill-opacity:1;fill-rule:nonzero;stroke:none"
         d="m 0,0 c -10.758,4.61 -13.242,15.715 -10.19,26.056 -6.778,-3.608 -11.397,-10.737 -11.397,-18.951 0,-11.851 9.608,-21.459 21.46,-21.459 8.62,0 16.033,5.093 19.446,12.425 C 12.813,-3.508 6.213,-3.106 0,0"
         inkscape:connector-curvature="0" /></g></g><g
     id="g1671"
     transform="translate(-93.881412,101.87132)"><g
       id="g1659"
       transform="matrix(0.61581915,0,0,-0.61581915,350.91665,421.83511)"><path
         inkscape:connector-curvature="0"
         d="m 0,0 c 0,-1.736 -6.314,-3.144 -14.104,-3.144 -7.79,0 -14.104,1.408 -14.104,3.144 0,1.737 6.314,3.145 14.104,3.145 C -6.314,3.145 0,1.737 0,0"
         style="fill:#8cc63f;fill-opacity:1;fill-rule:nonzero;stroke:none"
         id="path1657" /></g><path
       inkscape:connector-curvature="0"
       d="m 343.04913,421.83518 h -1.63624 v -7.01111 h 1.63624 z"
       style="fill:#603813;fill-opacity:1;fill-rule:nonzero;stroke:none;stroke-width:0.61581916"
       id="path1661" /><g
       id="g1665"
       transform="matrix(0.61581915,0,0,-0.61581915,342.23083,397.66181)"><path
         inkscape:connector-curvature="0"
         d="M 0,0 C -2.567,0 -4.983,-0.645 -7.102,-1.771 -9.256,-9.07 -7.503,-16.907 0.09,-20.16 c 4.385,-2.194 9.043,-2.476 13.634,-1.362 0.903,1.94 1.422,4.095 1.422,6.376 C 15.146,-6.781 8.365,0 0,0"
         style="fill:#33a86a;fill-opacity:1;fill-rule:nonzero;stroke:none"
         id="path1663" /></g><g
       id="g1669"
       transform="matrix(0.61581915,0,0,-0.61581915,342.28619,410.07679)"><path
         inkscape:connector-curvature="0"
         d="m 0,0 c -7.593,3.253 -9.346,11.09 -7.191,18.389 -4.785,-2.546 -8.044,-7.577 -8.044,-13.374 0,-8.366 6.781,-15.146 15.145,-15.146 6.084,0 11.316,3.595 13.724,8.769 C 9.043,-2.476 4.385,-2.193 0,0"
         style="fill:#009245;fill-opacity:1;fill-rule:nonzero;stroke:none"
         id="path1667" /></g></g><g
     id="g1687"
     transform="translate(-320.59503,62.920521)"><g
       id="g1675"
       transform="matrix(0.61581915,0,0,-0.61581915,389.06079,456.4641)"><path
         inkscape:connector-curvature="0"
         d="m 0,0 c 0,-1.736 -6.314,-3.144 -14.104,-3.144 -7.79,0 -14.104,1.408 -14.104,3.144 0,1.736 6.314,3.145 14.104,3.145 C -6.314,3.145 0,1.736 0,0"
         style="fill:#8cc63f;fill-opacity:1;fill-rule:nonzero;stroke:none"
         id="path1673" /></g><path
       inkscape:connector-curvature="0"
       d="m 380.37516,456.46392 h -2.31856 v -9.93378 h 2.31856 z"
       style="fill:#603813;fill-opacity:1;fill-rule:nonzero;stroke:none;stroke-width:0.61581916"
       id="path1677" /><g
       id="g1681"
       transform="matrix(0.61581915,0,0,-0.61581915,379.21606,422.21335)"><path
         inkscape:connector-curvature="0"
         d="m 0,0 c -3.639,0 -7.061,-0.912 -10.063,-2.51 -3.052,-10.341 -0.568,-21.445 10.19,-26.055 6.213,-3.107 12.812,-3.508 19.318,-1.929 1.28,2.749 2.015,5.803 2.015,9.034 C 21.46,-9.607 11.853,0 0,0"
         style="fill:#33a86a;fill-opacity:1;fill-rule:nonzero;stroke:none"
         id="path1679" /></g><g
       id="g1685"
       transform="matrix(0.61581915,0,0,-0.61581915,379.29427,439.80453)"><path
         inkscape:connector-curvature="0"
         d="m 0,0 c -10.758,4.61 -13.242,15.715 -10.19,26.056 -6.779,-3.608 -11.397,-10.737 -11.397,-18.951 0,-11.851 9.608,-21.459 21.46,-21.459 8.62,0 16.032,5.093 19.445,12.425 C 12.813,-3.508 6.213,-3.106 0,0"
         style="fill:#009245;fill-opacity:1;fill-rule:nonzero;stroke:none"
         id="path1683" /></g></g><g
     transform="translate(263.66695,171.78301)"
     id="g1703"><g
       transform="matrix(0.61581915,0,0,-0.61581915,372.48177,384.2683)"
       id="g1691"><path
         id="path1689"
         style="fill:#8cc63f;fill-opacity:1;fill-rule:nonzero;stroke:none"
         d="m 0,0 c 0,-1.736 -6.314,-3.145 -14.104,-3.145 -7.79,0 -14.104,1.409 -14.104,3.145 0,1.736 6.314,3.144 14.104,3.144 C -6.314,3.144 0,1.736 0,0"
         inkscape:connector-curvature="0" /></g><path
       id="path1693"
       style="fill:#603813;fill-opacity:1;fill-rule:nonzero;stroke:none;stroke-width:0.61581916"
       d="m 364.68224,384.80351 h -2.31856 v -9.93378 h 2.31856 z"
       inkscape:connector-curvature="0" /><g
       transform="matrix(0.61581915,0,0,-0.61581915,363.5229,350.55282)"
       id="g1697"><path
         id="path1695"
         style="fill:#33a86a;fill-opacity:1;fill-rule:nonzero;stroke:none"
         d="m 0,0 c -3.638,0 -7.061,-0.912 -10.063,-2.51 -3.052,-10.341 -0.568,-21.445 10.19,-26.055 6.214,-3.107 12.812,-3.508 19.318,-1.929 1.281,2.749 2.015,5.803 2.015,9.034 C 21.46,-9.607 11.853,0 0,0"
         inkscape:connector-curvature="0" /></g><g
       transform="matrix(0.61581915,0,0,-0.61581915,363.60111,368.14394)"
       id="g1701"><path
         id="path1699"
         style="fill:#009245;fill-opacity:1;fill-rule:nonzero;stroke:none"
         d="m 0,0 c -10.758,4.61 -13.242,15.715 -10.189,26.056 -6.779,-3.608 -11.398,-10.737 -11.398,-18.951 0,-11.851 9.608,-21.459 21.46,-21.459 8.62,0 16.033,5.093 19.445,12.425 C 12.813,-3.508 6.214,-3.106 0,0"
         inkscape:connector-curvature="0" /></g></g><g
     transform="translate(-96.877625,126.83978)"
     id="g1719"><g
       transform="matrix(0.61581915,0,0,-0.61581915,229.87573,442.03928)"
       id="g1707"><path
         id="path1705"
         style="fill:#8cc63f;fill-opacity:1;fill-rule:nonzero;stroke:none"
         d="m 0,0 c 0,-1.736 -6.314,-3.145 -14.104,-3.145 -7.789,0 -14.104,1.409 -14.104,3.145 0,1.736 6.315,3.144 14.104,3.144 C -6.314,3.144 0,1.736 0,0"
         inkscape:connector-curvature="0" /></g><path
       id="path1709"
       style="fill:#603813;fill-opacity:1;fill-rule:nonzero;stroke:none;stroke-width:0.61581916"
       d="m 222.89296,442.03897 h -2.31856 v -9.93316 h 2.31856 z"
       inkscape:connector-curvature="0" /><g
       transform="matrix(0.61581915,0,0,-0.61581915,221.73355,407.78853)"
       id="g1713"><path
         id="path1711"
         style="fill:#33a86a;fill-opacity:1;fill-rule:nonzero;stroke:none"
         d="m 0,0 c -3.638,0 -7.061,-0.912 -10.063,-2.51 -3.052,-10.341 -0.568,-21.445 10.19,-26.055 6.213,-3.107 12.813,-3.508 19.319,-1.929 1.279,2.749 2.014,5.802 2.014,9.034 C 21.46,-9.607 11.852,0 0,0"
         inkscape:connector-curvature="0" /></g><g
       transform="matrix(0.61581915,0,0,-0.61581915,221.81176,425.37965)"
       id="g1717"><path
         id="path1715"
         style="fill:#009245;fill-opacity:1;fill-rule:nonzero;stroke:none"
         d="m 0,0 c -10.758,4.61 -13.242,15.715 -10.19,26.056 -6.778,-3.608 -11.397,-10.737 -11.397,-18.951 0,-11.851 9.608,-21.459 21.46,-21.459 8.62,0 16.033,5.093 19.446,12.425 C 12.813,-3.508 6.213,-3.106 0,0"
         inkscape:connector-curvature="0" /></g></g><g
     id="g1735"
     transform="translate(-317.59882,170.78427)"><g
       id="g1723"
       transform="matrix(0.61581915,0,0,-0.61581915,350.91665,421.83511)"><path
         inkscape:connector-curvature="0"
         d="m 0,0 c 0,-1.736 -6.314,-3.144 -14.104,-3.144 -7.79,0 -14.104,1.408 -14.104,3.144 0,1.737 6.314,3.145 14.104,3.145 C -6.314,3.145 0,1.737 0,0"
         style="fill:#8cc63f;fill-opacity:1;fill-rule:nonzero;stroke:none"
         id="path1721" /></g><path
       inkscape:connector-curvature="0"
       d="m 343.04913,421.83518 h -1.63624 v -7.01111 h 1.63624 z"
       style="fill:#603813;fill-opacity:1;fill-rule:nonzero;stroke:none;stroke-width:0.61581916"
       id="path1725" /><g
       id="g1729"
       transform="matrix(0.61581915,0,0,-0.61581915,342.23083,397.66181)"><path
         inkscape:connector-curvature="0"
         d="M 0,0 C -2.567,0 -4.983,-0.645 -7.102,-1.771 -9.256,-9.07 -7.503,-16.907 0.09,-20.16 c 4.385,-2.194 9.043,-2.476 13.634,-1.362 0.903,1.94 1.422,4.095 1.422,6.376 C 15.146,-6.781 8.365,0 0,0"
         style="fill:#33a86a;fill-opacity:1;fill-rule:nonzero;stroke:none"
         id="path1727" /></g><g
       id="g1733"
       transform="matrix(0.61581915,0,0,-0.61581915,342.28619,410.07679)"><path
         inkscape:connector-curvature="0"
         d="m 0,0 c -7.593,3.253 -9.346,11.09 -7.191,18.389 -4.785,-2.546 -8.044,-7.577 -8.044,-13.374 0,-8.366 6.781,-15.146 15.145,-15.146 6.084,0 11.316,3.595 13.724,8.769 C 9.043,-2.476 4.385,-2.193 0,0"
         style="fill:#009245;fill-opacity:1;fill-rule:nonzero;stroke:none"
         id="path1731" /></g></g><g
     transform="translate(106.86502,201.74516)"
     id="g1751"><g
       transform="matrix(0.61581915,0,0,-0.61581915,372.48177,384.2683)"
       id="g1739"><path
         id="path1737"
         style="fill:#8cc63f;fill-opacity:1;fill-rule:nonzero;stroke:none"
         d="m 0,0 c 0,-1.736 -6.314,-3.145 -14.104,-3.145 -7.79,0 -14.104,1.409 -14.104,3.145 0,1.736 6.314,3.144 14.104,3.144 C -6.314,3.144 0,1.736 0,0"
         inkscape:connector-curvature="0" /></g><path
       id="path1741"
       style="fill:#603813;fill-opacity:1;fill-rule:nonzero;stroke:none;stroke-width:0.61581916"
       d="m 364.68224,384.80351 h -2.31856 v -9.93378 h 2.31856 z"
       inkscape:connector-curvature="0" /><g
       transform="matrix(0.61581915,0,0,-0.61581915,363.5229,350.55282)"
       id="g1745"><path
         id="path1743"
         style="fill:#33a86a;fill-opacity:1;fill-rule:nonzero;stroke:none"
         d="m 0,0 c -3.638,0 -7.061,-0.912 -10.063,-2.51 -3.052,-10.341 -0.568,-21.445 10.19,-26.055 6.214,-3.107 12.812,-3.508 19.318,-1.929 1.281,2.749 2.015,5.803 2.015,9.034 C 21.46,-9.607 11.853,0 0,0"
         inkscape:connector-curvature="0" /></g><g
       transform="matrix(0.61581915,0,0,-0.61581915,363.60111,368.14394)"
       id="g1749"><path
         id="path1747"
         style="fill:#009245;fill-opacity:1;fill-rule:nonzero;stroke:none"
         d="m 0,0 c -10.758,4.61 -13.242,15.715 -10.189,26.056 -6.779,-3.608 -11.398,-10.737 -11.398,-18.951 0,-11.851 9.608,-21.459 21.46,-21.459 8.62,0 16.033,5.093 19.445,12.425 C 12.813,-3.508 6.214,-3.106 0,0"
         inkscape:connector-curvature="0" /></g></g><g
     transform="translate(216.72624,179.77292)"
     id="g1767"><g
       transform="matrix(0.61581915,0,0,-0.61581915,350.91665,421.83511)"
       id="g1755"><path
         id="path1753"
         style="fill:#8cc63f;fill-opacity:1;fill-rule:nonzero;stroke:none"
         d="m 0,0 c 0,-1.736 -6.314,-3.144 -14.104,-3.144 -7.79,0 -14.104,1.408 -14.104,3.144 0,1.737 6.314,3.145 14.104,3.145 C -6.314,3.145 0,1.737 0,0"
         inkscape:connector-curvature="0" /></g><path
       id="path1757"
       style="fill:#603813;fill-opacity:1;fill-rule:nonzero;stroke:none;stroke-width:0.61581916"
       d="m 343.04913,421.83518 h -1.63624 v -7.01111 h 1.63624 z"
       inkscape:connector-curvature="0" /><g
       transform="matrix(0.61581915,0,0,-0.61581915,342.23083,397.66181)"
       id="g1761"><path
         id="path1759"
         style="fill:#33a86a;fill-opacity:1;fill-rule:nonzero;stroke:none"
         d="M 0,0 C -2.567,0 -4.983,-0.645 -7.102,-1.771 -9.256,-9.07 -7.503,-16.907 0.09,-20.16 c 4.385,-2.194 9.043,-2.476 13.634,-1.362 0.903,1.94 1.422,4.095 1.422,6.376 C 15.146,-6.781 8.365,0 0,0"
         inkscape:connector-curvature="0" /></g><g
       transform="matrix(0.61581915,0,0,-0.61581915,342.28619,410.07679)"
       id="g1765"><path
         id="path1763"
         style="fill:#009245;fill-opacity:1;fill-rule:nonzero;stroke:none"
         d="m 0,0 c -7.593,3.253 -9.346,11.09 -7.191,18.389 -4.785,-2.546 -8.044,-7.577 -8.044,-13.374 0,-8.366 6.781,-15.146 15.145,-15.146 6.084,0 11.316,3.595 13.724,8.769 C 9.043,-2.476 4.385,-2.193 0,0"
         inkscape:connector-curvature="0" /></g></g><g
     transform="translate(50.935664,214.72876)"
     id="g1783"><g
       transform="matrix(0.61581915,0,0,-0.61581915,350.91665,421.83511)"
       id="g1771"><path
         id="path1769"
         style="fill:#8cc63f;fill-opacity:1;fill-rule:nonzero;stroke:none"
         d="m 0,0 c 0,-1.736 -6.314,-3.144 -14.104,-3.144 -7.79,0 -14.104,1.408 -14.104,3.144 0,1.737 6.314,3.145 14.104,3.145 C -6.314,3.145 0,1.737 0,0"
         inkscape:connector-curvature="0" /></g><path
       id="path1773"
       style="fill:#603813;fill-opacity:1;fill-rule:nonzero;stroke:none;stroke-width:0.61581916"
       d="m 343.04913,421.83518 h -1.63624 v -7.01111 h 1.63624 z"
       inkscape:connector-curvature="0" /><g
       transform="matrix(0.61581915,0,0,-0.61581915,342.23083,397.66181)"
       id="g1777"><path
         id="path1775"
         style="fill:#33a86a;fill-opacity:1;fill-rule:nonzero;stroke:none"
         d="M 0,0 C -2.567,0 -4.983,-0.645 -7.102,-1.771 -9.256,-9.07 -7.503,-16.907 0.09,-20.16 c 4.385,-2.194 9.043,-2.476 13.634,-1.362 0.903,1.94 1.422,4.095 1.422,6.376 C 15.146,-6.781 8.365,0 0,0"
         inkscape:connector-curvature="0" /></g><g
       transform="matrix(0.61581915,0,0,-0.61581915,342.28619,410.07679)"
       id="g1781"><path
         id="path1779"
         style="fill:#009245;fill-opacity:1;fill-rule:nonzero;stroke:none"
         d="m 0,0 c -7.593,3.253 -9.346,11.09 -7.191,18.389 -4.785,-2.546 -8.044,-7.577 -8.044,-13.374 0,-8.366 6.781,-15.146 15.145,-15.146 6.084,0 11.316,3.595 13.724,8.769 C 9.043,-2.476 4.385,-2.193 0,0"
         inkscape:connector-curvature="0" /></g></g><g
     transform="translate(395.50042,207.73759)"
     id="g1799"><g
       transform="matrix(0.61581915,0,0,-0.61581915,229.87573,442.03928)"
       id="g1787"><path
         id="path1785"
         style="fill:#8cc63f;fill-opacity:1;fill-rule:nonzero;stroke:none"
         d="m 0,0 c 0,-1.736 -6.314,-3.145 -14.104,-3.145 -7.789,0 -14.104,1.409 -14.104,3.145 0,1.736 6.315,3.144 14.104,3.144 C -6.314,3.144 0,1.736 0,0"
         inkscape:connector-curvature="0" /></g><path
       id="path1789"
       style="fill:#603813;fill-opacity:1;fill-rule:nonzero;stroke:none;stroke-width:0.61581916"
       d="m 222.89296,442.03897 h -2.31856 v -9.93316 h 2.31856 z"
       inkscape:connector-curvature="0" /><g
       transform="matrix(0.61581915,0,0,-0.61581915,221.73355,407.78853)"
       id="g1793"><path
         id="path1791"
         style="fill:#33a86a;fill-opacity:1;fill-rule:nonzero;stroke:none"
         d="m 0,0 c -3.638,0 -7.061,-0.912 -10.063,-2.51 -3.052,-10.341 -0.568,-21.445 10.19,-26.055 6.213,-3.107 12.813,-3.508 19.319,-1.929 1.279,2.749 2.014,5.802 2.014,9.034 C 21.46,-9.607 11.852,0 0,0"
         inkscape:connector-curvature="0" /></g><g
       transform="matrix(0.61581915,0,0,-0.61581915,221.81176,425.37965)"
       id="g1797"><path
         id="path1795"
         style="fill:#009245;fill-opacity:1;fill-rule:nonzero;stroke:none"
         d="m 0,0 c -10.758,4.61 -13.242,15.715 -10.19,26.056 -6.778,-3.608 -11.397,-10.737 -11.397,-18.951 0,-11.851 9.608,-21.459 21.46,-21.459 8.62,0 16.033,5.093 19.446,12.425 C 12.813,-3.508 6.213,-3.106 0,0"
         inkscape:connector-curvature="0" /></g></g><g
     id="g1815"
     transform="translate(-1.997475,162.79436)"><g
       id="g1803"
       transform="matrix(0.61581915,0,0,-0.61581915,229.87573,442.03928)"><path
         inkscape:connector-curvature="0"
         d="m 0,0 c 0,-1.736 -6.314,-3.145 -14.104,-3.145 -7.789,0 -14.104,1.409 -14.104,3.145 0,1.736 6.315,3.144 14.104,3.144 C -6.314,3.144 0,1.736 0,0"
         style="fill:#8cc63f;fill-opacity:1;fill-rule:nonzero;stroke:none"
         id="path1801" /></g><path
       inkscape:connector-curvature="0"
       d="m 222.89296,442.03897 h -2.31856 v -9.93316 h 2.31856 z"
       style="fill:#603813;fill-opacity:1;fill-rule:nonzero;stroke:none;stroke-width:0.61581916"
       id="path1805" /><g
       id="g1809"
       transform="matrix(0.61581915,0,0,-0.61581915,221.73355,407.78853)"><path
         inkscape:connector-curvature="0"
         d="m 0,0 c -3.638,0 -7.061,-0.912 -10.063,-2.51 -3.052,-10.341 -0.568,-21.445 10.19,-26.055 6.213,-3.107 12.813,-3.508 19.319,-1.929 1.279,2.749 2.014,5.802 2.014,9.034 C 21.46,-9.607 11.852,0 0,0"
         style="fill:#33a86a;fill-opacity:1;fill-rule:nonzero;stroke:none"
         id="path1807" /></g><g
       id="g1813"
       transform="matrix(0.61581915,0,0,-0.61581915,221.81176,425.37965)"><path
         inkscape:connector-curvature="0"
         d="m 0,0 c -10.758,4.61 -13.242,15.715 -10.19,26.056 -6.778,-3.608 -11.397,-10.737 -11.397,-18.951 0,-11.851 9.608,-21.459 21.46,-21.459 8.62,0 16.033,5.093 19.446,12.425 C 12.813,-3.508 6.213,-3.106 0,0"
         style="fill:#009245;fill-opacity:1;fill-rule:nonzero;stroke:none"
         id="path1811" /></g></g><g
     transform="translate(-191.75778,227.71236)"
     id="g1831"><g
       transform="matrix(0.61581915,0,0,-0.61581915,350.91665,421.83511)"
       id="g1819"><path
         id="path1817"
         style="fill:#8cc63f;fill-opacity:1;fill-rule:nonzero;stroke:none"
         d="m 0,0 c 0,-1.736 -6.314,-3.144 -14.104,-3.144 -7.79,0 -14.104,1.408 -14.104,3.144 0,1.737 6.314,3.145 14.104,3.145 C -6.314,3.145 0,1.737 0,0"
         inkscape:connector-curvature="0" /></g><path
       id="path1821"
       style="fill:#603813;fill-opacity:1;fill-rule:nonzero;stroke:none;stroke-width:0.61581916"
       d="m 343.04913,421.83518 h -1.63624 v -7.01111 h 1.63624 z"
       inkscape:connector-curvature="0" /><g
       transform="matrix(0.61581915,0,0,-0.61581915,342.23083,397.66181)"
       id="g1825"><path
         id="path1823"
         style="fill:#33a86a;fill-opacity:1;fill-rule:nonzero;stroke:none"
         d="M 0,0 C -2.567,0 -4.983,-0.645 -7.102,-1.771 -9.256,-9.07 -7.503,-16.907 0.09,-20.16 c 4.385,-2.194 9.043,-2.476 13.634,-1.362 0.903,1.94 1.422,4.095 1.422,6.376 C 15.146,-6.781 8.365,0 0,0"
         inkscape:connector-curvature="0" /></g><g
       transform="matrix(0.61581915,0,0,-0.61581915,342.28619,410.07679)"
       id="g1829"><path
         id="path1827"
         style="fill:#009245;fill-opacity:1;fill-rule:nonzero;stroke:none"
         d="m 0,0 c -7.593,3.253 -9.346,11.09 -7.191,18.389 -4.785,-2.546 -8.044,-7.577 -8.044,-13.374 0,-8.366 6.781,-15.146 15.145,-15.146 6.084,0 11.316,3.595 13.724,8.769 C 9.043,-2.476 4.385,-2.193 0,0"
         inkscape:connector-curvature="0" /></g></g></svg>