<?xml version="1.0" encoding="UTF-8" standalone="no"?>
<svg
   xmlns:dc="http://purl.org/dc/elements/1.1/"
   xmlns:cc="http://creativecommons.org/ns#"
   xmlns:rdf="http://www.w3.org/1999/02/22-rdf-syntax-ns#"
   xmlns:svg="http://www.w3.org/2000/svg"
   xmlns="http://www.w3.org/2000/svg"
   xmlns:sodipodi="http://sodipodi.sourceforge.net/DTD/sodipodi-0.dtd"
   xmlns:inkscape="http://www.inkscape.org/namespaces/inkscape"
   height="512pt"
   version="1.1"
   viewBox="0 0 512 512"
   width="512pt"
   id="svg41"
   sodipodi:docname="1.svg"
   inkscape:version="0.92.3 (2405546, 2018-03-11)">
  <metadata
     id="metadata47">
    <rdf:RDF>
      <cc:Work
         rdf:about="">
        <dc:format>image/svg+xml</dc:format>
        <dc:type
           rdf:resource="http://purl.org/dc/dcmitype/StillImage" />
      </cc:Work>
    </rdf:RDF>
  </metadata>
  <defs
     id="defs45" />
  <sodipodi:namedview
     pagecolor="#ffffff"
     bordercolor="#666666"
     borderopacity="1"
     objecttolerance="10"
     gridtolerance="10"
     guidetolerance="10"
     inkscape:pageopacity="0"
     inkscape:pageshadow="2"
     inkscape:window-width="1853"
     inkscape:window-height="1025"
     id="namedview43"
     showgrid="false"
     inkscape:zoom="0.9777961"
     inkscape:cx="325.83311"
     inkscape:cy="337.53145"
     inkscape:window-x="67"
     inkscape:window-y="27"
     inkscape:window-maximized="1"
     inkscape:current-layer="svg41" />
  <path
     inkscape:connector-curvature="0"
     id="path2"
     style="fill:#7df8ff;fill-opacity:1;fill-rule:nonzero;stroke:none"
     d="M 247.17187,300.13672 H 459.03516 V 88.277344 c 0.0664,116.937496 -94.67579,211.792966 -211.61719,211.859376 -0.082,0 -0.16406,0 -0.2461,0 z m 0,0" />
  <path
     inkscape:connector-curvature="0"
     id="path4"
     style="fill:#a1fbff;fill-opacity:1;fill-rule:nonzero;stroke:none"
     d="M 52.964844,0 V 300.13672 H 247.17187 c 116.94141,0.0703 211.79297,-94.67188 211.86329,-211.613282 0,-0.08203 0,-0.167969 0,-0.25 V 0 Z m 0,0" />
  <path
     inkscape:connector-curvature="0"
     id="path6"
     style="fill:#444449;fill-opacity:1;fill-rule:nonzero;stroke:none"
     d="m 476.69141,300.13672 c 19.5,0 35.30859,-15.8086 35.30859,-35.3086 V 35.308594 C 512,15.808594 496.19141,0 476.69141,0 h -17.65625 v 300.13672 z m 0,0" />
  <path
     inkscape:connector-curvature="0"
     id="path8"
     style="fill:#444449;fill-opacity:1;fill-rule:nonzero;stroke:none"
     d="M 52.964844,0 H 35.308594 C 15.808594,0 0,15.808594 0,35.308594 V 264.82812 c 0,19.5 15.808594,35.3086 35.308594,35.3086 h 17.65625 z m 0,0" />
  <path
     inkscape:connector-curvature="0"
     id="path10"
     style="fill:#0c63ce;fill-opacity:1;fill-rule:nonzero;stroke:none"
     d="M 211.86328,512 H 370.75781 V 459.03516 H 211.86328 Z m 0,0" />
  <path
     inkscape:connector-curvature="0"
     id="path12"
     style="fill:#ff876d;fill-opacity:1;fill-rule:nonzero;stroke:none"
     d="M 167.72266,229.51562 H 344.27734 V 114.75781 H 167.72266 Z m 0,0" />
  <path
     inkscape:connector-curvature="0"
     id="path14"
     style="fill:#ff643b;fill-opacity:1;fill-rule:nonzero;stroke:none"
     d="M 256,26.480469 132.41406,114.75781 h 247.17188 z m 0,0" />
  <path
     inkscape:connector-curvature="0"
     id="path16"
     style="fill:#4f443d;fill-opacity:1;fill-rule:nonzero;stroke:none"
     d="m 220.69141,150.07031 h 70.61718 v 79.44531 h -70.61718 z m 0,0" />
  <path
     inkscape:connector-curvature="0"
     id="path18"
     style="fill:#eec7a2;fill-opacity:1;fill-rule:nonzero;stroke:none"
     d="m 379.58594,300.13672 v 64.53125 c -0.0156,27.83203 -6.60938,55.26562 -19.2461,80.0664 l -7.23828,14.30079 H 229.51562 l -6.62109,-12.71094 c -13.06641,-25.14063 -19.87891,-53.0586 -19.85937,-81.39063 v -47.14062 c 0.0273,-9.73828 7.91406,-17.625 17.65234,-17.65625 h 17.65625 V 186.35156 c -0.17969,-9.38281 6.75391,-17.38281 16.06641,-18.53906 9.76562,-0.82813 18.35156,6.41406 19.17968,16.17969 0.0391,0.46093 0.0625,0.92187 0.0664,1.38672 v 88.27734 c 0.0273,-9.74219 7.91406,-17.62891 17.65234,-17.65625 9.72266,0.0703 17.58594,7.93359 17.65625,17.65625 v 8.82422 c 0.0274,-9.73828 7.91797,-17.625 17.65625,-17.65235 9.71875,0.0703 17.58203,7.9336 17.65235,17.65235 v 17.65625 c 0,-9.75 7.90625,-17.65625 17.65625,-17.65625 9.72265,0.0742 17.58203,7.9375 17.65625,17.65625 z m 0,0" />
  <path
     inkscape:connector-curvature="0"
     id="path20"
     style="fill:#bda788;fill-opacity:1;fill-rule:nonzero;stroke:none"
     d="m 353.10156,284.86719 v 50.58203 h -8.82422 v -35.3125 c 0.004,-6.30078 3.36719,-12.1211 8.82422,-15.26953 z m 0,0" />
  <path
     inkscape:connector-curvature="0"
     id="path22"
     style="fill:#bda788;fill-opacity:1;fill-rule:nonzero;stroke:none"
     d="m 317.79297,267.21094 v 50.58203 h -8.82813 v -35.3125 c 0.008,-6.30078 3.3711,-12.11719 8.82813,-15.26953 z m 0,0" />
  <path
     inkscape:connector-curvature="0"
     id="path24"
     style="fill:#bda788;fill-opacity:1;fill-rule:nonzero;stroke:none"
     d="m 282.48047,258.38281 v 50.58203 h -8.82422 v -35.30859 c 0.004,-6.30469 3.37109,-12.12109 8.82422,-15.27344 z m 0,0" />
  <path
     inkscape:connector-curvature="0"
     id="path26"
     style="fill:#bda788;fill-opacity:1;fill-rule:nonzero;stroke:none"
     d="m 229.51562,300.13672 h 8.82813 v 44.13672 h -8.82813 z m 0,0" />
  <path
     inkscape:connector-curvature="0"
     id="path28"
     style="fill:#f0f0f0;fill-opacity:1;fill-rule:nonzero;stroke:none"
     d="m 485.51562,185.37891 c -4.875,0 -8.82421,-3.95313 -8.82421,-8.82813 v -17.65234 c 0,-4.87891 3.94921,-8.82813 8.82421,-8.82813 4.875,0 8.82813,3.95313 8.82813,8.82813 v 17.65234 c 0,4.875 -3.95313,8.82813 -8.82813,8.82813 z m 0,0" />
  <path
     inkscape:connector-curvature="0"
     id="path30"
     style="fill:#f0f0f0;fill-opacity:1;fill-rule:nonzero;stroke:none"
     d="m 26.480469,176.55078 c -4.875,0 -8.824219,-3.95312 -8.824219,-8.82422 v -35.3125 c 0,-4.875 3.953125,-8.82812 8.824219,-8.82812 4.875,0 8.828125,3.95312 8.828125,8.82812 v 35.3125 c 0,4.8711 -3.949219,8.82422 -8.828125,8.82422 z m 0,0" />
  <path
     inkscape:connector-curvature="0"
     id="path32"
     style="fill:#f0f0f0;fill-opacity:1;fill-rule:nonzero;stroke:none"
     d="m 485.51562,141.24219 c -4.875,0 -8.82421,-3.95313 -8.82421,-8.82813 v -8.82812 c 0,-4.875 3.94921,-8.82422 8.82421,-8.82422 4.875,0 8.82813,3.94922 8.82813,8.82422 v 8.82812 c 0,4.875 -3.95313,8.82813 -8.82813,8.82813 z m 0,0" />
  <path
     inkscape:connector-curvature="0"
     id="path34"
     style="fill:#7df8ff;fill-opacity:1;fill-rule:nonzero;stroke:none"
     d="M 432.55078,70.621094 H 414.89453 V 44.136719 h -26.48047 v -17.65625 h 44.13672 z m 0,0" />
  <path
     inkscape:connector-curvature="0"
     id="path36"
     style="fill:#7df8ff;fill-opacity:1;fill-rule:nonzero;stroke:none"
     d="M 97.101562,70.621094 H 79.449219 V 26.480469 h 44.136721 v 17.65625 H 97.101562 Z m 0,0" />
  <path
     inkscape:connector-curvature="0"
     id="path38"
     style="fill:#f0f0f0;fill-opacity:1;fill-rule:nonzero;stroke:none"
     d="m 344.27734,494.34375 h -17.65625 c -4.875,0 -8.82812,-3.95313 -8.82812,-8.82422 0,-4.87891 3.95312,-8.82812 8.82812,-8.82812 h 17.65625 c 4.875,0 8.82422,3.95312 8.82422,8.82812 0,4.87109 -3.94922,8.82422 -8.82422,8.82422 z m 0,0" />
</svg>
