<?xml version="1.0" encoding="iso-8859-1"?>
<!-- Generator: Adobe Illustrator 19.0.0, SVG Export Plug-In . SVG Version: 6.00 Build 0)  -->
<svg version="1.1" id="Capa_1" xmlns="http://www.w3.org/2000/svg" xmlns:xlink="http://www.w3.org/1999/xlink" x="0px" y="0px"
	 viewBox="0 0 512 512" style="enable-background:new 0 0 512 512;" xml:space="preserve">
<path style="fill:#E6F1FF;" d="M444.856,269.697v193.554H67.149V269.697c0-8.281,6.721-15.003,15.003-15.003h347.701
	C438.135,254.695,444.856,261.416,444.856,269.697z"/>
<path style="fill:#BBDCFF;" d="M444.856,269.697v193.554H257.663V254.695h172.19C438.135,254.695,444.856,261.416,444.856,269.697z"
	/>
<g>
	<path style="fill:#00A5FF;" d="M246.401,269.697v118.401c0,13.712-11.162,24.874-24.874,24.874h-76.914
		c-13.712,0-24.874-11.162-24.874-24.874V269.697c0-8.281,6.721-15.003,15.003-15.003h96.657
		C239.68,254.695,246.401,261.416,246.401,269.697z"/>
	<path style="fill:#00A5FF;" d="M395.527,269.697v118.401c0,13.712-11.152,24.874-24.874,24.874h-76.904
		c-9.592,0-17.933-5.451-22.064-13.422c-1.8-3.431-2.811-7.321-2.811-11.452V269.697c0-8.281,6.711-15.003,15.003-15.003h96.647
		C388.816,254.695,395.527,261.416,395.527,269.697z"/>
</g>
<g>
	<path style="fill:#83C9FF;" d="M395.527,295.282v92.816c0,13.712-11.152,24.874-24.874,24.874h-76.904
		c-9.592,0-17.933-5.451-22.064-13.422c-1.8-3.431-2.811-7.321-2.811-11.452v-21.404L395.527,295.282z"/>
	<path style="fill:#83C9FF;" d="M246.401,282.05v106.049c0,13.712-11.162,24.874-24.874,24.874h-76.914
		c-13.712,0-24.874-11.162-24.874-24.874v-39.137L246.401,282.05z"/>
</g>
<path style="fill:#FF3D63;" d="M469.03,15.003v243.273c0,14.573-11.862,26.425-26.425,26.425H70.76
	c-14.573,0-26.425-11.852-26.425-26.425V15.003C44.335,6.721,51.046,0,59.338,0h394.689C462.309,0,469.03,6.721,469.03,15.003z"/>
<path style="fill:#C10019;" d="M476.179,30.005H35.822c-8.285,0-15.003-6.717-15.003-15.003S27.536,0,35.822,0h440.356
	c8.285,0,15.003,6.717,15.003,15.003S484.465,30.005,476.179,30.005z"/>
<g>
	<rect x="44.338" y="193.004" style="fill:#E70020;" width="424.695" height="30.005"/>
	<rect x="44.338" y="130.433" style="fill:#E70020;" width="424.695" height="30.005"/>
	<rect x="44.338" y="65.752" style="fill:#E70020;" width="424.695" height="30.005"/>
</g>
<path style="fill:#7A7780;" d="M475.531,472.033v1.19c0,21.384-17.403,38.777-38.787,38.777H75.251
	c-21.384,0-38.777-17.393-38.777-38.777v-1.19c0-21.384,17.393-38.787,38.777-38.787h361.494
	C458.128,433.246,475.531,450.649,475.531,472.033z"/>
<path style="fill:#57555C;" d="M475.531,472.033v1.19c0,21.384-17.403,38.777-38.787,38.777H257.663v-78.754h179.081
	C458.128,433.246,475.531,450.649,475.531,472.033z"/>
<g>
</g>
<g>
</g>
<g>
</g>
<g>
</g>
<g>
</g>
<g>
</g>
<g>
</g>
<g>
</g>
<g>
</g>
<g>
</g>
<g>
</g>
<g>
</g>
<g>
</g>
<g>
</g>
<g>
</g>
</svg>
