<svg height="512pt" viewBox="0 -4 512 511" width="512pt" xmlns="http://www.w3.org/2000/svg"><path d="m486.398438 17.566406v477.867188h-34.132813v-452.265625c0-4.714844-3.820313-8.535157-8.53125-8.535157h-375.46875c-4.710937 0-8.53125 3.820313-8.53125 8.535157v452.265625h-34.132813v-477.867188c.027344-9.414062 7.652344-17.039062 17.066407-17.066406h426.664062c9.414063.027344 17.039063 7.652344 17.066407 17.066406zm0 0" fill="#556080"/><path d="m51.199219 17.566406h409.601562c4.710938 0 8.53125 3.820313 8.53125 8.535156v460.796876h-426.664062v-460.796876c0-4.714843 3.820312-8.535156 8.53125-8.535156zm0 0" fill="#2c3e50"/><path d="m452.265625 43.167969v51.199219h-392.53125v-51.199219c0-4.714844 3.820313-8.535157 8.53125-8.535157h375.46875c4.710937 0 8.53125 3.820313 8.53125 8.535157zm0 0" fill="#c03a2b"/><path d="m59.734375 94.367188h392.53125v68.265624h-392.53125zm0 0" fill="#c03a2b"/><path d="m59.734375 77.300781h392.53125v17.066407h-392.53125zm0 0" fill="#802f34"/><path d="m59.734375 94.367188h392.53125v17.066406h-392.53125zm0 0" fill="#e64c3c"/><path d="m59.734375 145.566406h392.53125v17.066406h-392.53125zm0 0" fill="#802f34"/><path d="m59.734375 162.632812h392.53125v68.265626h-392.53125zm0 0" fill="#c03a2b"/><path d="m59.734375 162.632812h392.53125v17.066407h-392.53125zm0 0" fill="#e64c3c"/><path d="m59.734375 213.832031h392.53125v17.066407h-392.53125zm0 0" fill="#802f34"/><path d="m59.734375 230.898438h392.53125v68.269531h-392.53125zm0 0" fill="#c03a2b"/><path d="m59.734375 230.898438h392.53125v17.066406h-392.53125zm0 0" fill="#e64c3c"/><path d="m59.734375 282.101562h392.53125v17.066407h-392.53125zm0 0" fill="#802f34"/><path d="m59.734375 299.167969h392.53125v68.265625h-392.53125zm0 0" fill="#c03a2b"/><path d="m59.734375 299.167969h392.53125v17.066406h-392.53125zm0 0" fill="#e64c3c"/><path d="m59.734375 350.367188h392.53125v17.066406h-392.53125zm0 0" fill="#802f34"/><path d="m59.734375 367.433594h392.53125v68.265625h-392.53125zm0 0" fill="#c03a2b"/><path d="m59.734375 367.433594h392.53125v17.066406h-392.53125zm0 0" fill="#e64c3c"/><path d="m59.734375 418.632812h392.53125v17.066407h-392.53125zm0 0" fill="#802f34"/><path d="m59.734375 435.699219h392.53125v68.265625h-392.53125zm0 0" fill="#c03a2b"/><path d="m59.734375 435.699219h392.53125v17.066406h-392.53125zm0 0" fill="#e64c3c"/><path d="m221.867188 333.300781h85.332031c9.425781 0 17.066406 7.640625 17.066406 17.066407v25.597656c0 9.425781-7.640625 17.070312-17.066406 17.070312h-85.332031c-9.425782 0-17.066407-7.644531-17.066407-17.070312v-25.597656c0-9.425782 7.640625-17.066407 17.066407-17.066407zm0 0" fill="#802f34"/><path d="m307.199219 358.898438v8.535156c0 4.710937-3.820313 8.53125-8.53125 8.53125h-68.269531c-4.710938 0-8.53125-3.820313-8.53125-8.53125v-8.535156c0-4.710938 3.820312-8.53125 8.53125-8.53125h68.269531c4.710937 0 8.53125 3.820312 8.53125 8.53125zm0 0" fill="#bdc3c7"/><path d="m238.933594 350.367188h51.199218v25.597656h-51.199218zm0 0" fill="#ecf0f1"/><path d="m503.464844 503.964844h-494.929688c-4.714844 0-8.535156-3.820313-8.535156-8.53125 0-4.714844 3.820312-8.535156 8.535156-8.535156h494.929688c4.714844 0 8.535156 3.820312 8.535156 8.535156 0 4.710937-3.820312 8.53125-8.535156 8.53125zm0 0" fill="#2c3e50"/></svg>