<?xml version="1.0" encoding="UTF-8" standalone="no"?>
<svg
   xmlns:dc="http://purl.org/dc/elements/1.1/"
   xmlns:cc="http://creativecommons.org/ns#"
   xmlns:rdf="http://www.w3.org/1999/02/22-rdf-syntax-ns#"
   xmlns:svg="http://www.w3.org/2000/svg"
   xmlns="http://www.w3.org/2000/svg"
   id="svg8"
   version="1.1"
   viewBox="0 0 12.7 12.7"
   height="48"
   width="48">
  <defs
     id="defs2" />
  <metadata
     id="metadata5">
    <rdf:RDF>
      <cc:Work
         rdf:about="">
        <dc:format>image/svg+xml</dc:format>
        <dc:type
           rdf:resource="http://purl.org/dc/dcmitype/StillImage" />
        <dc:title></dc:title>
      </cc:Work>
    </rdf:RDF>
  </metadata>
  <g
     transform="translate(0,-284.3)"
     id="layer1">
    <path
       id="path815"
       transform="matrix(0.26458333,0,0,0.26458333,0,284.3)"
       d="M 24 -0.017578125 A 24.017856 24.017856 0 0 0 -0.017578125 24 A 24.017856 24.017856 0 0 0 24 48.017578 A 24.017856 24.017856 0 0 0 48.017578 24 A 24.017856 24.017856 0 0 0 24 -0.017578125 z M 24 9.8027344 A 14.017856 14.196427 0 0 1 38.017578 24 A 14.017856 14.196427 0 0 1 24 38.197266 A 14.017856 14.196427 0 0 1 9.9824219 24 A 14.017856 14.196427 0 0 1 24 9.8027344 z "
       style="fill:#a20000;fill-opacity:1;stroke:none;stroke-width:5.30000019;stroke-miterlimit:4;stroke-dasharray:none;stroke-opacity:1" />
  </g>
</svg>
