<?xml version="1.0" encoding="UTF-8" standalone="no"?>
<!-- Generator: Adobe Illustrator 16.0.0, SVG Export Plug-In . SVG Version: 6.00 Build 0)  -->

<svg
   xmlns:dc="http://purl.org/dc/elements/1.1/"
   xmlns:cc="http://creativecommons.org/ns#"
   xmlns:rdf="http://www.w3.org/1999/02/22-rdf-syntax-ns#"
   xmlns:svg="http://www.w3.org/2000/svg"
   xmlns="http://www.w3.org/2000/svg"
   xmlns:sodipodi="http://sodipodi.sourceforge.net/DTD/sodipodi-0.dtd"
   xmlns:inkscape="http://www.inkscape.org/namespaces/inkscape"
   version="1.1"
   id="Capa_1"
   x="0px"
   y="0px"
   width="470.5px"
   height="470.5px"
   viewBox="0 0 470.5 470.5"
   style="enable-background:new 0 0 470.5 470.5;"
   xml:space="preserve"
   sodipodi:docname="light.svg"
   inkscape:version="0.92.3 (2405546, 2018-03-11)"><metadata
   id="metadata41"><rdf:RDF><cc:Work
       rdf:about=""><dc:format>image/svg+xml</dc:format><dc:type
         rdf:resource="http://purl.org/dc/dcmitype/StillImage" /></cc:Work></rdf:RDF></metadata><defs
   id="defs39" /><sodipodi:namedview
   pagecolor="#ffffff"
   bordercolor="#666666"
   borderopacity="1"
   objecttolerance="10"
   gridtolerance="10"
   guidetolerance="10"
   inkscape:pageopacity="0"
   inkscape:pageshadow="2"
   inkscape:window-width="1853"
   inkscape:window-height="1025"
   id="namedview37"
   showgrid="false"
   inkscape:zoom="0.50159405"
   inkscape:cx="-467.50953"
   inkscape:cy="235.25"
   inkscape:window-x="67"
   inkscape:window-y="27"
   inkscape:window-maximized="1"
   inkscape:current-layer="Capa_1" />

<path
   style="fill:#ffee3b;fill-opacity:1;fill-rule:nonzero;stroke:none;stroke-width:2;stroke-linecap:round;stroke-linejoin:round;stroke-miterlimit:10;stroke-dasharray:none;stroke-opacity:1"
   d="M 3.9863281 223.28906 L 3.9863281 247.21094 L 92.285156 247.21094 A 143.54237 143.54237 0 0 1 91.707031 235.25 A 143.54237 143.54237 0 0 1 92.304688 223.28906 L 3.9863281 223.28906 z M 378.21484 223.28906 A 143.54237 143.54237 0 0 1 378.79297 235.25 A 143.54237 143.54237 0 0 1 378.19531 247.21094 L 466.51367 247.21094 L 466.51367 223.28906 L 378.21484 223.28906 z "
   id="rect837" /><path
   style="fill:#ffee3b;fill-opacity:1;fill-rule:nonzero;stroke:none;stroke-width:2;stroke-linecap:round;stroke-linejoin:round;stroke-miterlimit:10;stroke-dasharray:none;stroke-opacity:1"
   d="M 223.28906 3.9863281 L 223.28906 92.285156 A 143.54237 143.54237 0 0 1 235.25 91.707031 A 143.54237 143.54237 0 0 1 247.21094 92.304688 L 247.21094 3.9863281 L 223.28906 3.9863281 z M 223.28906 378.19531 L 223.28906 466.51367 L 247.21094 466.51367 L 247.21094 378.21484 A 143.54237 143.54237 0 0 1 235.25 378.79297 A 143.54237 143.54237 0 0 1 223.28906 378.19531 z "
   id="rect837-3" /><path
   style="fill:#ffee3b;fill-opacity:1;fill-rule:nonzero;stroke:none;stroke-width:2;stroke-linecap:round;stroke-linejoin:round;stroke-miterlimit:10;stroke-dasharray:none;stroke-opacity:1"
   d="M 80.181641 63.263672 L 63.263672 80.181641 L 125.6543 142.57227 A 143.54237 143.54237 0 0 1 142.67188 125.75391 L 80.181641 63.263672 z M 344.8457 327.92773 A 143.54237 143.54237 0 0 1 327.82812 344.74609 L 390.31836 407.23633 L 407.23633 390.31836 L 344.8457 327.92773 z "
   id="rect837-6" /><path
   style="fill:#ffee3b;fill-opacity:1;fill-rule:nonzero;stroke:none;stroke-width:2;stroke-linecap:round;stroke-linejoin:round;stroke-miterlimit:10;stroke-dasharray:none;stroke-opacity:1"
   d="M 390.31836 63.263672 L 327.92773 125.6543 A 143.54237 143.54237 0 0 1 344.74609 142.67188 L 407.23633 80.181641 L 390.31836 63.263672 z M 125.75391 327.82812 L 63.263672 390.31836 L 80.181641 407.23633 L 142.57227 344.8457 A 143.54237 143.54237 0 0 1 125.75391 327.82812 z "
   id="rect837-7" /><g
   id="g6">
</g>
<g
   id="g8">
</g>
<g
   id="g10">
</g>
<g
   id="g12">
</g>
<g
   id="g14">
</g>
<g
   id="g16">
</g>
<g
   id="g18">
</g>
<g
   id="g20">
</g>
<g
   id="g22">
</g>
<g
   id="g24">
</g>
<g
   id="g26">
</g>
<g
   id="g28">
</g>
<g
   id="g30">
</g>
<g
   id="g32">
</g>
<g
   id="g34">
</g>
<path
   style="fill:#ffee3b;fill-opacity:1;fill-rule:nonzero;stroke:none;stroke-width:2.18181825;stroke-linecap:round;stroke-linejoin:round;stroke-miterlimit:10;stroke-dasharray:none;stroke-opacity:1"
   d="M 354.86864,235.25 A 119.61864,119.61864 0 0 1 235.25,354.86864 119.61864,119.61864 0 0 1 115.63135,235.25 119.61864,119.61864 0 0 1 235.25,115.63135 119.61864,119.61864 0 0 1 354.86864,235.25 Z"
   id="path835"
   inkscape:connector-curvature="0" /></svg>