<?xml version="1.0" encoding="UTF-8" standalone="no"?>
<svg
   xmlns:dc="http://purl.org/dc/elements/1.1/"
   xmlns:cc="http://creativecommons.org/ns#"
   xmlns:rdf="http://www.w3.org/1999/02/22-rdf-syntax-ns#"
   xmlns:svg="http://www.w3.org/2000/svg"
   xmlns="http://www.w3.org/2000/svg"
   xmlns:sodipodi="http://sodipodi.sourceforge.net/DTD/sodipodi-0.dtd"
   xmlns:inkscape="http://www.inkscape.org/namespaces/inkscape"
   xml:space="preserve"
   style="enable-background:new 0 0 512 512;"
   viewBox="0 0 512 512"
   y="0px"
   x="0px"
   id="Capa_1"
   version="1.1"
   sodipodi:docname="window_on.svg"
   inkscape:version="0.92.3 (2405546, 2018-03-11)"><sodipodi:namedview
   pagecolor="#ffffff"
   bordercolor="#666666"
   borderopacity="1"
   objecttolerance="10"
   gridtolerance="10"
   guidetolerance="10"
   inkscape:pageopacity="0"
   inkscape:pageshadow="2"
   inkscape:window-width="1853"
   inkscape:window-height="1025"
   id="namedview40"
   showgrid="false"
   inkscape:zoom="0.921875"
   inkscape:cx="256.3175"
   inkscape:cy="179.67867"
   inkscape:window-x="67"
   inkscape:window-y="27"
   inkscape:window-maximized="1"
   inkscape:current-layer="Capa_1" /><metadata
   id="metadata69"><rdf:RDF><cc:Work
       rdf:about=""><dc:format>image/svg+xml</dc:format><dc:type
         rdf:resource="http://purl.org/dc/dcmitype/StillImage" /><dc:title /></cc:Work></rdf:RDF></metadata><defs
   id="defs67">
	
	

	
	

	
	

	
	
</defs>







<rect
   style="fill:#a0d4ff;fill-opacity:1;fill-rule:nonzero;stroke:none;stroke-width:2;stroke-linecap:round;stroke-linejoin:round;stroke-miterlimit:10;stroke-dasharray:none;stroke-opacity:1"
   id="rect4322"
   width="346.57626"
   height="398.64407"
   x="84.067795"
   y="39.59322"
   ry="0" /><path
   id="path30"
   d="M475.531,472.033v1.19c0,21.384-17.403,38.777-38.787,38.777H75.251  c-21.384,0-38.777-17.393-38.777-38.777v-1.19c0-21.384,17.393-38.787,38.777-38.787h361.494  C458.128,433.246,475.531,450.649,475.531,472.033z"
   style="fill:#7A7780;" />
<path
   id="path32"
   d="M475.531,472.033v1.19c0,21.384-17.403,38.777-38.787,38.777H257.663v-78.754h179.081  C458.128,433.246,475.531,450.649,475.531,472.033z"
   style="fill:#57555C;" />
<g
   id="g34">
</g>
<g
   id="g36">
</g>
<g
   id="g38">
</g>
<g
   id="g40">
</g>
<g
   id="g42">
</g>
<g
   id="g44">
</g>
<g
   id="g46">
</g>
<g
   id="g48">
</g>
<g
   id="g50">
</g>
<g
   id="g52">
</g>
<g
   id="g54">
</g>
<g
   id="g56">
</g>
<g
   id="g58">
</g>
<g
   id="g60">
</g>
<g
   id="g62">
</g>
<g
   id="g4311"><path
     style="fill:#bbdcff;fill-opacity:1;fill-rule:nonzero;stroke:none;stroke-width:34.14144516;stroke-linecap:round;stroke-linejoin:round;stroke-miterlimit:10;stroke-dasharray:none;stroke-opacity:1"
     d="M429.948389761 31.6360677204C429.948389761 31.6360677204 364.897063015 5.08479221644 364.897063015 5.08479221644C358.588487839 2.50989135113 353.39535 11.5515824785 353.39535 25.4156394745C353.39535 25.4156394745 353.39535 450.924169034 353.39535 450.924169034C353.39535 464.788229613 358.588487839 473.33919793 364.897063015 470.168178848C364.897063015 470.168178848 429.948389761 437.469987472 429.948389761 437.469987472C434.64336443 435.110048207 438.35179 423.900770235 438.35179 412.292560526C438.35179 412.292560526 438.35179 56.0194314738 438.35179 56.0194314738C438.35179 44.4112247653 434.64336443 33.552363239 429.948389761 31.6360677204C429.948389761 31.6360677204 429.948389761 31.6360677204 429.948389761 31.6360677204"
     id="rect912" /><g
     transform="translate(15.340622,-8.4373419)"
     id="g881"><path
       style="fill:#00a5ff"
       d="m 353.0845,277.3361 c 0,0 0,137.33956 0,137.33956 0,15.90527 5.83629,26.30234 12.83579,23.24372 0,0 35.87303,-15.67568 35.87303,-15.67568 4.11236,-1.79701 7.62887,-8.95408 9.35039,-17.87226 0.74601,-3.82137 1.16393,-7.97312 1.16393,-12.20526 0,0 0,-121.29988 0,-121.29988 0,-8.48375 -2.78884,-15.16137 -6.28303,-14.89957 0,0 -45.11952,3.38063 -45.11952,3.38063 -4.29228,0.32276 -7.82059,8.38317 -7.82059,17.98874 0,0 0,0 0,0"
       id="path8"
       inkscape:connector-curvature="0" /><path
       style="fill:#83c9ff"
       d="m 353.0845,307.01349 c 0,0 0,107.66217 0,107.66217 0,15.90527 5.83629,26.30234 12.83579,23.24372 0,0 35.87303,-15.67568 35.87303,-15.67568 4.11236,-1.79701 7.62887,-8.95408 9.35039,-17.87226 0.74601,-3.82137 1.16393,-7.97312 1.16393,-12.20526 0,0 0,-21.92805 0,-21.92805 0,0 -59.22314,-63.22464 -59.22314,-63.22464"
       id="path12"
       inkscape:connector-curvature="0" /></g><g
     transform="translate(15.340622,-8.4373419)"
     id="g863"><path
       id="path898"
       d="m 353.0845,62.913636 c 0,0 0,137.339554 0,137.339554 0,15.90528 5.83629,28.77018 12.83579,28.67125 0,0 35.87303,-0.50704 35.87303,-0.50704 4.11236,-0.0581 7.62887,-5.72826 9.35039,-13.91851 0.74601,-3.50593 1.16393,-7.48096 1.16393,-11.7131 0,0 0,-121.299887 0,-121.299887 0,-8.483749 -2.78884,-16.340612 -6.28303,-17.556297 0,0 -45.11952,-15.697829 -45.11952,-15.697829 -4.29228,-1.492204 -7.82059,5.07629 -7.82059,14.681859 0,0 0,0 0,0"
       style="fill:#00a5ff"
       inkscape:connector-curvature="0" /><path
       id="path902"
       d="m 353.0845,92.591025 c 0,0 0,107.662165 0,107.662165 0,15.90528 5.83629,28.77018 12.83579,28.67125 0,0 35.87303,-0.50704 35.87303,-0.50704 4.11236,-0.0581 7.62887,-5.72826 9.35039,-13.91851 0.74601,-3.50593 1.16393,-7.48096 1.16393,-11.7131 0,0 0,-21.92805 0,-21.92805 0,0 -59.22314,-88.266715 -59.22314,-88.266715"
       style="fill:#83c9ff"
       inkscape:connector-curvature="0" /></g></g><g
   id="g4320"><path
     style="fill:#e6f1ff;fill-opacity:1;fill-rule:nonzero;stroke:none;stroke-width:34.14144516;stroke-linecap:round;stroke-linejoin:round;stroke-miterlimit:10;stroke-dasharray:none;stroke-opacity:1"
     d="M85.2905124637 31.6360690552C85.2905124637 31.6360690552 150.341843624 5.08479331199 150.341843624 5.08479331199C156.650419105 2.50989247392 161.843557194 11.5515835639 161.843557194 25.4156404855C161.843557194 25.4156404855 161.843557194 450.924167758 161.843557194 450.924167758C161.843557194 464.788228263 156.650419105 473.339196548 150.341843624 470.168177499C150.341843624 470.168177499 85.2905124637 437.469985829 85.2905124637 437.469985829C80.5955387874 435.110047201 76.887115 423.900770235 76.887115 412.292560526C76.887115 412.292560526 76.887115 56.0194314738 76.887115 56.0194314738C76.887115 44.4112247653 80.5955387874 33.5523640558 85.2905124637 31.6360690552C85.2905124637 31.6360690552 85.2905124637 31.6360690552 85.2905124637 31.6360690552"
     id="rect891" /><g
     transform="translate(-15.340622,-8.4373419)"
     id="g877"><path
       style="fill:#00a5ff"
       d="m 162.66775,277.39218 c 0,0 0,137.47859 0,137.47859 0,15.92137 -5.85323,26.32415 -12.86146,23.26171 0,0 -35.94561,-15.7074 -35.94561,-15.7074 -5.8667,-2.56361 -10.53275,-16.04797 -10.53275,-30.10814 0,0 0,-121.40731 0,-121.40731 0,-8.49126 2.79799,-15.1743 6.29424,-14.91234 0,0 45.20979,3.3874 45.20979,3.3874 4.29513,0.32297 7.83579,8.3922 7.83579,18.00749 0,0 0,0 0,0"
       id="path6"
       inkscape:connector-curvature="0" /><path
       style="fill:#83c9ff"
       d="m 162.66775,291.73558 c 0,0 0,123.13635 0,123.13635 0,15.92137 -5.85323,26.32414 -12.86146,23.26169 0,0 -35.94561,-15.70749 -35.94561,-15.70749 -5.8667,-2.56362 -10.53275,-16.048 -10.53275,-30.10816 0,0 0,-40.13073 0,-40.13073 0,0 59.33982,-60.45166 59.33982,-60.45166"
       id="path14"
       inkscape:connector-curvature="0" /></g><g
     transform="translate(-15.340622,-8.4373419)"
     id="g859"><path
       id="path896"
       d="m 162.66775,62.752652 c 0,0 0,137.478588 0,137.478588 0,15.92137 -5.85323,28.79914 -12.86146,28.70009 0,0 -35.94561,-0.50806 -35.94561,-0.50806 -5.8667,-0.0829 -10.53275,-11.59429 -10.53275,-25.65445 0,0 0,-121.407312 0,-121.407312 0,-8.491263 2.79799,-16.357407 6.29424,-17.573811 0,0 45.20979,-15.729231 45.20979,-15.729231 4.29513,-1.493195 7.83579,5.078894 7.83579,14.694186 0,0 0,0 0,0"
       style="fill:#00a5ff"
       inkscape:connector-curvature="0" /><path
       id="path904"
       d="m 162.66775,77.096053 c 0,0 0,123.136347 0,123.136347 0,15.92138 -5.85323,28.79913 -12.86146,28.70006 0,0 -35.94561,-0.50814 -35.94561,-0.50814 -5.8667,-0.0829 -10.53275,-11.59431 -10.53275,-25.65447 0,0 0,-40.13073 0,-40.13073 0,0 59.33982,-85.543067 59.33982,-85.543067"
       style="fill:#83c9ff"
       inkscape:connector-curvature="0" /></g></g></svg>