<?xml version="1.0" encoding="UTF-8" standalone="no"?>
<svg
   xmlns:dc="http://purl.org/dc/elements/1.1/"
   xmlns:cc="http://creativecommons.org/ns#"
   xmlns:rdf="http://www.w3.org/1999/02/22-rdf-syntax-ns#"
   xmlns:svg="http://www.w3.org/2000/svg"
   xmlns="http://www.w3.org/2000/svg"
   xml:space="preserve"
   style="enable-background:new 0 0 512 512;"
   viewBox="0 0 512 512"
   y="0px"
   x="0px"
   id="Layer_1"
   version="1.1"><metadata
   id="metadata69"><rdf:RDF><cc:Work
       rdf:about=""><dc:format>image/svg+xml</dc:format><dc:type
         rdf:resource="http://purl.org/dc/dcmitype/StillImage" /><dc:title></dc:title></cc:Work></rdf:RDF></metadata><defs
   id="defs67" />
<path
   id="path2"
   d="m 256.48633,76.611328 c -2.63381,-0.0066 -5.28644,0.05611 -7.95313,0.189453 -75.734,3.2 -137.59942,67.198639 -139.73242,142.931639 -1.067,46.934 19.19863,88.53458 52.26563,116.26758 18.133,14.933 30.93398,34.1328 37.33398,55.4668 h 116.26758 c 6.4,-21.333 19.19862,-40.5328 36.26562,-55.4668 32,-26.667 52.26758,-67.2 52.26758,-112 0,-80.6 -65.06679,-147.185114 -146.71484,-147.388672 z m -0.0312,9.595703 c 76.76913,0.191149 137.94922,62.717749 137.94922,138.404299 0,42.06895 -19.05671,80.13248 -49.14453,105.17383 -16.04716,14.02361 -30.62683,41.09958 -36.64439,61.1321 l -103.09974,0 c -6.01756,-20.03346 -21.7279,-47.10943 -38.77736,-61.1321 -31.09107,-26.04237 -50.14582,-65.10683 -49.14258,-109.17969 2.00554,-71.11624 60.17434,-131.215779 131.38282,-134.220704 2.50733,-0.125215 5.00013,-0.183901 7.47656,-0.177735 z"
   style="fill:#ffd15c;fill-opacity:1;stroke:none;stroke-width:1.70000017;stroke-miterlimit:4;stroke-dasharray:none;stroke-opacity:1" />
<path
   id="path4"
   d="M242.133,393.6h9.6l-42.667-158.933c1.067,0,2.133,0,3.2,0c5.333,0,10.667-2.133,14.933-6.4  c2.133-2.133,4.267-3.2,7.467-3.2c3.2,0,5.333,1.067,7.467,3.2c7.467,8.533,20.267,8.533,27.733,0c2.133-2.133,4.267-3.2,7.467-3.2  c2.133,0,5.333,1.067,7.467,3.2c4.267,4.267,8.533,6.4,14.933,6.4c1.067,0,2.133,0,3.2,0l-41.6,158.933h9.6l43.733-166.4  c0-2.133,0-4.267-2.133-5.333c-2.133-1.067-4.267,0-5.333,1.067c-2.133,2.133-4.267,3.2-6.4,3.2c-3.2,0-5.333-1.067-8.533-3.2  c-4.267-4.267-8.533-6.4-13.867-6.4s-9.6,2.133-13.867,6.4s-10.667,4.267-14.933,0c-3.2-4.267-8.533-6.4-13.867-6.4l0,0  c-5.333,0-10.667,2.133-13.867,6.4c-2.133,2.133-5.333,3.2-8.533,3.2c-2.133,0-5.333-1.067-6.4-3.2  c-1.067-1.067-3.2-2.133-5.333-1.067c-2.133,1.067-3.2,3.2-2.133,5.333L242.133,393.6z"
   style="fill:#ffd15c;fill-opacity:1" />
<g
   id="g10">
	<path
   id="path6"
   d="M222.933,489.6C228.267,502.4,241.067,512,256,512c14.933,0,27.733-9.6,33.067-22.4H222.933z"
   style="fill:#344A5E;" />
	<path
   id="path8"
   d="M295.467,490.667H217.6c-10.667,0-19.2-8.533-19.2-19.2V390.4h116.267v81.067   C314.667,482.133,306.133,490.667,295.467,490.667z"
   style="fill:#344A5E;" />
</g>
<g
   id="g16">
	<path
   id="path12"
   d="M313.6,430.933H198.4c-6.4,0-11.733-5.333-11.733-11.733l0,0c0-6.4,5.333-11.733,11.733-11.733   h115.2c6.4,0,11.733,5.333,11.733,11.733l0,0C325.333,425.6,320,430.933,313.6,430.933z"
   style="fill:#415A6B;" />
	<path
   id="path14"
   d="M313.6,468.267H198.4c-6.4,0-11.733-5.333-11.733-11.733l0,0c0-6.4,5.333-11.733,11.733-11.733   h115.2c6.4,0,11.733,5.333,11.733,11.733l0,0C325.333,462.933,320,468.267,313.6,468.267z"
   style="fill:#415A6B;" />
</g>

<g
   id="g34">
</g>
<g
   id="g36">
</g>
<g
   id="g38">
</g>
<g
   id="g40">
</g>
<g
   id="g42">
</g>
<g
   id="g44">
</g>
<g
   id="g46">
</g>
<g
   id="g48">
</g>
<g
   id="g50">
</g>
<g
   id="g52">
</g>
<g
   id="g54">
</g>
<g
   id="g56">
</g>
<g
   id="g58">
</g>
<g
   id="g60">
</g>
<g
   id="g62">
</g>
</svg>