<?xml version="1.0" encoding="UTF-8" standalone="no"?>
<!-- Generator: Adobe Illustrator 19.0.0, SVG Export Plug-In . SVG Version: 6.00 Build 0)  -->

<svg
   xmlns:dc="http://purl.org/dc/elements/1.1/"
   xmlns:cc="http://creativecommons.org/ns#"
   xmlns:rdf="http://www.w3.org/1999/02/22-rdf-syntax-ns#"
   xmlns:svg="http://www.w3.org/2000/svg"
   xmlns="http://www.w3.org/2000/svg"
   xmlns:sodipodi="http://sodipodi.sourceforge.net/DTD/sodipodi-0.dtd"
   xmlns:inkscape="http://www.inkscape.org/namespaces/inkscape"
   version="1.1"
   id="Layer_1"
   x="0px"
   y="0px"
   viewBox="0 0 293.333 293.333"
   style="enable-background:new 0 0 293.333 293.333;"
   xml:space="preserve"
   sodipodi:docname="save.svg"
   inkscape:version="0.92.3 (2405546, 2018-03-11)"><metadata
   id="metadata51"><rdf:RDF><cc:Work
       rdf:about=""><dc:format>image/svg+xml</dc:format><dc:type
         rdf:resource="http://purl.org/dc/dcmitype/StillImage" /></cc:Work></rdf:RDF></metadata><defs
   id="defs49" /><sodipodi:namedview
   pagecolor="#ffffff"
   bordercolor="#666666"
   borderopacity="1"
   objecttolerance="10"
   gridtolerance="10"
   guidetolerance="10"
   inkscape:pageopacity="0"
   inkscape:pageshadow="2"
   inkscape:window-width="1853"
   inkscape:window-height="1025"
   id="namedview47"
   showgrid="false"
   inkscape:zoom="0.14222504"
   inkscape:cx="-1623.5191"
   inkscape:cy="-1798.2818"
   inkscape:window-x="67"
   inkscape:window-y="27"
   inkscape:window-maximized="1"
   inkscape:current-layer="Layer_1" />
<circle
   style="fill:#9ead1c;stroke-width:0.64463133;fill-opacity:1"
   cx="146.59111"
   cy="146.5157"
   r="146.68973"
   id="circle2" /><path
   inkscape:connector-curvature="0"
   style="fill:#95a127;stroke-width:0.64463133;fill-opacity:1"
   d="m 293.28019,146.5157 c 0,80.67949 -66.01025,146.68974 -146.68973,146.68974 -46.757044,0 -88.01345,-21.08654 -114.60127,-55.00833 24.753843,20.16987 56.842303,32.08846 91.68076,32.08846 80.67948,0 146.68973,-66.01025 146.68973,-146.68973 0,-34.838459 -11.91859,-66.926918 -32.08846,-91.680762 33.92244,26.586531 55.00897,67.842937 55.00897,114.600622 z"
   id="path4-3" /><g
   id="g14"
   transform="matrix(0.68667344,0,0,0.68667344,45.954514,45.954513)">
	<path
   style="fill:#5c6670"
   d="M 268.095,5.714 H 6.468 C 2.896,5.714 0,8.611 0,12.183 V 281.15 c 0,3.573 2.896,6.468 6.468,6.468 h 268.968 c 3.572,0 6.468,-2.896 6.468,-6.468 V 19.524 Z"
   id="path2"
   inkscape:connector-curvature="0" />
	<path
   style="fill:#333e48"
   d="M 279.523,5.714 H 17.897 c -3.572,0 -6.468,2.896 -6.468,6.469 V 281.15 c 0,3.573 2.896,6.468 6.468,6.468 h 268.968 c 3.572,0 6.468,-2.896 6.468,-6.468 V 19.524 Z"
   id="path4"
   inkscape:connector-curvature="0" />
	<rect
   x="46.554001"
   y="5.7140002"
   style="fill:#5c6670"
   width="201.065"
   height="89.523003"
   id="rect6" />
	<path
   style="fill:#a4a9ad"
   d="M 120.952,5.714 V 95.237 H 247.619 V 5.714 Z m 110.476,74.869 h -36.19 V 20.369 h 36.19 z"
   id="path8"
   inkscape:connector-curvature="0" />
	<rect
   x="46.554001"
   y="146.66701"
   style="fill:#c3c6c8"
   width="211.655"
   height="140.952"
   id="rect10" />
	<rect
   x="46.554001"
   y="146.66701"
   style="fill:#0071ce"
   width="211.655"
   height="20"
   id="rect12" />
</g>
<g
   id="g16">
</g>
<g
   id="g18">
</g>
<g
   id="g20">
</g>
<g
   id="g22">
</g>
<g
   id="g24">
</g>
<g
   id="g26">
</g>
<g
   id="g28">
</g>
<g
   id="g30">
</g>
<g
   id="g32">
</g>
<g
   id="g34">
</g>
<g
   id="g36">
</g>
<g
   id="g38">
</g>
<g
   id="g40">
</g>
<g
   id="g42">
</g>
<g
   id="g44">
</g>
</svg>